<svg width="24" height="24" viewBox="0 0 24 24" fill="none" xmlns="http://www.w3.org/2000/svg">
<g clip-path="url(#clip0_2481_3494)">
<path d="M12.0088 11.8389C14.127 11.8389 15.8496 9.9668 15.8496 7.66406C15.8496 5.40527 14.1357 3.59473 12.0088 3.59473C9.89062 3.59473 8.15039 5.42285 8.15918 7.68164C8.16797 9.97559 9.88184 11.8389 12.0088 11.8389ZM12.0088 10.3184C10.7871 10.3184 9.75879 9.18457 9.75 7.68164C9.75 6.22266 10.7783 5.11523 12.0088 5.11523C13.2393 5.11523 14.2588 6.20508 14.2588 7.66406C14.2588 9.16699 13.2305 10.3184 12.0088 10.3184ZM6.52441 20.0127H17.4844C18.9961 20.0127 19.7256 19.5381 19.7256 18.5098C19.7256 16.1016 16.7197 12.8672 12 12.8672C7.28027 12.8672 4.27441 16.1016 4.27441 18.5098C4.27441 19.5381 5.00391 20.0127 6.52441 20.0127ZM6.22559 18.4922C6.02344 18.4922 5.94434 18.4307 5.94434 18.2637C5.94434 16.9189 8.11523 14.3877 12 14.3877C15.8848 14.3877 18.0645 16.9189 18.0645 18.2637C18.0645 18.4307 17.9766 18.4922 17.7744 18.4922H6.22559Z" fill="#1C1C1E"/>
</g>
<defs>
<clipPath id="clip0_2481_3494">
<rect width="24" height="24" fill="white"/>
</clipPath>
</defs>
</svg>
