<svg width="24" height="24" viewBox="0 0 24 24" fill="none" xmlns="http://www.w3.org/2000/svg">
<g clip-path="url(#clip0_2481_3496)">
<path d="M0.609375 16.0137C0.609375 18.5098 2.8418 20.3818 5.58398 20.3818C8.32617 20.3818 10.5498 18.5098 10.5498 16.0137V13.9043C10.9717 13.7549 11.4814 13.667 12 13.667C12.5889 13.667 13.0547 13.7197 13.4414 13.8516V16.0137C13.4414 18.5186 15.6562 20.3906 18.4072 20.3906C21.1494 20.3906 23.3818 18.5186 23.3818 16.0137C23.3818 15.3809 23.2764 14.748 22.9336 13.957L19.3389 5.49316C18.8115 4.24512 17.7217 3.5332 16.3418 3.5332C14.584 3.5332 13.4414 4.66699 13.4414 6.36328V7.09277C13.0107 6.9873 12.5361 6.94336 12 6.94336C11.499 6.94336 11.0068 7.01367 10.5498 7.13672V6.36328C10.5498 4.6582 9.40723 3.5332 7.64941 3.5332C6.26074 3.5332 5.1709 4.23633 4.64355 5.48438L1.04883 13.9482C0.714844 14.748 0.609375 15.3721 0.609375 16.0137ZM3.58887 12.0762L6.14648 6.09082C6.41016 5.45801 6.94629 5.08887 7.58789 5.08887C8.40527 5.08887 8.9502 5.63379 8.9502 6.45117V12.876C8.09766 12.1025 6.87598 11.6367 5.58398 11.6367C4.89844 11.6367 4.19531 11.7949 3.58887 12.0762ZM20.3936 12.085C19.7871 11.8037 19.0928 11.6455 18.4072 11.6455C17.1152 11.6455 15.8936 12.1113 15.041 12.876V6.45996C15.041 5.64258 15.5859 5.08887 16.4033 5.08887C17.0449 5.09766 17.5723 5.45801 17.8447 6.09082L20.3936 12.085ZM12 8.27051C12.5889 8.27051 13.0547 8.32324 13.4414 8.45508V9.79102C13.0107 9.68555 12.5361 9.6416 12 9.6416C11.499 9.6416 11.0068 9.71191 10.5498 9.83496V8.50781C10.9717 8.3584 11.4814 8.27051 12 8.27051ZM12 10.9688C12.5889 10.9688 13.0547 11.0215 13.4414 11.1533V12.4805C13.0107 12.3838 12.5361 12.3311 12 12.3311C11.499 12.3311 11.0068 12.4014 10.5498 12.5332V11.2061C10.9717 11.0566 11.4814 10.9688 12 10.9688ZM2.27051 16.0137C2.27051 14.3525 3.69434 13.2363 5.58398 13.2363C7.47363 13.2363 8.94141 14.3525 8.94141 16.0137C8.94141 17.666 7.47363 18.7822 5.58398 18.7822C3.69434 18.7822 2.27051 17.666 2.27051 16.0137ZM21.7119 16.0137C21.7119 17.666 20.2969 18.791 18.4072 18.791C16.5176 18.791 15.0498 17.6748 15.0498 16.0137C15.0498 14.3613 16.5176 13.2363 18.4072 13.2363C20.2969 13.2363 21.7119 14.3613 21.7119 16.0137Z" fill="#1C1C1E"/>
</g>
<defs>
<clipPath id="clip0_2481_3496">
<rect width="24" height="24" fill="white"/>
</clipPath>
</defs>
</svg>
