<svg width="24" height="24" viewBox="0 0 24 24" fill="none" xmlns="http://www.w3.org/2000/svg">
<g clip-path="url(#clip0_2481_3492)">
<path d="M2.08594 18.3428C2.08594 19.1426 2.61328 19.5029 3.2373 19.5029C3.57129 19.5029 3.84375 19.3359 4.23047 19.0986C5.19727 18.457 6.33105 18.0791 7.5 18.0879C8.73047 18.0967 9.93457 18.5449 10.8926 19.4502C11.3057 19.8369 11.6309 19.9775 12 19.9775C12.3691 19.9775 12.7031 19.8369 13.1074 19.4502C14.0654 18.5537 15.2695 18.0967 16.5 18.0879C17.6689 18.0791 18.8027 18.457 19.7695 19.0986C20.1562 19.3359 20.4287 19.5029 20.7627 19.5029C21.3867 19.5029 21.9141 19.1426 21.9141 18.3428V6.41602C21.9141 6.24023 21.8877 6.09082 21.791 5.92383C20.9648 4.49121 18.917 3.33105 16.4648 3.33105C14.5928 3.33105 12.9316 4.05176 12 5.09766C11.0684 4.05176 9.40723 3.33105 7.53516 3.33105C5.08301 3.33105 3.03516 4.49121 2.20898 5.92383C2.1123 6.09082 2.08594 6.24023 2.08594 6.41602V18.3428ZM3.80859 17.376V6.6709C4.50293 5.69531 5.98828 5.05371 7.53516 5.05371C9.13477 5.05371 10.5322 5.7041 11.1387 6.71484V17.499C10.251 16.8398 8.91504 16.3652 7.53516 16.3652C6.09375 16.3652 4.73145 16.752 3.80859 17.376ZM12.8613 17.499V6.71484C13.4678 5.7041 14.874 5.05371 16.4648 5.05371C18.0117 5.05371 19.4971 5.69531 20.1914 6.6709V17.376C19.2686 16.752 17.9062 16.3652 16.4648 16.3652C15.085 16.3652 13.749 16.8398 12.8613 17.499Z" fill="#007AFF"/>
</g>
<defs>
<clipPath id="clip0_2481_3492">
<rect width="24" height="24" fill="white"/>
</clipPath>
</defs>
</svg>
