<svg width="32" height="32" viewBox="0 0 32 32" fill="none" xmlns="http://www.w3.org/2000/svg">
<path d="M14.3107 8.55738L15.066 8.74567C15.6793 8.89858 16.3209 8.89858 16.9342 8.74567L17.6895 8.55738C19.9463 7.99474 22.2819 7.77627 24.6102 7.91021C24.9488 7.92968 25.1558 8.18743 25.1558 8.43196V20.3027C25.1558 20.5405 24.9334 20.7976 24.5879 20.7777C22.1657 20.6384 19.7355 20.8656 17.3863 21.4512L16.5124 21.6691C16.176 21.753 15.8242 21.753 15.4878 21.6691L14.6139 21.4512C12.2647 20.8656 9.83449 20.6384 7.41224 20.7777C7.06684 20.7976 6.84438 20.5405 6.84438 20.3027V8.43196C6.84438 8.18743 7.05135 7.92968 7.38996 7.91021C9.71828 7.77627 12.0539 7.99474 14.3107 8.55738Z" stroke="#FF5F8F" stroke-width="1.74394"/>
<path d="M15.1375 8.49487H16.8923V22.4464H15.1375V8.49487Z" fill="#FF5F8F"/>
<path d="M7.28027 23.8065C9.8828 23.3949 12.9744 24.185 15.0041 24.733C15.6572 24.9093 16.3428 24.9093 16.9959 24.733C19.0256 24.185 22.1172 23.3949 24.7197 23.8065" stroke="#FF5F8F" stroke-width="1.74394" stroke-linecap="round"/>
</svg>
