<svg width="375" height="812" viewBox="0 0 375 812" fill="none" xmlns="http://www.w3.org/2000/svg">
<g clip-path="url(#clip0_896_2549)">
<rect width="375" height="812" fill="#B3E0F2"/>
<path d="M74.8481 604.029C71.5246 606.379 69.5842 605.294 68.6917 604.246C68.6286 604.171 68.5 604.215 68.5 604.312V611C69.5 611.5 71.7 612.138 74.5 610.538C77.2148 608.986 81.7158 609.503 83.8101 609.992C83.8895 610.01 83.9565 609.932 83.9211 609.859C83.0962 608.15 80.5233 607.082 78.9617 606.653C78.6713 606.573 78.405 606.337 78.5879 606.097C79.1292 605.389 81.351 604.551 82.7599 604.111C82.8464 604.084 82.8545 603.966 82.7725 603.928C80.2048 602.725 77.7092 602.907 76.2712 603.282C75.7481 603.418 75.2895 603.717 74.8481 604.029Z" fill="#FF7B7B"/>
<path d="M0 665H375V761H0V665Z" fill="url(#paint0_linear_896_2549)"/>
<g filter="url(#filter0_f_896_2549)">
<path d="M262.215 679.616C263.541 684.431 267.64 683.981 272.632 683.807C342.817 681.353 399.216 692.321 419.188 698.329L421.609 692.684C385.176 679.487 315.883 670.753 276.718 667.155C269.572 666.498 260.309 672.698 262.215 679.616Z" fill="black" fill-opacity="0.25"/>
<path d="M416.979 707.763C403.984 730.367 382.107 735.356 372.137 734.885C370.195 734.793 365.937 734.576 364.923 733.554C364.362 732.987 366.483 731.484 367.187 731.002L373.409 726.73C373.782 726.474 374.281 726.5 374.625 726.794L377.849 729.551C378.087 729.755 378.468 729.494 378.363 729.198L376.949 725.199C376.798 724.772 376.952 724.297 377.326 724.041L381.363 721.27C381.736 721.013 382.234 721.04 382.578 721.334L385.802 724.091C386.041 724.295 386.421 724.033 386.317 723.738L384.902 719.739C384.751 719.312 384.906 718.837 385.279 718.581L391.967 713.989C392.34 713.733 392.839 713.759 393.183 714.054L396.407 716.81C396.645 717.014 397.026 716.753 396.921 716.457L395.507 712.458C395.356 712.032 395.511 711.557 395.884 711.3L400.553 708.095L405.223 704.889C405.596 704.633 406.095 704.659 406.439 704.953L409.663 707.71C409.901 707.914 410.282 707.653 410.177 707.357L408.763 703.358C408.612 702.931 408.767 702.456 409.14 702.2L412.339 700.004C414.615 698.441 417.891 699.063 418.207 701.807C418.438 703.806 418.061 705.881 416.979 707.763Z" fill="black" fill-opacity="0.25"/>
<path d="M421.436 711.828C412.837 753.052 384.48 776.161 370.404 782.85C367.662 784.153 361.643 786.988 359.803 786.304C358.784 785.924 361.106 782.257 361.882 781.063L369.055 770.027C369.29 769.665 369.73 769.495 370.148 769.605L376.115 771.173C376.532 771.283 376.952 770.637 376.683 770.299L372.827 765.483C372.557 765.146 372.534 764.675 372.769 764.313L377.834 756.52C378.069 756.159 378.509 755.989 378.926 756.098L384.893 757.666C385.311 757.776 385.731 757.13 385.461 756.793L381.605 751.976C381.336 751.64 381.312 751.168 381.547 750.806L389.538 738.511C389.773 738.15 390.214 737.98 390.631 738.089L396.598 739.657C397.016 739.767 397.436 739.121 397.166 738.784L393.31 733.967C393.04 733.631 393.017 733.159 393.252 732.797L398.711 724.399L404.169 716C404.404 715.639 404.845 715.468 405.262 715.578L411.229 717.146C411.647 717.256 412.067 716.61 411.797 716.273L407.941 711.456C407.671 711.119 407.648 710.648 407.883 710.286L413.543 701.577C415.048 699.262 418.27 698.588 419.754 700.917C421.598 703.812 422.311 707.634 421.436 711.828Z" fill="black" fill-opacity="0.25"/>
</g>
<path d="M266.682 679.582C264.259 678.606 263.365 675.899 263.725 673.312C273.686 601.756 263.139 543.181 256.483 522.534L264.375 520.458C280.174 559.641 286.207 634.989 287.474 672.758C287.586 676.096 285.592 679.191 282.353 680.007C275.393 681.761 270.087 680.952 266.682 679.582Z" fill="url(#paint1_linear_896_2549)"/>
<path d="M264.644 530.763C264.644 533.802 261.519 536.443 257.42 536.443C253.32 536.443 250.195 533.802 250.195 530.763C250.195 527.725 253.32 525.084 257.42 525.084C261.519 525.084 264.644 527.725 264.644 530.763Z" fill="#D19066" stroke="#B67549"/>
<circle cx="258.964" cy="533.235" r="1.23594" fill="#6D4225"/>
<circle cx="262.054" cy="532.617" r="1.23594" fill="#6D4225"/>
<circle cx="260.818" cy="529.527" r="1.23594" fill="#6D4225"/>
<path d="M274.455 531.2C273.556 534.103 269.79 535.702 265.874 534.489C261.957 533.277 259.753 529.83 260.652 526.927C261.55 524.025 265.316 522.425 269.233 523.638C273.149 524.85 275.353 528.298 274.455 531.2Z" fill="#D19066" stroke="#B67549"/>
<circle cx="270.088" cy="531.999" r="1.23594" fill="#6D4225"/>
<circle cx="273.178" cy="530.145" r="1.23594" fill="#6D4225"/>
<circle cx="270.705" cy="528.292" r="1.23594" fill="#6D4225"/>
<path d="M260.265 515.512C249.86 500.246 233.48 493.683 222.864 490.922C216.101 489.164 209.054 489.94 202.312 491.778L199.228 492.62C198.27 492.881 198.237 494.228 199.182 494.535L210.409 498.189C210.707 498.285 211.033 498.237 211.29 498.058L214.826 495.594C214.83 495.591 214.834 495.588 214.837 495.584C215.084 495.36 215.518 495.62 215.437 495.944C215.436 495.948 215.434 495.953 215.432 495.958L214.349 498.395C214.144 498.857 214.316 499.4 214.749 499.659L219.711 502.631C220.018 502.815 220.399 502.821 220.711 502.648L225.146 500.181C225.153 500.177 225.16 500.172 225.166 500.167C225.412 499.95 225.838 500.205 225.763 500.524C225.761 500.532 225.758 500.54 225.753 500.548L223.804 503.939C223.533 504.411 223.69 505.015 224.158 505.295L231.988 509.985C232.373 510.216 232.865 510.162 233.191 509.852L236.59 506.623C236.837 506.388 237.284 506.655 237.193 506.984L235.95 511.505C235.831 511.938 236.015 512.397 236.4 512.628L241.965 515.961L247.53 519.295C247.915 519.525 248.407 519.471 248.732 519.162L252.131 515.932C252.379 515.697 252.825 515.964 252.735 516.294L251.491 520.814C251.372 521.247 251.556 521.707 251.942 521.937L256.326 524.563C258.695 525.982 261.911 525.166 262.127 522.413C262.311 520.075 261.725 517.653 260.265 515.512Z" fill="url(#paint2_linear_896_2549)"/>
<path d="M262.982 515.499C281.042 492.586 306.057 489.927 317.01 491.698C319.144 492.043 323.82 492.816 324.774 494.055C325.303 494.741 322.711 496.105 321.854 496.541L314.181 500.443C313.78 500.647 313.294 500.559 312.99 500.228L309.822 496.771C309.592 496.519 309.128 496.755 309.196 497.09L310.124 501.686C310.212 502.126 309.997 502.571 309.597 502.775L304.492 505.371C304.092 505.575 303.605 505.486 303.301 505.155L300.134 501.698C299.903 501.447 299.439 501.682 299.507 502.017L300.435 506.613C300.524 507.053 300.308 507.499 299.908 507.702L291.573 511.941C291.173 512.144 290.686 512.056 290.383 511.725L287.215 508.268C286.984 508.017 286.521 508.252 286.588 508.587L287.516 513.183C287.605 513.623 287.39 514.069 286.989 514.272L281.207 517.213L275.425 520.153C275.025 520.357 274.538 520.269 274.235 519.938L271.067 516.481C270.836 516.229 270.373 516.465 270.44 516.799L271.368 521.396C271.457 521.836 271.241 522.281 270.841 522.485L266.286 524.801C263.825 526.053 260.672 525.016 260.647 522.255C260.626 519.909 261.378 517.534 262.982 515.499Z" fill="url(#paint3_linear_896_2549)"/>
<path d="M256.393 514.997C227.199 496.205 196.901 496.944 184.658 499.969C182.767 500.436 179.097 502.61 177.312 504.12C176.79 504.562 177.06 505.251 177.733 505.37L191.317 507.779C191.7 507.847 192.087 507.687 192.31 507.368L194.866 503.723C195.049 503.462 195.675 503.62 195.713 503.937L196.228 508.307C196.277 508.719 196.575 509.058 196.977 509.159L204.371 511.024C204.773 511.125 205.196 510.968 205.434 510.628L207.96 507.025C208.143 506.764 208.769 506.922 208.807 507.239L209.322 511.609C209.371 512.021 209.669 512.36 210.071 512.461L221.829 515.426C222.232 515.528 222.655 515.37 222.893 515.031L225.419 511.428C225.602 511.167 226.228 511.325 226.266 511.641L226.781 516.011C226.83 516.423 227.128 516.762 227.53 516.864L235.591 518.896L243.653 520.929C244.055 521.031 244.478 520.873 244.716 520.534L247.242 516.931C247.425 516.67 248.052 516.828 248.089 517.144L248.605 521.514C248.653 521.926 248.951 522.265 249.353 522.367L256.932 524.278C259.609 524.953 262.414 523.158 261.367 520.603C260.528 518.554 258.859 516.585 256.393 514.997Z" fill="url(#paint4_linear_896_2549)"/>
<path d="M266.131 522.081C289.11 526.939 302.023 542.743 305.768 550.578C306.497 552.104 308.616 556.259 307.706 556.475C305.794 556.93 300.779 552.49 299.044 551.017C298.723 550.745 298.565 550.304 298.662 549.893L299.254 547.382C299.315 547.15 298.954 546.915 298.767 547.064L296.621 548.566C296.254 548.823 295.761 548.804 295.414 548.521L291.689 545.473C291.406 545.242 291.272 544.875 291.338 544.516L291.718 542.477C291.778 542.245 291.418 542.01 291.23 542.16L289.513 543.577C289.203 543.833 288.768 543.878 288.412 543.691L281.405 540.008C280.993 539.792 280.785 539.32 280.902 538.87L281.669 535.937C281.729 535.706 281.369 535.471 281.181 535.62L278.461 537.787C278.299 537.916 278.071 537.927 277.897 537.813C274.759 535.771 271.41 534.042 267.926 532.668C267.688 532.574 267.565 532.309 267.647 532.066L269.107 527.763C269.168 527.531 268.807 527.297 268.62 527.446L266.192 529.38C265.855 529.648 265.384 529.671 265.023 529.436L262.282 527.652C259.967 526.145 259.417 522.81 262.091 522.121C263.308 521.807 264.679 521.774 266.131 522.081Z" fill="#76AF2D"/>
<path d="M253.005 522.528C229.659 534.137 223.36 555.673 223.229 565.653C223.204 567.597 223.501 574.5 225 575.5C226.32 576.38 230.269 567.534 231.555 564.941C231.756 564.535 231.729 564.018 231.456 563.657L228.898 560.273C228.709 560.023 228.992 559.659 229.281 559.781L233.111 561.402C233.563 561.593 234.086 561.428 234.347 561.013L237.121 556.602C237.348 556.242 237.322 555.777 237.055 555.445L234.828 552.663C234.64 552.415 234.917 552.055 235.204 552.168C235.209 552.17 235.214 552.172 235.219 552.173L238.44 552.97C238.824 553.064 239.227 552.925 239.469 552.614L244.528 546.121C244.807 545.764 244.81 545.264 244.537 544.903L242.734 542.517C242.545 542.267 242.828 541.902 243.117 542.025L245.881 543.194C246.256 543.352 246.688 543.268 246.976 542.982L256 534L252.617 529.834C252.428 529.583 252.711 529.219 253 529.341L256.907 530.994C257.324 531.171 257.807 531.045 258.085 530.688L260.47 527.627C262.168 525.449 261.744 522.141 259.024 521.66C257.042 521.31 254.948 521.561 253.005 522.528Z" fill="#76AF2D"/>
<path d="M273.178 514.733C314.803 511.462 345.436 531.478 354.741 543.842C358.203 548.441 358.951 552.965 359.029 555.548C359.05 556.249 358.321 556.678 357.687 556.378L341.739 548.816C341.343 548.628 341.115 548.204 341.177 547.77L342.058 541.635C342.059 541.629 342.059 541.624 342.059 541.618C342.041 541.192 341.319 540.975 341.072 541.326L337.572 546.312C337.305 546.693 336.811 546.839 336.38 546.665L327.553 543.109C327.183 542.96 326.937 542.605 326.927 542.206L326.8 536.979C326.791 536.548 326.061 536.326 325.813 536.679L322.282 540.816C322.024 541.119 321.611 541.24 321.23 541.124L307.288 536.878C306.876 536.752 306.59 536.377 306.58 535.946L306.454 530.783C306.445 530.352 305.715 530.13 305.467 530.483L301.511 535.118L291.338 533.02L281.165 529.922L281.021 523.038C281.012 522.607 280.282 522.384 280.034 522.737L276.078 528.373L265.601 525.183C262.96 524.378 261.418 521.47 263.238 519.393C265.495 516.816 268.943 515.066 273.178 514.733Z" fill="#79BA28"/>
<path d="M249.216 517.834C207.549 523.932 182.772 550.844 175.247 564.491C173.781 567.151 170.928 574.122 171.5 576C172.725 580.024 185.266 570.064 188.339 567.803C188.69 567.544 188.871 567.099 188.78 566.673L187.247 559.495C187.163 559.072 187.833 558.691 188.153 558.981L192.656 563.055C193.01 563.375 193.54 563.401 193.923 563.116L201.674 557.364C201.975 557.141 202.126 556.767 202.064 556.397L201.258 551.547C201.174 551.123 201.844 550.743 202.165 551.033L205.402 553.541C205.721 553.788 206.157 553.819 206.508 553.62L219.434 546.287C219.747 546.11 219.94 545.778 219.94 545.418L219.94 540.959C219.94 540.952 219.939 540.945 219.938 540.939C219.866 540.519 220.529 540.147 220.846 540.435L223.792 542.695C224.111 542.939 224.545 542.969 224.894 542.771L233.659 537.799L242.528 532.768C242.822 532.601 243.012 532.296 243.033 531.959L243.292 527.714C243.292 527.706 243.291 527.697 243.29 527.688C243.221 527.27 243.882 526.9 244.199 527.187L248.774 531.326C249.094 531.616 249.563 531.668 249.938 531.455L258.972 526.33C261.374 524.967 262.242 521.792 260.006 520.17C257.228 518.155 253.455 517.213 249.216 517.834Z" fill="url(#paint5_linear_896_2549)"/>
<path d="M267.178 515.173C296.751 500.951 324.303 508.117 335.014 513.965C337.1 515.105 341.664 517.618 342.098 519.129C342.338 519.966 338.981 520.23 337.878 520.303L327.86 520.966C327.426 520.995 327.023 520.74 326.864 520.335L325.11 515.887C324.983 515.566 324.387 515.606 324.303 515.941L323.151 520.581C323.046 521.003 322.681 521.309 322.247 521.338L315.391 521.791C314.957 521.82 314.554 521.565 314.395 521.16L312.641 516.713C312.514 516.392 311.918 516.431 311.835 516.766L310.682 521.406C310.578 521.828 310.212 522.134 309.778 522.163L298.766 522.892C298.332 522.921 297.929 522.666 297.77 522.261L296.016 517.813C295.889 517.492 295.293 517.532 295.209 517.867L294.057 522.507C293.952 522.929 293.587 523.235 293.153 523.264L285.569 523.766L277.985 524.268C277.551 524.297 277.148 524.042 276.988 523.637L275.235 519.189C275.108 518.868 274.511 518.908 274.428 519.243L273.276 523.883C273.171 524.305 272.805 524.611 272.371 524.64L265.62 525.087C262.865 525.269 260.386 523.053 261.582 520.564C262.637 518.369 264.532 516.445 267.178 515.173Z" fill="url(#paint6_linear_896_2549)"/>
<path d="M252.74 513.952C212.299 503 179.083 517.858 166.84 527.393C164.454 529.251 159.242 533.339 159.025 535.29C158.905 536.371 163.2 535.955 164.608 535.802L177.611 534.39C178.04 534.343 178.391 534.026 178.481 533.603L179.762 527.573C179.852 527.151 180.614 527.069 180.792 527.462L183.339 533.076C183.517 533.469 183.928 533.703 184.357 533.657L193.532 532.66C193.961 532.613 194.312 532.296 194.402 531.874L195.684 525.844C195.773 525.422 196.535 525.339 196.713 525.732L199.26 531.346C199.438 531.739 199.849 531.974 200.278 531.927L214.76 530.354C215.19 530.307 215.541 529.99 215.63 529.567L216.912 523.537C217.002 523.115 217.763 523.032 217.942 523.426L220.488 529.039C220.666 529.433 221.077 529.667 221.507 529.621L231.401 528.546L241.296 527.471C241.725 527.424 242.076 527.107 242.166 526.684L243.447 520.654C243.537 520.232 244.299 520.15 244.477 520.543L247.023 526.157C247.202 526.55 247.613 526.784 248.042 526.738L258.273 525.626C261.018 525.328 263.074 522.758 261.67 520.38C259.927 517.427 256.854 515.066 252.74 513.952Z" fill="url(#paint7_linear_896_2549)"/>
<g filter="url(#filter1_f_896_2549)">
<ellipse cx="229" cy="696.5" rx="10" ry="4.5" fill="black" fill-opacity="0.4"/>
</g>
<ellipse cx="226.203" cy="689.798" rx="10.2822" ry="8.5342" transform="rotate(6.66663 226.203 689.798)" fill="url(#paint8_linear_896_2549)"/>
<circle cx="228" cy="689" r="1" fill="#793300"/>
<circle cx="229" cy="692" r="1" fill="#793300"/>
<circle cx="231" cy="690" r="1" fill="#793300"/>
<path d="M80.6727 162.395C77.367 165.078 72.633 165.078 69.3273 162.395L61.5806 156.105C60.2238 155.004 58.5757 154.321 56.8374 154.14L46.9124 153.11C42.6772 152.67 39.3298 149.323 38.89 145.088L37.8595 135.163C37.679 133.424 36.9963 131.776 35.8948 130.419L29.6054 122.673C26.9217 119.367 26.9217 114.633 29.6055 111.327L35.8948 103.581C36.9963 102.224 37.679 100.576 37.8595 98.8374L38.89 88.9124C39.3298 84.6772 42.6772 81.3298 46.9124 80.89L56.8374 79.8595C58.5757 79.679 60.2238 78.9963 61.5806 77.8948L69.3273 71.6054C72.633 68.9217 77.367 68.9217 80.6727 71.6054L88.4194 77.8948C89.7762 78.9963 91.4243 79.679 93.1626 79.8595L103.088 80.89C107.323 81.3298 110.67 84.6772 111.11 88.9124L112.141 98.8374C112.321 100.576 113.004 102.224 114.105 103.581L120.395 111.327C123.078 114.633 123.078 119.367 120.395 122.673L114.105 130.419C113.004 131.776 112.321 133.424 112.141 135.163L111.11 145.088C110.67 149.323 107.323 152.67 103.088 153.11L93.1626 154.14C91.4243 154.321 89.7762 155.004 88.4194 156.105L80.6727 162.395Z" fill="url(#paint9_diamond_896_2549)"/>
<circle cx="75" cy="117" r="37" fill="url(#paint10_linear_896_2549)"/>
<path d="M252 177H226.5C219.381 163.181 208.938 155.383 199 151.853C189.952 148.638 181.322 148.547 176 149.5C181.868 144.858 193.166 140.87 207.5 144.34C220.445 147.474 235.866 156.69 252 177Z" fill="#F4F4F4"/>
<g filter="url(#filter2_f_896_2549)">
<path d="M244.283 173.617L226 174C237.568 158.453 248.624 151.399 257.906 149C257.428 150.369 257.977 153.436 264 154.751C256.874 157.453 249.387 163.04 244.283 173.617Z" fill="url(#paint11_linear_896_2549)"/>
</g>
<path d="M226.709 177H252C259.119 163.181 269.062 154.357 279 150.827C288.048 147.612 296.678 147.521 302 148.474C296.132 143.832 284.834 139.844 270.5 143.314C257.555 146.448 242.843 156.69 226.709 177Z" fill="#F4F4F4"/>
<path d="M207.5 144.314C193.166 140.844 181.868 144.832 176 149.474C181.322 148.521 189.952 148.612 199 151.827C207.4 150.109 208.167 146.103 207.5 144.314Z" fill="#092537"/>
<path d="M270.5 143.314C284.834 139.844 296.132 143.832 302 148.474C296.678 147.521 288.048 147.612 279 150.827C270.6 149.109 269.833 145.103 270.5 143.314Z" fill="#092537"/>
<path d="M271 173C266.6 166.2 246.667 163 240.5 161.5L252 177H280.5C278.5 173.8 273.333 173 271 173Z" fill="#F4F4F4"/>
<g filter="url(#filter3_f_896_2549)">
<ellipse cx="71.5" cy="674.604" rx="34.5" ry="9.5" fill="black" fill-opacity="0.25"/>
</g>
<path d="M39 643.804C39 643.384 39.2626 643.008 39.6572 642.864L43.8236 641.344C44.2182 641.2 44.4808 640.825 44.4808 640.405V636.964C44.4808 636.469 44.8418 636.049 45.3305 635.975L49.9074 635.279C50.5126 635.187 51.0577 635.656 51.0577 636.268V639.941C51.0577 640.553 51.6028 641.021 52.208 640.929L56.7849 640.233C57.2736 640.159 57.6346 639.739 57.6346 639.245V634.964C57.6346 634.469 57.9957 634.049 58.4843 633.975L63.0612 633.279C63.6664 633.187 64.2115 633.656 64.2115 634.268V638.104C64.2115 638.656 64.6593 639.104 65.2115 639.104H69.7885C70.3407 639.104 70.7885 638.656 70.7885 638.104V634.268C70.7885 633.656 71.3336 633.187 71.9388 633.279L76.5157 633.975C77.0043 634.049 77.3654 634.469 77.3654 634.964V639.245C77.3654 639.739 77.7264 640.159 78.2151 640.233L82.792 640.929C83.3972 641.021 83.9423 640.553 83.9423 639.941V636.268C83.9423 635.656 84.4874 635.187 85.0926 635.279L89.6696 635.975C90.1582 636.049 90.5192 636.469 90.5192 636.964V640.405C90.5192 640.825 90.7818 641.2 91.1764 641.344L95.3299 642.86C95.7309 643.006 95.9948 643.391 95.987 643.817L95.5048 670.211C95.4753 671.825 94.173 673.127 92.5584 673.155L42.0531 674.05C40.3757 674.08 39 672.728 39 671.051V643.804Z" fill="url(#paint12_linear_896_2549)"/>
<path d="M55.9371 621.669C56.0826 620.825 56.9161 620.285 57.7457 620.496C64.4747 622.207 71.5253 622.207 78.2543 620.496C79.0839 620.285 79.9174 620.825 80.0629 621.669L86 656.104H50L55.9371 621.669Z" fill="url(#paint13_linear_896_2549)"/>
<path d="M36.1788 639.758C36.0977 639.008 36.8442 638.442 37.5444 638.722L40.497 639.903C40.8108 640.028 41.04 640.304 41.1062 640.635L41.8693 644.45C41.9484 644.846 42.2579 645.156 42.6537 645.235L45.8039 645.865C46.4227 645.989 47 645.515 47 644.884V642.285C47 641.667 47.5549 641.197 48.1644 641.298L52.1644 641.965C52.6466 642.045 53 642.462 53 642.951V646.257C53 646.746 53.3534 647.163 53.8356 647.243L57.8356 647.91C58.4451 648.012 59 647.542 59 646.924V644.285C59 643.667 59.5549 643.197 60.1644 643.298L64.1644 643.965C64.6466 644.045 65 644.462 65 644.951V648.104C65 648.656 65.4477 649.104 66 649.104H70C70.5523 649.104 71 648.656 71 648.104V644.951C71 644.462 71.3534 644.045 71.8356 643.965L75.8356 643.298C76.4451 643.197 77 643.667 77 644.285V646.924C77 647.542 77.5549 648.012 78.1644 647.91L82.1644 647.243C82.6466 647.163 83 646.746 83 646.257V642.951C83 642.462 83.3534 642.045 83.8356 641.965L87.8356 641.298C88.4451 641.197 89 641.667 89 642.285V644.884C89 645.515 89.5773 645.989 90.1961 645.865L93.3463 645.235C93.7421 645.156 94.0516 644.846 94.1307 644.45L94.8938 640.635C94.96 640.304 95.1892 640.028 95.503 639.903L98.4556 638.722C99.1558 638.442 99.9023 639.008 99.8212 639.758L96.1785 673.453C96.0682 674.473 95.4166 675.354 94.4738 675.758C77.5682 683.004 58.4318 683.004 41.5262 675.758C40.5834 675.354 39.9318 674.473 39.8215 673.453L36.1788 639.758Z" fill="url(#paint14_linear_896_2549)"/>
<ellipse cx="68" cy="620.604" rx="11" ry="1.5" fill="#F4E9B8"/>
<path d="M67.5 620.104V620.604H68.5V620.104H67.5ZM68.5 604.104C68.5 603.828 68.2761 603.604 68 603.604C67.7239 603.604 67.5 603.828 67.5 604.104H68.5ZM68.5 620.104V612.104H67.5V620.104H68.5ZM68.5 612.104V611.104H67.5V612.104H68.5ZM68.5 611.104V604.104H67.5V611.104H68.5Z" fill="white"/>
<g filter="url(#filter4_i_896_2549)">
<path d="M65 630.104C65 628.447 66.3431 627.104 68 627.104C69.6569 627.104 71 628.447 71 630.104V635.778C71 635.958 70.854 636.104 70.6739 636.104H65.3261C65.146 636.104 65 635.958 65 635.778V630.104Z" fill="#FFBB8B"/>
</g>
<path fill-rule="evenodd" clip-rule="evenodd" d="M112.176 668.413C111.454 668.305 106.043 667.676 104.861 672.819C103.826 677.319 103.035 681.038 102.621 683.058C102.501 683.642 102.919 684.196 103.513 684.246L118.465 685.507C118.965 685.549 119.419 685.213 119.526 684.722L121.8 674.247C122.66 669.62 117.035 668.849 116.317 668.769C116.277 668.765 116.251 668.727 116.261 668.688L120.563 652.566C120.984 650.989 119.877 649.414 118.25 649.277C116.91 649.164 115.701 650.084 115.453 651.406L112.271 668.344C112.263 668.389 112.221 668.42 112.176 668.413ZM117.495 654.115C118.32 654.185 119.046 653.572 119.115 652.747C119.185 651.921 118.825 651.069 118 651C117.174 650.93 116.57 651.675 116.5 652.5C116.431 653.326 116.669 654.046 117.495 654.115Z" fill="url(#paint15_linear_896_2549)"/>
<g filter="url(#filter5_f_896_2549)">
<ellipse cx="108.647" cy="671.899" rx="1.5" ry="3" transform="rotate(44.6941 108.647 671.899)" fill="white"/>
</g>
<g filter="url(#filter6_d_896_2549)">
<path d="M126.694 687.75C127.043 688.458 126.535 689.207 125.812 689.528L123.252 690.666C119.789 692.205 116.042 693 112.253 693C106.14 693 100.084 691.834 94.4088 689.563L94.1335 689.453C93.4489 689.18 92.9617 688.489 93.2723 687.821C94.8075 684.516 102.577 682 110 682C117.37 682 125.081 684.48 126.694 687.75Z" fill="url(#paint16_linear_896_2549)"/>
</g>
<rect y="761" width="375" height="51" fill="#FDF3B4"/>
</g>
<defs>
<filter id="filter0_f_896_2549" x="257.962" y="594.209" width="197.809" height="210.594" filterUnits="userSpaceOnUse" color-interpolation-filters="sRGB">
<feFlood flood-opacity="0" result="BackgroundImageFix"/>
<feBlend mode="normal" in="SourceGraphic" in2="BackgroundImageFix" result="shape"/>
<feGaussianBlur stdDeviation="2" result="effect1_foregroundBlur_896_2549"/>
</filter>
<filter id="filter1_f_896_2549" x="213" y="686" width="32" height="21" filterUnits="userSpaceOnUse" color-interpolation-filters="sRGB">
<feFlood flood-opacity="0" result="BackgroundImageFix"/>
<feBlend mode="normal" in="SourceGraphic" in2="BackgroundImageFix" result="shape"/>
<feGaussianBlur stdDeviation="3" result="effect1_foregroundBlur_896_2549"/>
</filter>
<filter id="filter2_f_896_2549" x="222" y="145" width="46" height="33" filterUnits="userSpaceOnUse" color-interpolation-filters="sRGB">
<feFlood flood-opacity="0" result="BackgroundImageFix"/>
<feBlend mode="normal" in="SourceGraphic" in2="BackgroundImageFix" result="shape"/>
<feGaussianBlur stdDeviation="2" result="effect1_foregroundBlur_896_2549"/>
</filter>
<filter id="filter3_f_896_2549" x="33" y="661.104" width="77" height="27" filterUnits="userSpaceOnUse" color-interpolation-filters="sRGB">
<feFlood flood-opacity="0" result="BackgroundImageFix"/>
<feBlend mode="normal" in="SourceGraphic" in2="BackgroundImageFix" result="shape"/>
<feGaussianBlur stdDeviation="2" result="effect1_foregroundBlur_896_2549"/>
</filter>
<filter id="filter4_i_896_2549" x="65" y="627.104" width="6" height="10" filterUnits="userSpaceOnUse" color-interpolation-filters="sRGB">
<feFlood flood-opacity="0" result="BackgroundImageFix"/>
<feBlend mode="normal" in="SourceGraphic" in2="BackgroundImageFix" result="shape"/>
<feColorMatrix in="SourceAlpha" type="matrix" values="0 0 0 0 0 0 0 0 0 0 0 0 0 0 0 0 0 0 127 0" result="hardAlpha"/>
<feOffset dy="1"/>
<feGaussianBlur stdDeviation="0.5"/>
<feComposite in2="hardAlpha" operator="arithmetic" k2="-1" k3="1"/>
<feColorMatrix type="matrix" values="0 0 0 0 0 0 0 0 0 0 0 0 0 0 0 0 0 0 0.1 0"/>
<feBlend mode="normal" in2="shape" result="effect1_innerShadow_896_2549"/>
</filter>
<filter id="filter5_f_896_2549" x="99.2822" y="662.519" width="18.7292" height="18.7596" filterUnits="userSpaceOnUse" color-interpolation-filters="sRGB">
<feFlood flood-opacity="0" result="BackgroundImageFix"/>
<feBlend mode="normal" in="SourceGraphic" in2="BackgroundImageFix" result="shape"/>
<feGaussianBlur stdDeviation="3.5" result="effect1_foregroundBlur_896_2549"/>
</filter>
<filter id="filter6_d_896_2549" x="93.1766" y="677" width="40.63" height="17" filterUnits="userSpaceOnUse" color-interpolation-filters="sRGB">
<feFlood flood-opacity="0" result="BackgroundImageFix"/>
<feColorMatrix in="SourceAlpha" type="matrix" values="0 0 0 0 0 0 0 0 0 0 0 0 0 0 0 0 0 0 127 0" result="hardAlpha"/>
<feOffset dx="4" dy="-2"/>
<feGaussianBlur stdDeviation="1.5"/>
<feComposite in2="hardAlpha" operator="out"/>
<feColorMatrix type="matrix" values="0 0 0 0 0 0 0 0 0 0 0 0 0 0 0 0 0 0 0.25 0"/>
<feBlend mode="normal" in2="BackgroundImageFix" result="effect1_dropShadow_896_2549"/>
<feBlend mode="normal" in="SourceGraphic" in2="effect1_dropShadow_896_2549" result="shape"/>
</filter>
<linearGradient id="paint0_linear_896_2549" x1="187.5" y1="665" x2="187.5" y2="761" gradientUnits="userSpaceOnUse">
<stop stop-color="#EDE8CA"/>
<stop offset="1" stop-color="#FDF3B4"/>
</linearGradient>
<linearGradient id="paint1_linear_896_2549" x1="263" y1="534" x2="279.5" y2="681" gradientUnits="userSpaceOnUse">
<stop stop-color="#704B32"/>
<stop offset="1" stop-color="#A17C62"/>
</linearGradient>
<linearGradient id="paint2_linear_896_2549" x1="243.134" y1="497.182" x2="264.43" y2="524.622" gradientUnits="userSpaceOnUse">
<stop offset="0.277064" stop-color="#83CD27"/>
<stop offset="0.73644" stop-color="#78B62A"/>
</linearGradient>
<linearGradient id="paint3_linear_896_2549" x1="324.918" y1="491.95" x2="255.63" y2="525.802" gradientUnits="userSpaceOnUse">
<stop offset="0.546656" stop-color="#86CD2D"/>
<stop offset="0.833652" stop-color="#76AF2D"/>
</linearGradient>
<linearGradient id="paint4_linear_896_2549" x1="258.398" y1="525.309" x2="162.877" y2="504.294" gradientUnits="userSpaceOnUse">
<stop offset="0.0609253" stop-color="#77B22D"/>
<stop offset="0.287265" stop-color="#8ACC37"/>
</linearGradient>
<linearGradient id="paint5_linear_896_2549" x1="188.826" y1="559.808" x2="253.713" y2="525.201" gradientUnits="userSpaceOnUse">
<stop offset="0.872723" stop-color="#79BA28"/>
<stop offset="1" stop-color="#76AF2D"/>
</linearGradient>
<linearGradient id="paint6_linear_896_2549" x1="300.987" y1="520.567" x2="258.038" y2="525.202" gradientUnits="userSpaceOnUse">
<stop stop-color="#81C72B"/>
<stop offset="1" stop-color="#76AF2D"/>
</linearGradient>
<linearGradient id="paint7_linear_896_2549" x1="261.437" y1="523.348" x2="157" y2="536.325" gradientUnits="userSpaceOnUse">
<stop stop-color="#76AF2D"/>
<stop offset="0.3473" stop-color="#81C72B"/>
</linearGradient>
<linearGradient id="paint8_linear_896_2549" x1="226.663" y1="695.485" x2="219.575" y2="682.218" gradientUnits="userSpaceOnUse">
<stop stop-color="#A44304" stop-opacity="0.7"/>
<stop offset="1" stop-color="#D19066"/>
</linearGradient>
<radialGradient id="paint9_diamond_896_2549" cx="0" cy="0" r="1" gradientUnits="userSpaceOnUse" gradientTransform="translate(75 117) rotate(-90) scale(50)">
<stop stop-color="#EBFF00"/>
<stop offset="0.930208" stop-color="#FFC01F"/>
</radialGradient>
<linearGradient id="paint10_linear_896_2549" x1="98" y1="139.5" x2="49" y2="81.5" gradientUnits="userSpaceOnUse">
<stop stop-color="#FF8E3C"/>
<stop offset="1" stop-color="#FF8E3C" stop-opacity="0.32"/>
</linearGradient>
<linearGradient id="paint11_linear_896_2549" x1="227" y1="140.5" x2="245" y2="174" gradientUnits="userSpaceOnUse">
<stop stop-color="#7BB5D0"/>
<stop offset="1" stop-color="#7BB5D0" stop-opacity="0"/>
</linearGradient>
<linearGradient id="paint12_linear_896_2549" x1="68.5962" y1="637.437" x2="76.8279" y2="709.624" gradientUnits="userSpaceOnUse">
<stop stop-color="#FFC075"/>
<stop offset="1" stop-color="#E4BC53"/>
</linearGradient>
<linearGradient id="paint13_linear_896_2549" x1="68" y1="620.104" x2="81.5" y2="667.5" gradientUnits="userSpaceOnUse">
<stop stop-color="#F2EDCF"/>
<stop offset="1" stop-color="#FAEB95"/>
</linearGradient>
<linearGradient id="paint14_linear_896_2549" x1="68" y1="638.104" x2="82.5" y2="707.604" gradientUnits="userSpaceOnUse">
<stop stop-color="#F4E9B8"/>
<stop offset="0.644057" stop-color="#E4BC53"/>
</linearGradient>
<linearGradient id="paint15_linear_896_2549" x1="114.722" y1="648.98" x2="117.99" y2="691.498" gradientUnits="userSpaceOnUse">
<stop stop-color="#3793FF"/>
<stop offset="1" stop-color="#2288FF"/>
</linearGradient>
<linearGradient id="paint16_linear_896_2549" x1="108.5" y1="679.5" x2="112" y2="693" gradientUnits="userSpaceOnUse">
<stop stop-color="#F2EBC3"/>
<stop offset="0.95968" stop-color="#E6C15F"/>
</linearGradient>
<clipPath id="clip0_896_2549">
<rect width="375" height="812" fill="white"/>
</clipPath>
</defs>
</svg>
