<svg width="111" height="24" viewBox="0 0 111 24" fill="none" xmlns="http://www.w3.org/2000/svg">
<path d="M0.31125 21.4945C0.31125 20.7051 0.66325 20.1238 1.36725 19.7505L1.87925 19.4785C2.12458 19.3505 2.32192 19.1958 2.47125 19.0145C2.63125 18.8225 2.71125 18.5185 2.71125 18.1025V5.75046C2.71125 5.33446 2.63125 5.0358 2.47125 4.85446C2.32192 4.66246 2.12458 4.50246 1.87925 4.37446L1.36725 4.10246C0.66325 3.72913 0.31125 3.1478 0.31125 2.35846C0.31125 1.85713 0.460583 1.46246 0.75925 1.17446C1.06858 0.875797 1.53258 0.726463 2.15125 0.726463H11.7673C13.7513 0.726463 15.5539 1.0198 17.1753 1.60646C18.8073 2.19313 20.2099 3.02513 21.3833 4.10246C22.5566 5.16913 23.4579 6.43846 24.0873 7.91046C24.7166 9.3718 25.0313 10.9878 25.0313 12.7585C25.0313 14.7531 24.5513 16.5345 23.5913 18.1025C22.6313 19.6598 21.2713 20.8865 19.5113 21.7825C17.7619 22.6785 15.6979 23.1265 13.3193 23.1265H2.15125C1.52192 23.1265 1.05792 22.9825 0.75925 22.6945C0.460583 22.3958 0.31125 21.9958 0.31125 21.4945ZM12.5993 19.7665C13.4846 19.7665 14.2899 19.5158 15.0153 19.0145C15.7406 18.5025 16.3166 17.7185 16.7432 16.6625C17.1806 15.5958 17.3993 14.2358 17.3993 12.5825C17.3993 11.3131 17.2553 10.1611 16.9673 9.12646C16.6899 8.08113 16.2793 7.18513 15.7353 6.43846C15.2019 5.68113 14.5459 5.0998 13.7673 4.69446C12.9993 4.28913 12.1246 4.08646 11.1433 4.08646H10.1353V17.3345C10.1353 18.1985 10.3273 18.8225 10.7113 19.2065C11.0953 19.5798 11.6553 19.7665 12.3913 19.7665H12.5993ZM32.0648 12.8865H42.0487V16.2465H32.0648V12.8865ZM35.0408 21.4945C35.0408 21.9958 34.8914 22.3958 34.5928 22.6945C34.2941 22.9825 33.8301 23.1265 33.2008 23.1265H28.6728C28.0434 23.1265 27.5794 22.9825 27.2808 22.6945C26.9821 22.3958 26.8328 21.9958 26.8328 21.4945C26.8328 21.1638 26.9021 20.8811 27.0408 20.6465C27.1901 20.4011 27.4301 20.1505 27.7608 19.8945L28.1128 19.6225C28.3154 19.4731 28.4808 19.2971 28.6088 19.0945C28.7474 18.8811 28.9341 18.4011 29.1688 17.6545L32.8328 5.94246C33.0141 5.37713 33.0941 4.96646 33.0728 4.71046C33.0514 4.45446 32.8381 4.22513 32.4328 4.02246C32.1128 3.8518 31.8728 3.6278 31.7128 3.35046C31.5634 3.07313 31.4888 2.74246 31.4888 2.35846C31.4888 1.85713 31.6381 1.46246 31.9368 1.17446C32.2354 0.875797 32.6994 0.726463 33.3288 0.726463H44.3048C44.9341 0.726463 45.3981 0.875797 45.6968 1.17446C45.9954 1.46246 46.1448 1.85713 46.1448 2.35846C46.1448 2.77446 46.0541 3.12113 45.8728 3.39846C45.7021 3.6758 45.4408 3.91046 45.0888 4.10246C44.8541 4.23046 44.7314 4.43846 44.7208 4.72646C44.7101 5.0038 44.7741 5.37713 44.9128 5.84646L48.2888 16.5025C48.5981 17.4731 48.8434 18.1878 49.0248 18.6465C49.2061 19.1051 49.4728 19.4358 49.8248 19.6385C50.2941 19.9158 50.6141 20.1931 50.7848 20.4705C50.9554 20.7371 51.0408 21.0785 51.0408 21.4945C51.0408 21.9958 50.8914 22.3958 50.5928 22.6945C50.2941 22.9825 49.8301 23.1265 49.2008 23.1265H41.3288C40.6888 23.1265 40.2194 22.9825 39.9208 22.6945C39.6328 22.3958 39.4888 21.9958 39.4888 21.4945C39.4888 21.1105 39.5741 20.7905 39.7448 20.5345C39.9261 20.2785 40.1928 20.0598 40.5448 19.8785L41.0568 19.6065C41.3128 19.4678 41.4034 19.2651 41.3288 18.9985C41.2648 18.7211 41.1421 18.2945 40.9608 17.7185L36.7208 3.63846L37.1688 3.70246L33.0568 16.9505C32.8968 17.4625 32.7581 17.8731 32.6408 18.1825C32.5234 18.4811 32.5128 18.7371 32.6088 18.9505C32.7154 19.1638 33.0034 19.3985 33.4728 19.6545L33.9848 19.9265C34.3048 20.0971 34.5608 20.3051 34.7528 20.5505C34.9448 20.7851 35.0408 21.0998 35.0408 21.4945ZM63.104 18.1025C63.104 18.5185 63.184 18.8225 63.344 19.0145C63.504 19.1958 63.7013 19.3505 63.936 19.4785L64.448 19.7505C65.152 20.1238 65.504 20.7051 65.504 21.4945C65.504 21.9958 65.3547 22.3958 65.056 22.6945C64.7573 22.9825 64.2933 23.1265 63.664 23.1265H55.12C54.4907 23.1265 54.0267 22.9825 53.728 22.6945C53.4293 22.3958 53.28 21.9958 53.28 21.4945C53.28 20.7051 53.632 20.1238 54.336 19.7505L54.848 19.4785C55.0933 19.3505 55.2907 19.1958 55.44 19.0145C55.6 18.8225 55.68 18.5185 55.68 18.1025V5.75046C55.68 5.33446 55.6 5.0358 55.44 4.85446C55.2907 4.66246 55.0933 4.50246 54.848 4.37446L54.336 4.10246C53.632 3.72913 53.28 3.1478 53.28 2.35846C53.28 1.85713 53.4293 1.46246 53.728 1.17446C54.0267 0.875797 54.4907 0.726463 55.12 0.726463H63.664C64.2933 0.726463 64.7573 0.875797 65.056 1.17446C65.3547 1.46246 65.504 1.85713 65.504 2.35846C65.504 3.1478 65.152 3.72913 64.448 4.10246L63.936 4.37446C63.7013 4.50246 63.504 4.66246 63.344 4.85446C63.184 5.0358 63.104 5.33446 63.104 5.75046V18.1025ZM79.2293 4.10246L78.7173 4.37446C78.4826 4.50246 78.2853 4.66246 78.1253 4.85446C77.9653 5.0358 77.8853 5.33446 77.8853 5.75046V18.2945C77.8853 18.8385 78.0079 19.2225 78.2533 19.4465C78.4986 19.6598 78.8453 19.7665 79.2933 19.7665H80.6373C81.1813 19.7665 81.6613 19.7025 82.0773 19.5745C82.4933 19.4358 82.8613 19.2065 83.1813 18.8865C83.5119 18.5558 83.8106 18.1131 84.0773 17.5585L84.7812 16.0865C85.0373 15.5531 85.3359 15.2011 85.6773 15.0305C86.0293 14.8598 86.4399 14.8278 86.9093 14.9345C87.3893 15.0411 87.7413 15.2971 87.9653 15.7025C88.1999 16.0971 88.2373 16.5878 88.0773 17.1745L86.9093 21.3345C86.6746 22.1558 86.3866 22.7531 86.0453 23.1265C85.7039 23.5105 85.1813 23.7025 84.4773 23.7025C84.1146 23.7025 83.7679 23.6545 83.4373 23.5585C83.1066 23.4625 82.7439 23.3665 82.3493 23.2705C81.9546 23.1745 81.4693 23.1265 80.8933 23.1265H69.9013C69.2719 23.1265 68.8079 22.9825 68.5093 22.6945C68.2106 22.3958 68.0613 21.9958 68.0613 21.4945C68.0613 20.7051 68.4133 20.1238 69.1173 19.7505L69.6293 19.4785C69.8746 19.3505 70.0719 19.1958 70.2213 19.0145C70.3813 18.8225 70.4613 18.5185 70.4613 18.1025V5.75046C70.4613 5.33446 70.3813 5.0358 70.2213 4.85446C70.0719 4.66246 69.8746 4.50246 69.6293 4.37446L69.1173 4.10246C68.4133 3.72913 68.0613 3.1478 68.0613 2.35846C68.0613 1.85713 68.2106 1.46246 68.5093 1.17446C68.8079 0.875797 69.2719 0.726463 69.9013 0.726463H78.4453C79.0746 0.726463 79.5386 0.875797 79.8373 1.17446C80.1359 1.46246 80.2853 1.85713 80.2853 2.35846C80.2853 3.1478 79.9333 3.72913 79.2293 4.10246ZM102.302 16.7425L96.7663 17.6065L90.5103 5.97446C90.2543 5.50513 90.0569 5.1478 89.9183 4.90246C89.7903 4.65713 89.5556 4.43846 89.2143 4.24646L88.7503 3.99046C88.4623 3.83046 88.2436 3.60646 88.0943 3.31846C87.9556 3.03046 87.8863 2.71046 87.8863 2.35846C87.8863 1.85713 88.0356 1.46246 88.3343 1.17446C88.6329 0.875797 89.0969 0.726463 89.7263 0.726463H98.1903C98.8196 0.726463 99.2836 0.875797 99.5823 1.17446C99.8809 1.46246 100.03 1.85713 100.03 2.35846C100.03 3.1798 99.6783 3.76113 98.9743 4.10246L98.7503 4.21446C98.2169 4.48113 97.9556 4.7638 97.9663 5.06246C97.9876 5.36113 98.1423 5.8038 98.4303 6.39046L102.238 14.1505L99.3103 15.7505L104.286 5.87846C104.5 5.47313 104.596 5.14246 104.574 4.88646C104.553 4.63046 104.35 4.40113 103.966 4.19846L103.582 3.99046C103.348 3.86246 103.145 3.6598 102.974 3.38246C102.804 3.10513 102.718 2.7638 102.718 2.35846C102.718 1.85713 102.868 1.46246 103.166 1.17446C103.465 0.875797 103.929 0.726463 104.558 0.726463H108.638C109.268 0.726463 109.732 0.875797 110.03 1.17446C110.329 1.46246 110.478 1.85713 110.478 2.35846C110.478 2.7318 110.404 3.04113 110.254 3.28646C110.116 3.52113 109.908 3.7398 109.63 3.94246L109.406 4.10246C109.268 4.19846 109.129 4.30513 108.99 4.42246C108.852 4.52913 108.686 4.72113 108.494 4.99846C108.313 5.2758 108.062 5.71846 107.742 6.32646L102.302 16.7425ZM95.5983 14.6145H103.022V18.1025C103.022 18.3798 103.086 18.6411 103.214 18.8865C103.342 19.1211 103.556 19.3185 103.854 19.4785L104.366 19.7505C105.07 20.1238 105.422 20.7051 105.422 21.4945C105.422 21.9958 105.273 22.3958 104.974 22.6945C104.676 22.9825 104.212 23.1265 103.582 23.1265H95.0383C94.4089 23.1265 93.9449 22.9825 93.6463 22.6945C93.3476 22.3958 93.1983 21.9958 93.1983 21.4945C93.1983 20.7051 93.5503 20.1238 94.2543 19.7505L94.7663 19.4785C95.1183 19.2971 95.3423 19.0838 95.4383 18.8385C95.5449 18.5825 95.5983 18.3371 95.5983 18.1025V14.6145Z" fill="#FF5F8F"/>
</svg>
