<svg width="375" height="812" viewBox="0 0 375 812" fill="none" xmlns="http://www.w3.org/2000/svg">
<g clip-path="url(#clip0_896_5866)">
<rect width="375" height="812" fill="#E3E8FF"/>
<path d="M0 667.493V791.999H375V724.344L242.158 685.417C163.611 662.4 81.079 656.291 0 667.493Z" fill="#FFD7E5"/>
<path d="M375 677.493V792H0V724.344C67.3791 694.434 176.432 675 299.5 675C325.372 675 350.624 675.859 375 677.493Z" fill="#FBEAF0"/>
<path d="M188.633 628.291C197.125 658.278 229.419 657.328 244.504 653.104H256.796C291.213 660.706 306.149 638.322 309.315 626.18C338.815 608.863 330.174 580.601 322.165 568.635C322.612 527.245 294.788 519.361 280.82 520.593C254.002 497.786 226.066 511.09 215.451 520.593C174.776 522.705 172.057 553.501 175.782 568.635C148.517 600.733 172.989 621.78 188.633 628.291Z" fill="url(#paint0_linear_896_5866)"/>
<path d="M243.48 648.397V698.862C243.48 699.231 243.683 699.569 244.008 699.743L245.623 700.609C248.279 702.033 251.472 702.033 254.128 700.609L255.723 699.754C256.059 699.574 256.263 699.22 256.25 698.84L254.602 648.397L294.385 617.442C294.9 617.042 295.197 616.446 295.197 615.816V614.31C295.197 613.656 294.637 613.126 293.946 613.126C293.676 613.126 293.412 613.209 293.196 613.363L273.51 627.339L275.584 611.142C275.664 610.517 275.149 609.967 274.484 609.967C273.927 609.967 273.457 610.359 273.386 610.882L270.5 630L249.041 642.606L230.145 599.163C229.868 598.525 229.219 598.131 228.525 598.179C227.45 598.254 226.737 599.324 227.082 600.345L235.139 624.181L215.343 614.342C214.217 613.783 212.895 614.602 212.895 615.86C212.895 616.45 213.203 616.998 213.707 617.306L237.919 632.077L243.48 648.397Z" fill="#755854"/>
<path d="M188.286 660.627L188.815 659.904C190.95 656.987 195.249 656.375 198.136 658.577C198.142 658.582 198.146 658.589 198.147 658.596C198.465 662.101 195.538 665.155 191.8 665.218L190.873 665.234C190.415 665.241 190.038 664.904 190.021 664.473L189.958 662.763C189.957 662.748 189.949 662.733 189.936 662.724L188.476 661.722C188.108 661.47 188.024 660.984 188.286 660.627Z" fill="#F6ADCB"/>
<path d="M284.943 80.1841L289.085 79.6095C305.791 77.2917 321.801 89.7066 323.802 106.53C323.806 106.566 323.795 106.602 323.772 106.629C313.062 119.077 293.324 119.187 280.974 106.868L277.912 103.814C276.398 102.304 276.301 99.9464 277.694 98.4917L283.215 92.7248C283.266 92.6723 283.287 92.5984 283.275 92.5242L281.893 84.3812C281.544 82.3272 282.895 80.4683 284.943 80.1841Z" fill="url(#paint1_linear_896_5866)"/>
<path d="M160.776 130.995L162.836 129.516C171.145 123.55 183.245 125.685 189.073 134.147C189.086 134.165 189.09 134.187 189.086 134.208C186.857 143.915 176.298 149.554 166.189 146.435L163.683 145.661C162.444 145.279 161.725 144.041 162.061 142.867L163.394 138.212C163.406 138.17 163.397 138.124 163.369 138.088L160.326 134.109C159.558 133.106 159.757 131.726 160.776 130.995Z" fill="url(#paint2_linear_896_5866)"/>
<path d="M63.9708 71.3447L64.9916 70.946C69.109 69.3379 73.8151 71.7408 75.1964 76.1565C75.1994 76.166 75.1986 76.1762 75.1941 76.1848C73.1238 80.1698 68.1228 81.3616 64.35 78.769L63.4146 78.1263C62.9521 77.8084 62.8051 77.1789 63.0828 76.7049L64.1838 74.8258C64.1939 74.8087 64.1956 74.7875 64.1886 74.7683L63.415 72.6553C63.2199 72.1223 63.4661 71.5419 63.9708 71.3447Z" fill="url(#paint3_linear_896_5866)"/>
<path d="M190.202 226.469L190.827 224.799C193.351 218.061 201.259 214.576 207.977 217.242C207.991 217.248 208.002 217.259 208.008 217.273C210.502 223.819 206.535 231.246 199.406 233.377L197.638 233.906C196.764 234.167 195.86 233.724 195.598 232.907L194.555 229.664C194.546 229.635 194.523 229.611 194.492 229.601L191.157 228.466C190.316 228.18 189.893 227.295 190.202 226.469Z" fill="url(#paint4_linear_896_5866)"/>
<path d="M49.5772 203.877L50.4702 202.663C54.0721 197.766 61.3037 196.753 66.1511 200.467C66.1616 200.475 66.1681 200.487 66.1692 200.499C66.6908 206.395 61.7566 211.52 55.4699 211.612L53.9113 211.634C53.1406 211.646 52.5076 211.078 52.4821 210.352L52.3811 207.477C52.3802 207.45 52.3666 207.426 52.3443 207.411L49.8939 205.72C49.2759 205.294 49.1356 204.478 49.5772 203.877Z" fill="url(#paint5_linear_896_5866)"/>
<path d="M270.031 660.961L270.9 661.269C274.403 662.509 276.096 666.314 274.57 669.519C274.567 669.526 274.56 669.531 274.553 669.534C271.06 670.698 267.22 668.763 266.226 665.338L265.98 664.488C265.858 664.069 266.107 663.638 266.543 663.516L268.27 663.032C268.285 663.027 268.298 663.016 268.304 663.002L268.962 661.409C269.128 661.008 269.602 660.809 270.031 660.961Z" fill="#F6ADCB"/>
<path d="M209.151 672.307L210.006 671.967C213.454 670.593 217.428 672.268 218.622 675.598C218.625 675.605 218.624 675.613 218.62 675.619C216.911 678.74 212.717 679.825 209.527 677.973L208.736 677.514C208.344 677.287 208.216 676.811 208.446 676.438L209.357 674.963C209.365 674.949 209.366 674.933 209.36 674.918L208.694 673.329C208.526 672.928 208.729 672.475 209.151 672.307Z" fill="#F6ADCB"/>
<path d="M122.023 697.73L122.875 698.077C126.313 699.476 128.017 703.437 126.57 706.666C126.567 706.673 126.561 706.678 126.554 706.68C123.159 707.745 119.383 705.621 118.367 702.075L118.115 701.195C117.99 700.761 118.228 700.328 118.651 700.219L120.331 699.787C120.346 699.783 120.358 699.772 120.364 699.757L120.985 698.15C121.142 697.744 121.602 697.558 122.023 697.73Z" fill="#F6ADCB"/>
<path d="M306.66 674.372L306.131 675.083C303.995 677.951 299.711 678.446 296.839 676.156C296.833 676.151 296.829 676.144 296.829 676.137C296.521 672.611 299.445 669.627 303.17 669.668L304.094 669.678C304.55 669.683 304.925 670.031 304.94 670.464L304.999 672.182C305 672.197 305.008 672.212 305.021 672.222L306.473 673.268C306.839 673.531 306.922 674.021 306.66 674.372Z" fill="#F6ADCB"/>
<path d="M263.328 700.589L262.646 701.185C259.895 703.59 255.559 703.299 253.245 700.553C253.24 700.547 253.237 700.539 253.239 700.532C253.731 697.045 257.287 694.67 260.949 695.381L261.857 695.557C262.307 695.645 262.598 696.051 262.515 696.475L262.186 698.158C262.183 698.173 262.187 698.189 262.198 698.2L263.393 699.48C263.694 699.803 263.666 700.294 263.328 700.589Z" fill="#F6ADCB"/>
<path d="M237.296 695.096L237.742 695.868C239.54 698.984 238.203 702.914 234.843 704.391C234.836 704.394 234.828 704.395 234.82 704.392C231.376 703.102 229.802 699.252 231.406 696.043L231.804 695.247C232.001 694.854 232.486 694.683 232.9 694.861L234.539 695.568C234.554 695.574 234.571 695.574 234.586 695.566L236.179 694.771C236.581 694.57 237.076 694.714 237.296 695.096Z" fill="#F6ADCB"/>
<path d="M219.26 699.712L219.076 700.576C218.333 704.058 214.642 706.24 211.073 705.307C211.065 705.305 211.059 705.3 211.055 705.293C209.3 702.195 210.713 698.289 214.118 696.822L214.963 696.459C215.38 696.279 215.867 696.446 216.062 696.836L216.834 698.381C216.841 698.395 216.854 698.406 216.87 698.409L218.628 698.779C219.071 698.872 219.351 699.286 219.26 699.712Z" fill="#F6ADCB"/>
<path d="M288.991 695.495L289.337 694.678C290.734 691.383 294.781 689.876 298.112 691.41C298.12 691.413 298.125 691.419 298.127 691.427C299.26 694.776 297.122 698.373 293.493 699.226L292.594 699.438C292.149 699.543 291.702 699.294 291.585 698.877L291.122 697.224C291.118 697.209 291.106 697.197 291.091 697.19L289.434 696.523C289.016 696.355 288.819 695.899 288.991 695.495Z" fill="#F6ADCB"/>
<path d="M218.325 705.956L218.671 705.139C220.068 701.844 224.115 700.337 227.446 701.871C227.454 701.875 227.459 701.88 227.461 701.888C228.594 705.237 226.456 708.834 222.827 709.687L221.928 709.899C221.483 710.004 221.036 709.755 220.919 709.338L220.456 707.685C220.452 707.67 220.44 707.658 220.425 707.652L218.768 706.984C218.35 706.816 218.153 706.361 218.325 705.956Z" fill="#F6ADCB"/>
<path d="M267.606 699.845L268.279 699.267C270.994 696.934 275.289 697.379 277.593 700.233C277.598 700.239 277.6 700.247 277.599 700.254C277.127 703.758 273.616 706.033 269.985 705.187L269.085 704.977C268.64 704.874 268.35 704.453 268.43 704.027L268.748 702.34C268.751 702.325 268.747 702.309 268.736 702.297L267.547 700.963C267.247 700.626 267.273 700.131 267.606 699.845Z" fill="#F6ADCB"/>
<path d="M329.535 648.917L330.317 649.39C333.471 651.298 334.291 655.354 332.095 658.186C332.09 658.192 332.083 658.196 332.075 658.197C328.403 658.643 325.072 655.989 324.853 652.442L324.798 651.563C324.771 651.128 325.11 650.756 325.562 650.723L327.357 650.592C327.374 650.591 327.389 650.583 327.398 650.57L328.391 649.143C328.642 648.783 329.148 648.683 329.535 648.917Z" fill="#F6ADCB"/>
<line x1="247.182" y1="654.911" x2="247.182" y2="672.104" stroke="#CAA8A3" stroke-opacity="0.74" stroke-linecap="round"/>
<line x1="249.781" y1="671.372" x2="249.781" y2="678.169" stroke="#CAA8A3" stroke-opacity="0.74" stroke-linecap="round"/>
<path d="M196.162 721.738L195.302 722.067C191.833 723.392 187.886 721.662 186.743 718.316C186.741 718.308 186.742 718.3 186.745 718.294C188.503 715.198 192.713 714.171 195.875 716.068L196.658 716.538C197.046 716.77 197.167 717.249 196.931 717.618L195.998 719.08C195.989 719.094 195.988 719.11 195.993 719.125L196.635 720.723C196.797 721.126 196.587 721.576 196.162 721.738Z" fill="#F6ADCB"/>
<rect x="-2" y="792" width="375" height="20" fill="#FBEAF0"/>
</g>
<defs>
<linearGradient id="paint0_linear_896_5866" x1="246.682" y1="508" x2="269.5" y2="719" gradientUnits="userSpaceOnUse">
<stop stop-color="#F6ADCB"/>
<stop offset="0.8" stop-color="#FD6D9F"/>
<stop offset="1" stop-color="#FF5D94"/>
</linearGradient>
<linearGradient id="paint1_linear_896_5866" x1="279.425" y1="91.3097" x2="360.516" y2="132.267" gradientUnits="userSpaceOnUse">
<stop stop-color="#F6ADCB"/>
<stop offset="1" stop-color="#FF0069"/>
</linearGradient>
<linearGradient id="paint2_linear_896_5866" x1="160.96" y1="138.524" x2="242.711" y2="141.034" gradientUnits="userSpaceOnUse">
<stop stop-color="#F6ADCB"/>
<stop offset="1" stop-color="#FF0069"/>
</linearGradient>
<linearGradient id="paint3_linear_896_5866" x1="63.1489" y1="74.6676" x2="100.885" y2="74.887" gradientUnits="userSpaceOnUse">
<stop stop-color="#F6ADCB"/>
<stop offset="1" stop-color="#FF3B8B"/>
</linearGradient>
<linearGradient id="paint4_linear_896_5866" x1="193.255" y1="230.799" x2="211.257" y2="213.238" gradientUnits="userSpaceOnUse">
<stop stop-color="#F6ADCB"/>
<stop offset="1" stop-color="#FF6FAA"/>
</linearGradient>
<linearGradient id="paint5_linear_896_5866" x1="51.0627" y1="208.1" x2="78.9375" y2="194.821" gradientUnits="userSpaceOnUse">
<stop stop-color="#F6ADCB"/>
<stop offset="1" stop-color="#F07FAE"/>
</linearGradient>
<clipPath id="clip0_896_5866">
<rect width="375" height="812" fill="white"/>
</clipPath>
</defs>
</svg>
