<svg width="375" height="812" viewBox="0 0 375 812" fill="none" xmlns="http://www.w3.org/2000/svg">
<g clip-path="url(#clip0_4303_7381)">
<rect width="375" height="812" fill="url(#paint0_linear_4303_7381)"/>
<path d="M0 712.14L66.1227 689.87C113.119 674.043 162.187 665.21 211.752 663.654L376 658.5V812H0V712.14Z" fill="url(#paint1_linear_4303_7381)"/>
<path fill-rule="evenodd" clip-rule="evenodd" d="M105.053 151.036C102.12 154.078 97.8076 156 93 156C84.1634 156 77 149.508 77 141.5C77 136.707 79.5658 132.458 83.5205 129.818C85.3185 123.593 91.5674 119 99 119C103.2 119 107.022 120.467 109.877 122.865C111.659 118.839 115.968 116 121 116C127.303 116 132.471 120.454 132.962 126.117C133.629 126.04 134.31 126 135 126C143.837 126 151 132.492 151 140.5C151 148.508 143.837 155 135 155C133.254 155 131.573 154.747 130 154.278C128.427 154.747 126.746 155 125 155C120.913 155 117.183 153.611 114.355 151.326C113.662 151.294 112.939 151.25 112.191 151.205C110.564 151.106 108.817 151 107 151C106.341 151 105.691 151.014 105.053 151.036Z" fill="white"/>
<g filter="url(#filter0_f_4303_7381)">
<path d="M151 140.5C151 140.5 143.837 129.5 135 129.5C126.163 129.5 119 140.5 119 140.5C119 132.492 126.163 126 135 126C143.837 126 151 132.492 151 140.5Z" fill="#C4C4C4" fill-opacity="0.1"/>
</g>
<g filter="url(#filter1_f_4303_7381)">
<path d="M133 127C133 127 127.627 118.5 121 118.5C114.373 118.5 109 127 109 127C109 120.925 114.373 116 121 116C127.627 116 133 120.925 133 127Z" fill="black" fill-opacity="0.1"/>
</g>
<g filter="url(#filter2_f_4303_7381)">
<path d="M80 140C80 148.008 101.837 156 93 156C84.1634 156 77 149.508 77 141.5C77 133.492 84.1634 127 93 127C93 127 80 131.992 80 140Z" fill="black" fill-opacity="0.1"/>
</g>
<g filter="url(#filter3_f_4303_7381)">
<path d="M115 133.5C115 133.5 107.837 122.5 99 122.5C90.1634 122.5 83 133.5 83 133.5C83 125.492 90.1634 119 99 119C107.837 119 115 125.492 115 133.5Z" fill="black" fill-opacity="0.1"/>
</g>
<path d="M82.5 140L132.286 151.15L206 155.7L73.3947 156.968C71.7164 156.984 70.5088 155.361 71.0062 153.758L72.0157 150.505C73.5712 145.493 77.4909 141.565 82.5 140V140Z" fill="url(#paint2_linear_4303_7381)"/>
<g filter="url(#filter4_f_4303_7381)">
<path d="M82.5 140L76.5 147L72.7858 151.178C72.7093 151.265 72.5683 151.192 72.5933 151.08L72.6818 150.682C73.8065 145.621 77.5511 141.547 82.5 140V140Z" fill="url(#paint3_linear_4303_7381)" fill-opacity="0.1"/>
</g>
<path d="M96 143L145.5 148.5L176.5 150.5L138.5 152.5L96 153V143Z" fill="url(#paint4_linear_4303_7381)"/>
<g filter="url(#filter5_f_4303_7381)">
<path d="M87 151.5L132.286 151.15L206 155.7L73.6924 156.974C72.4087 156.986 71.5232 155.692 72 154.5V154.5L87 151.5Z" fill="url(#paint5_linear_4303_7381)" fill-opacity="0.1"/>
</g>
<path d="M44.958 267.263L-3.12374 266.32L-17.7368 267.263L20.2101 268.441L44.958 267.263Z" fill="url(#paint6_linear_4303_7381)"/>
<path d="M26.5 263L0.748146 267.569L-34 269.714L52.5 270.327L32.0189 267.373C29.5269 267.014 27.4197 265.344 26.5 263V263Z" fill="url(#paint7_linear_4303_7381)"/>
<path fill-rule="evenodd" clip-rule="evenodd" d="M13.5852 267.516C14.9678 268.95 17.0006 269.856 19.2668 269.856C23.4323 269.856 26.8091 266.795 26.8091 263.02C26.8091 260.761 25.5996 258.758 23.7354 257.514C22.8878 254.579 19.9422 252.414 16.4385 252.414C14.4587 252.414 12.657 253.105 11.3114 254.236C10.4711 252.338 8.44001 251 6.06794 251C3.09677 251 0.660632 253.1 0.429242 255.769C0.114628 255.733 -0.206037 255.714 -0.531518 255.714C-4.69698 255.714 -8.07375 258.774 -8.07375 262.549C-8.07375 266.324 -4.69698 269.384 -0.531519 269.384C0.291584 269.384 1.08388 269.265 1.82543 269.044C2.56697 269.265 3.35928 269.384 4.18238 269.384C6.10909 269.384 7.86705 268.729 9.20017 267.652C9.52687 267.637 9.86753 267.617 10.22 267.595L10.2202 267.595L10.2202 267.595L10.2202 267.595C10.9876 267.549 11.8108 267.499 12.6674 267.499C12.9781 267.499 13.2844 267.505 13.5852 267.516Z" fill="white"/>
<g filter="url(#filter6_f_4303_7381)">
<path d="M-8.07373 262.549C-8.07373 262.549 -4.69695 257.364 -0.531492 257.364C3.63397 257.364 7.01074 262.549 7.01074 262.549C7.01074 258.774 3.63397 255.714 -0.531492 255.714C-4.69695 255.714 -8.07373 258.774 -8.07373 262.549Z" fill="#C4C4C4" fill-opacity="0.1"/>
</g>
<g filter="url(#filter7_f_4303_7381)">
<path d="M0.411258 256.185C0.411258 256.185 2.94384 252.178 6.06793 252.178C9.19203 252.178 11.7246 256.185 11.7246 256.185C11.7246 253.322 9.19203 251 6.06793 251C2.94384 251 0.411258 253.322 0.411258 256.185Z" fill="black" fill-opacity="0.1"/>
</g>
<g filter="url(#filter8_f_4303_7381)">
<path d="M25.3949 262.313C25.3949 266.088 15.1014 269.856 19.2668 269.856C23.4323 269.856 26.8091 266.795 26.8091 263.02C26.8091 259.246 23.4323 256.185 19.2668 256.185C19.2668 256.185 25.3949 258.538 25.3949 262.313Z" fill="black" fill-opacity="0.1"/>
</g>
<g filter="url(#filter9_f_4303_7381)">
<path d="M8.89649 259.249C8.89649 259.249 12.2733 254.064 16.4387 254.064C20.6042 254.064 23.981 259.249 23.981 259.249C23.981 255.474 20.6042 252.414 16.4387 252.414C12.2733 252.414 8.89649 255.474 8.89649 259.249Z" fill="black" fill-opacity="0.1"/>
</g>
<g filter="url(#filter10_f_4303_7381)">
<path d="M23.9809 263.256L26.8093 266.556L28.5601 268.526C28.5962 268.566 28.6626 268.532 28.6508 268.479L28.6091 268.291C28.0789 265.906 26.3138 263.985 23.9809 263.256V263.256Z" fill="url(#paint8_linear_4303_7381)" fill-opacity="0.1"/>
</g>
<g filter="url(#filter11_f_4303_7381)">
<path d="M28.7436 267.668L4.8663 267.499L-34.0002 269.698L35.8611 270.315C36.4806 270.321 36.9001 269.686 36.6524 269.118V269.118L28.7436 267.668Z" fill="url(#paint9_linear_4303_7381)" fill-opacity="0.1"/>
</g>
<path fill-rule="evenodd" clip-rule="evenodd" d="M274.053 236.036C271.12 239.078 266.808 241 262 241C253.163 241 246 234.508 246 226.5C246 219.727 251.124 214.039 258.05 212.445C259.804 211.526 261.835 211 264 211C265.398 211 266.74 211.219 267.988 211.622C269.834 207.725 274.07 205 279 205C285.627 205 291 209.925 291 216C291 216.337 290.983 216.671 290.951 217L291 217C295.246 217 299.017 218.801 301.389 221.586C305.827 222.973 309 226.664 309 231C309 236.523 303.851 241 297.5 241C295.645 241 293.892 240.618 292.341 239.94C291.9 239.98 291.453 240 291 240C287.176 240 283.738 238.54 281.36 236.215L281.191 236.205C279.564 236.106 277.817 236 276 236C275.341 236 274.691 236.014 274.053 236.036Z" fill="white"/>
<g filter="url(#filter12_f_4303_7381)">
<path d="M307 233.5C307 233.5 299.837 222.5 291 222.5C282.163 222.5 275 233.5 275 233.5C275 225.492 282.163 219 291 219C299.837 219 307 225.492 307 233.5Z" fill="#C4C4C4" fill-opacity="0.1"/>
</g>
<g filter="url(#filter13_f_4303_7381)">
<path d="M291 217C291 217 285.627 208.5 279 208.5C272.373 208.5 267 217 267 217C267 210.925 272.373 206 279 206C285.627 206 291 210.925 291 217Z" fill="black" fill-opacity="0.1"/>
</g>
<g filter="url(#filter14_f_4303_7381)">
<path d="M249 225C249 233.008 270.837 241 262 241C253.163 241 246 234.508 246 226.5C246 218.492 253.163 212 262 212C262 212 249 216.992 249 225Z" fill="black" fill-opacity="0.1"/>
</g>
<g filter="url(#filter15_f_4303_7381)">
<path d="M269 218C269 218 265.194 212.69 260.5 212.69C255.806 212.69 252 218 252 218C252 214.134 255.806 211 260.5 211C265.194 211 269 214.134 269 218Z" fill="black" fill-opacity="0.1"/>
</g>
<path d="M251.5 225L301.286 236.15L375 240.7L213 242.5L238.761 235.838C240.742 235.325 242.255 233.725 242.656 231.719V231.719C243.176 229.118 245.075 227.008 247.607 226.217L251.5 225Z" fill="url(#paint10_linear_4303_7381)"/>
<g filter="url(#filter16_f_4303_7381)">
<path d="M251.5 225L245.5 232L241.786 236.178C241.709 236.265 241.568 236.192 241.593 236.08L241.682 235.682C242.807 230.621 246.551 226.547 251.5 225V225Z" fill="url(#paint11_linear_4303_7381)" fill-opacity="0.1"/>
</g>
<path d="M265 228L301.894 233.5L325 235.5L265 238V228Z" fill="url(#paint12_linear_4303_7381)"/>
<g filter="url(#filter17_f_4303_7381)">
<path d="M256 236.5L301.286 236.15L375 240.7L206.5 242L241 239.5L256 236.5Z" fill="url(#paint13_linear_4303_7381)" fill-opacity="0.1"/>
</g>
<g filter="url(#filter18_if_4303_7381)">
<circle cx="287" cy="86" r="38" fill="url(#paint14_radial_4303_7381)"/>
</g>
<g filter="url(#filter19_ii_4303_7381)">
<circle cx="287" cy="86" r="38" fill="#FFCF54"/>
</g>
<path d="M179.5 193L187 202L177 207L188.5 204.5L185.5 215.5L193.5 202L199.5 199.5L193 200L179.5 193Z" fill="white"/>
<path d="M110 215L120 213.5L113.726 217.844C109.475 220.786 104.116 221.635 99.1645 220.149L93 218.3L103 216L96 207L110 215Z" fill="white"/>
<path d="M98.5 247H107.5L98.6533 252.385C96.8989 253.453 94.9656 254.194 92.9471 254.572L80 257L89.5 250.5L81.5 244L98.5 247Z" fill="white"/>
<g filter="url(#filter20_f_4303_7381)">
<path d="M165.842 176.212L18.6508 194.721C10.2666 195.775 3.58622 202.24 2.25764 210.585L-27.1662 395.404C-27.3881 396.797 -27.454 398.211 -27.3628 399.618L-26.813 408.11C-25.6204 426.529 -1.51567 432.602 8.2622 416.947L67.798 321.627C69.8812 318.291 72.9481 315.684 76.5755 314.166L241.511 245.114C256.547 238.819 257.196 217.756 242.576 210.547L176.615 178.022C173.278 176.377 169.533 175.747 165.842 176.212Z" fill="white" fill-opacity="0.03"/>
</g>
<g filter="url(#filter21_f_4303_7381)">
<path d="M380.921 431.938L324.946 294.553C321.758 286.727 313.785 281.948 305.38 282.824L119.243 302.238C117.84 302.384 116.457 302.686 115.121 303.139L107.062 305.867C89.5787 311.787 89.951 336.642 107.603 342.035L215.085 374.871C218.846 376.02 222.158 378.308 224.563 381.419L333.951 522.862C343.923 535.756 364.436 530.932 367.616 514.944L381.96 442.813C382.686 439.164 382.324 435.383 380.921 431.938Z" fill="#759CFF" fill-opacity="0.03"/>
</g>
<g filter="url(#filter22_f_4303_7381)">
<ellipse cx="152" cy="733.739" rx="25.0435" ry="6.26087" fill="black" fill-opacity="0.1"/>
</g>
<path d="M140.87 689.792C140.87 692.799 131.434 698.261 127.366 698.261C123.642 698.261 120.563 698.246 120.069 695.937C119.981 695.524 120.267 695.145 120.655 694.978C126.93 692.267 129.57 684.348 133.504 684.348C137.572 684.348 140.87 686.785 140.87 689.792Z" fill="#F5EACC"/>
<path d="M167.304 690.609C167.304 693.615 172.566 698.261 176.634 698.261C180.358 698.261 183.437 698.246 183.931 695.937C184.019 695.524 183.733 695.144 183.344 694.981C177.088 692.356 174.716 685.739 170.783 685.739C166.715 685.739 167.304 690.609 167.304 690.609Z" fill="#F5EACC"/>
<path fill-rule="evenodd" clip-rule="evenodd" d="M159.631 674.769C160.085 674.664 160.558 674.609 161.043 674.609C164.386 674.609 167.117 677.229 167.295 680.527C169.731 681.384 171.478 683.706 171.478 686.435C171.478 686.993 171.405 687.535 171.268 688.05C173.063 689.151 174.261 691.131 174.261 693.391C174.261 694.975 173.673 696.42 172.704 697.523C172.812 697.983 172.869 698.463 172.869 698.957C172.869 702.414 170.066 705.218 166.608 705.218C166.373 705.218 166.141 705.205 165.913 705.179V709.391H138.086V705.179C137.858 705.205 137.626 705.218 137.391 705.218C133.933 705.218 131.13 702.414 131.13 698.957C131.13 698.463 131.187 697.983 131.295 697.522C130.326 696.42 129.739 694.974 129.739 693.391C129.739 691.131 130.936 689.151 132.732 688.05C132.595 687.535 132.521 686.993 132.521 686.435C132.521 683.201 134.974 680.539 138.121 680.209C138.451 677.062 141.113 674.609 144.347 674.609C144.969 674.609 145.569 674.699 146.136 674.868C146.692 674.003 147.722 673.218 148.521 673.218C149.166 673.218 149.96 673.727 150.534 674.378C151.779 673.641 153.231 673.218 154.782 673.218C156.59 673.218 158.264 673.792 159.631 674.769ZM154.826 692.653L154.821 692.696H154.099C154.345 692.695 154.587 692.681 154.826 692.653ZM152 692.34C152.649 692.569 153.347 692.694 154.075 692.696H149.179L149.174 692.653C149.416 692.681 149.663 692.696 149.913 692.696C150.644 692.696 151.347 692.57 152 692.34Z" fill="#F5EACC"/>
<path d="M131.131 698.956C131.131 702.387 133.889 705.173 137.309 705.217C137.363 705.217 137.417 705.205 137.465 705.181C137.793 705.016 137.678 704.456 137.317 704.389C134.566 703.878 132.522 701.91 132.522 698.956C132.522 698.481 132.575 698.018 132.675 697.573C132.682 697.541 132.674 697.508 132.653 697.484C131.704 696.386 131.131 694.956 131.131 693.391C131.131 691.158 132.3 689.198 134.06 688.089C134.098 688.066 134.116 688.021 134.105 687.978C133.98 687.484 133.913 686.967 133.913 686.435C133.913 683.437 136.005 681.454 138.829 680.526C138.987 680.474 138.949 680.174 138.783 680.174C135.304 680.174 132.522 682.977 132.522 686.435C132.522 686.967 132.588 687.484 132.713 687.978C132.724 688.021 132.706 688.066 132.669 688.089C130.909 689.198 129.739 691.158 129.739 693.391C129.739 694.956 130.313 696.386 131.262 697.484C131.283 697.508 131.291 697.541 131.284 697.573C131.184 698.018 131.131 698.481 131.131 698.956Z" fill="#F5E5BB"/>
<path d="M173.565 698.957C173.565 702.387 170.807 705.173 167.387 705.217C167.333 705.218 167.279 705.205 167.231 705.181C166.903 705.017 167.018 704.457 167.379 704.389C170.13 703.878 172.174 701.91 172.174 698.957C172.174 698.481 172.121 698.018 172.02 697.573C172.013 697.541 172.022 697.508 172.043 697.484C172.991 696.386 173.565 694.956 173.565 693.391C173.565 691.158 172.396 689.198 170.636 688.089C170.598 688.066 170.58 688.021 170.591 687.978C170.716 687.484 170.783 686.967 170.783 686.435C170.783 683.437 168.691 681.454 165.867 680.526C165.709 680.474 165.747 680.174 165.913 680.174C169.391 680.174 172.174 682.977 172.174 686.435C172.174 686.967 172.107 687.484 171.982 687.978C171.972 688.021 171.99 688.066 172.027 688.089C173.787 689.198 174.957 691.158 174.957 693.391C174.957 694.956 174.383 696.386 173.434 697.484C173.413 697.508 173.405 697.541 173.412 697.573C173.512 698.018 173.565 698.481 173.565 698.957Z" fill="#F5E5BB"/>
<path fill-rule="evenodd" clip-rule="evenodd" d="M153.692 684.958C154.225 683.778 155.413 682.957 156.792 682.957C158.062 682.957 159.17 683.653 159.754 684.685C159.898 684.667 160.044 684.657 160.193 684.657C161.463 684.657 162.571 685.354 163.155 686.386C163.299 686.367 163.445 686.358 163.594 686.358C165.472 686.358 166.995 687.88 166.995 689.759C166.995 691.637 165.472 693.16 163.594 693.16C163.594 695.038 162.071 696.56 160.193 696.56C159.493 696.56 158.843 696.349 158.302 695.987C157.837 697.311 156.575 698.261 155.092 698.261C153.821 698.261 152.714 697.564 152.13 696.532C151.986 696.551 151.84 696.56 151.691 696.56C151.542 696.56 151.395 696.551 151.252 696.532C150.668 697.564 149.56 698.261 148.289 698.261C146.919 698.261 145.737 697.45 145.199 696.282C144.851 696.46 144.456 696.561 144.038 696.561C142.927 696.561 141.981 695.849 141.632 694.857C141.584 694.859 141.536 694.86 141.488 694.86C139.61 694.86 138.087 693.337 138.087 691.459C138.087 690.189 138.784 689.081 139.816 688.497C139.797 688.353 139.788 688.207 139.788 688.058C139.788 686.18 141.31 684.657 143.188 684.657C143.237 684.657 143.284 684.658 143.332 684.66C143.681 683.668 144.627 682.957 145.739 682.957C146.392 682.957 146.988 683.202 147.439 683.606C147.89 683.202 148.486 682.957 149.14 682.957C150.251 682.957 151.197 683.668 151.546 684.66C151.594 684.658 151.642 684.657 151.691 684.657C152.31 684.657 152.891 684.823 153.391 685.112C153.489 685.056 153.589 685.004 153.692 684.958Z" fill="#F5E5BB"/>
<ellipse cx="145.739" cy="689.913" rx="2.08696" ry="2.78261" fill="#474747"/>
<ellipse cx="158.261" cy="689.913" rx="2.08696" ry="2.78261" fill="#474747"/>
<g filter="url(#filter23_f_4303_7381)">
<circle cx="140.174" cy="694.783" r="3.47826" fill="#FFB2B2" fill-opacity="0.3"/>
</g>
<g filter="url(#filter24_f_4303_7381)">
<circle cx="163.826" cy="694.783" r="3.47826" fill="#FFB2B2" fill-opacity="0.3"/>
</g>
<path fill-rule="evenodd" clip-rule="evenodd" d="M151.879 694.719C151.875 694.719 151.871 694.719 151.867 694.719C151.867 695.138 151.274 695.478 150.542 695.478C149.811 695.478 149.217 695.138 149.217 694.719C149.217 694.341 149.7 694.028 150.331 693.97C150.296 693.886 150.277 693.798 150.277 693.707C150.277 693.149 150.989 692.696 151.867 692.696C152.746 692.696 153.457 693.149 153.457 693.707C153.457 693.892 153.38 694.065 153.245 694.213H154.12C154.486 694.213 154.783 694.496 154.783 694.846C154.783 695.195 154.486 695.478 154.12 695.478H152.809C152.339 695.478 151.949 695.149 151.879 694.719Z" fill="#474747"/>
<path fill-rule="evenodd" clip-rule="evenodd" d="M136.695 706.609C136.695 706.632 136.695 706.655 136.696 706.678C135.835 707.557 135.304 708.76 135.304 710.087C135.304 710.798 135.457 711.474 135.731 712.083C135.46 712.512 135.304 713.02 135.304 713.565C135.304 713.996 135.402 714.404 135.577 714.769C134.557 715.661 133.913 716.973 133.913 718.435C133.913 719.081 134.039 719.699 134.268 720.264C133.2 721.157 132.521 722.499 132.521 724C132.521 725.992 133.717 727.704 135.43 728.459C135.348 728.814 135.304 729.185 135.304 729.565C135.304 732.255 137.484 734.435 140.174 734.435C141.208 734.435 142.167 734.112 142.956 733.562C143.745 734.112 144.704 734.435 145.739 734.435C147.262 734.435 148.622 733.735 149.515 732.639C150.2 734.499 151.988 735.826 154.086 735.826C156.078 735.826 157.791 734.63 158.545 732.917C158.901 733 159.271 733.043 159.652 733.043C161.014 733.043 162.246 732.484 163.13 731.582C164.014 732.484 165.246 733.043 166.608 733.043C169.298 733.043 171.478 730.863 171.478 728.174C171.478 727.527 171.352 726.91 171.123 726.345C172.19 725.452 172.869 724.109 172.869 722.609C172.869 720.617 171.673 718.904 169.96 718.15C170.043 717.794 170.087 717.424 170.087 717.043C170.087 715.716 169.556 714.513 168.695 713.635C168.695 713.611 168.695 713.588 168.695 713.565C168.695 712.706 168.435 711.907 167.99 711.243C168.429 710.751 168.695 710.102 168.695 709.391C168.695 708.884 168.56 708.409 168.323 708C168.56 707.591 168.695 707.115 168.695 706.609C168.695 705.072 167.45 703.826 165.913 703.826C164.376 703.826 163.13 705.072 163.13 706.609C163.13 707.115 163.266 707.591 163.503 708C163.483 708.034 163.463 708.069 163.445 708.105C163.119 708.036 162.781 708 162.434 708C161.83 708 161.251 708.11 160.717 708.311C158.759 706.385 156.196 705.217 153.391 705.217C150.586 705.217 148.023 706.385 146.065 708.311C145.599 708.136 145.099 708.029 144.577 708.005C144.067 706.928 143.173 706.068 142.073 705.601C141.669 704.562 140.659 703.826 139.478 703.826C137.941 703.826 136.695 705.072 136.695 706.609Z" fill="#F5EACC"/>
<path d="M142.261 669.739C142.261 668.586 143.195 667.652 144.348 667.652V667.652C145.5 667.652 146.435 668.586 146.435 669.739V680.174H142.261V669.739Z" fill="url(#paint15_linear_4303_7381)"/>
<path d="M156.174 669.739C156.174 668.587 157.108 667.652 158.261 667.652V667.652C159.413 667.652 160.348 668.587 160.348 669.739V680.174H156.174V669.739Z" fill="url(#paint16_linear_4303_7381)"/>
<circle cx="3.47826" cy="3.47826" r="3.47826" transform="matrix(-1 0 0 1 163.13 676)" fill="#F5EACC"/>
<circle cx="142.261" cy="680.174" r="2.78261" fill="#F5EACC"/>
<circle cx="3.47826" cy="3.47826" r="3.47826" transform="matrix(-1 0 0 1 157.565 676)" fill="#F5EACC"/>
<circle cx="145.739" cy="679.478" r="2.08696" fill="#F5EACC"/>
<path d="M280.579 669.878C280.316 667.908 279.572 662.962 279.134 660.773L279.66 660.686C280.229 664.071 281.349 670.964 281.279 671.454C281.615 669.732 282.636 665.807 283.643 664.013L284.124 664.275C283.512 665.749 282.172 669.3 281.717 671.716L281.542 673.642L280.929 673.774C280.649 670.832 279.558 668.2 279.047 667.252L279.485 666.989C279.59 667.059 280.243 668.973 280.579 669.878Z" fill="#82A115"/>
<path d="M274.889 658.673C275.064 657.972 275.984 658.31 276.509 658.454C275.353 658.138 275.59 657.666 275.809 657.447C276.019 657.237 276.421 657.272 276.596 657.316C276.421 657.105 276.582 656.907 276.684 656.834C277.034 656.554 277.414 656.717 277.559 656.834C277.314 656.344 277.807 656.105 278.085 656.046C278.54 655.871 278.77 656.236 278.829 656.44C279.004 656.055 279.427 656.017 279.617 656.046C279.897 656.046 279.879 656.309 279.836 656.44C279.996 656.265 280.422 655.959 280.842 656.134C281.235 656.363 281.047 656.788 280.878 657.009C281.386 656.395 281.794 656.546 281.937 656.703C282.357 657.228 281.82 657.68 281.499 657.841C282.199 657.491 282.462 657.782 282.506 657.972C282.611 658.743 281.586 658.935 281.061 658.935C281.972 658.97 282.112 659.271 282.068 659.417C281.893 660.047 280.974 660 280.536 659.898C281.061 660.318 280.872 660.598 280.711 660.686C280.256 661.001 279.85 660.671 279.704 660.467C279.844 661.027 279.588 661.226 279.442 661.255C279.091 661.395 278.916 660.934 278.873 660.686C278.662 661.246 278.318 661.416 278.172 661.43C277.577 661.465 277.72 660.803 277.866 660.467C276.99 661.378 276.392 661.255 276.202 661.08C275.922 660.835 276.436 660.307 276.728 660.073C275.817 660.704 275.283 660.423 275.152 660.205C274.889 659.679 275.371 659.446 275.721 659.373C274.951 659.373 274.846 658.906 274.889 658.673Z" fill="#FEE300"/>
<path d="M276.071 659.942C275.756 659.592 276.494 659.242 276.903 659.11C275.887 659.355 275.546 658.979 275.502 658.76C275.467 658.375 276.188 658.366 276.553 658.41C275.957 658.2 275.984 657.885 276.071 657.753C276.281 657.298 276.83 657.564 277.078 657.753C276.833 657.403 276.91 657.209 277.034 657.053C277.209 656.834 278.158 657.345 278.654 657.666L278.829 656.965C279.039 656.44 279.325 656.396 279.442 656.44C279.652 656.475 279.704 656.834 279.704 657.009C279.984 656.554 280.346 656.499 280.492 656.528C280.877 656.668 280.653 657.141 280.492 657.359C281.123 656.834 281.426 656.965 281.499 657.097C281.779 657.447 281.061 657.943 280.667 658.147C281.438 657.937 281.63 658.235 281.63 658.41C281.63 658.795 280.726 658.804 280.273 658.76C280.834 658.83 280.857 659.081 280.799 659.198C280.624 659.583 279.909 659.358 279.573 659.198C280.238 659.548 280.113 659.84 279.967 659.942C279.442 660.222 279.019 659.65 278.873 659.329C279.013 659.889 278.639 660.234 278.435 660.336C277.875 660.546 277.997 660.015 278.129 659.723C277.883 660.108 277.53 660.234 277.384 660.248C276.894 660.178 277.209 659.723 277.428 659.504C276.658 660.135 276.203 660.059 276.071 659.942Z" fill="#FBD000"/>
<path d="M276.946 657.885C277.086 657.604 277.5 657.914 277.69 658.103L278.74 658.235L279.309 657.534C279.379 657.079 279.718 657.053 279.878 657.097C280.11 657.229 279.892 657.631 279.732 657.847C280.136 657.325 280.406 657.332 280.491 657.403C280.771 657.718 280.287 658.089 280.01 658.235C280.465 658.06 280.637 658.249 280.666 658.366C280.666 658.681 279.995 658.702 279.66 658.672C280.045 658.707 280.112 658.95 280.097 659.066C279.992 659.277 279.557 659.125 279.353 659.023C279.633 659.233 279.528 659.431 279.441 659.504C279.231 659.714 278.974 659.417 278.872 659.241C278.767 659.767 278.536 659.84 278.434 659.811C278.154 659.741 278.288 659.373 278.39 659.198C278.04 659.758 277.807 659.811 277.734 659.767C277.488 659.662 277.719 659.314 277.865 659.154C277.34 659.574 276.975 659.504 276.858 659.417C276.753 659.312 277.077 659.052 277.252 658.935C276.622 658.935 276.493 658.672 276.508 658.541C276.539 658.229 276.943 658.311 277.207 658.415C276.845 658.24 276.878 657.993 276.946 657.885Z" fill="#F8B800"/>
<path d="M277.69 659.767C277.935 659.837 278.23 659.446 278.347 659.241C278.662 658.856 278.42 658.789 278.259 658.804C278.154 658.874 277.924 659.096 277.821 659.198C277.541 659.513 277.617 659.708 277.69 659.767Z" fill="#F3A801"/>
<path d="M279.398 659.067C279.888 659.242 280.069 659.14 280.098 659.067C280.098 658.95 280.011 658.717 279.704 658.673L279.004 658.498C278.989 658.571 279.048 658.787 279.398 659.067Z" fill="#F3A801"/>
<path d="M279.311 657.534C279.416 657.044 279.734 657.038 279.88 657.096C279.967 657.14 280.099 657.315 279.748 657.841C279.632 658.001 279.372 658.322 279.267 658.322C279.197 658.252 279.136 657.709 279.311 657.534Z" fill="#F3A801"/>
<path d="M278.347 657.315L278.347 657.315C278.242 657.28 277.939 657.213 277.822 657.184C277.857 656.834 278.099 656.892 278.216 656.965C278.286 656.685 278.537 656.878 278.653 657.009C278.478 657.009 278.391 657.213 278.347 657.315Z" fill="#DA9400"/>
<path d="M278.216 656.965C277.909 656.79 277.822 657.053 277.822 657.184C277.866 657.315 278.207 657.385 278.347 657.315C278.318 657.213 278.251 657 278.216 656.965Z" fill="#EBA218"/>
<path d="M277.69 657.101C277.821 657.101 277.909 657.261 277.909 657.363C277.938 657.29 278.014 657.153 278.084 657.188C278.113 657.188 278.189 657.215 278.259 657.32C278.274 657.247 278.323 657.134 278.39 657.101C278.42 657.086 278.487 657.066 278.522 657.101C278.522 657.028 278.539 656.882 278.609 656.882C278.638 656.853 278.723 656.812 278.828 656.882C278.959 656.984 279.231 657.328 279.266 657.889C279.266 658.108 279.31 658.725 278.784 658.988C277.865 659.206 277.5 658.02 277.471 657.539C277.471 657.223 277.603 657.101 277.69 657.101Z" fill="#FBC501"/>
<path d="M278.041 657.193C277.953 657.193 277.909 657.281 277.909 657.363C277.865 657.787 277.962 658.708 278.697 659.023C278.653 658.585 278.464 657.733 278.303 657.368C278.259 657.281 278.084 657.149 278.041 657.193Z" fill="#F8B600"/>
<path d="M278.566 656.887C278.478 656.935 278.478 657.105 278.522 657.149C278.828 657.499 278.96 658.454 278.96 658.891C279.66 658.489 279.179 657.281 278.916 656.969C278.785 656.755 278.631 656.851 278.566 656.887Z" fill="#F8B600"/>
<path d="M287.386 662.532C287.231 661.911 286.415 662.211 285.949 662.338C286.974 662.059 286.765 661.639 286.571 661.445C286.384 661.259 286.027 661.29 285.872 661.329C286.027 661.142 285.884 660.966 285.794 660.901C285.483 660.653 285.147 660.798 285.017 660.901C285.235 660.466 284.797 660.254 284.551 660.202C284.147 660.047 283.943 660.371 283.891 660.552C283.736 660.21 283.36 660.176 283.192 660.202C282.943 660.202 282.959 660.435 282.998 660.552C282.855 660.397 282.477 660.125 282.105 660.28C281.756 660.483 281.923 660.86 282.073 661.057C281.622 660.511 281.26 660.646 281.134 660.785C280.761 661.251 281.237 661.652 281.522 661.795C280.901 661.484 280.668 661.743 280.629 661.911C280.536 662.594 281.445 662.765 281.911 662.765C281.103 662.796 280.979 663.063 281.017 663.193C281.173 663.752 281.988 663.71 282.377 663.62C281.911 663.992 282.079 664.241 282.221 664.319C282.625 664.598 282.985 664.306 283.114 664.125C282.99 664.622 283.218 664.798 283.347 664.824C283.658 664.948 283.813 664.539 283.852 664.319C284.039 664.816 284.344 664.966 284.474 664.979C285.002 665.01 284.875 664.422 284.745 664.125C285.522 664.932 286.053 664.824 286.221 664.668C286.47 664.451 286.014 663.982 285.755 663.775C286.563 664.334 287.037 664.086 287.153 663.892C287.386 663.426 286.959 663.218 286.648 663.154C287.332 663.154 287.425 662.739 287.386 662.532Z" fill="#FEE300"/>
<path d="M286.338 663.659C286.617 663.348 285.962 663.037 285.6 662.921C286.501 663.138 286.804 662.804 286.843 662.61C286.874 662.268 286.234 662.261 285.911 662.299C286.439 662.113 286.415 661.833 286.338 661.717C286.151 661.313 285.665 661.549 285.445 661.717C285.662 661.406 285.594 661.234 285.483 661.096C285.328 660.901 284.487 661.354 284.047 661.639L283.891 661.018C283.705 660.552 283.451 660.513 283.348 660.552C283.161 660.583 283.115 660.901 283.115 661.057C282.866 660.653 282.545 660.604 282.416 660.63C282.074 660.754 282.273 661.173 282.416 661.367C281.856 660.901 281.587 661.018 281.522 661.134C281.274 661.445 281.911 661.885 282.26 662.066C281.577 661.88 281.406 662.144 281.406 662.299C281.406 662.641 282.209 662.649 282.61 662.61C282.113 662.672 282.092 662.895 282.144 662.998C282.299 663.34 282.933 663.141 283.231 662.998C282.641 663.309 282.752 663.568 282.882 663.659C283.348 663.907 283.723 663.4 283.852 663.115C283.728 663.612 284.06 663.917 284.241 664.008C284.738 664.194 284.629 663.723 284.513 663.464C284.73 663.806 285.043 663.917 285.173 663.93C285.608 663.868 285.328 663.464 285.134 663.27C285.817 663.829 286.221 663.762 286.338 663.659Z" fill="#FBD000"/>
<path d="M285.561 661.834C285.437 661.585 285.069 661.859 284.901 662.028L283.969 662.144L283.464 661.523C283.402 661.119 283.101 661.096 282.959 661.135C282.754 661.252 282.947 661.608 283.089 661.801C282.73 661.337 282.491 661.343 282.415 661.406C282.167 661.686 282.597 662.015 282.843 662.144C282.439 661.989 282.286 662.157 282.26 662.261C282.26 662.54 282.855 662.558 283.153 662.533C282.811 662.564 282.752 662.778 282.765 662.882C282.858 663.068 283.244 662.934 283.425 662.843C283.176 663.03 283.27 663.206 283.347 663.27C283.534 663.457 283.762 663.193 283.852 663.037C283.945 663.503 284.15 663.568 284.241 663.542C284.489 663.48 284.37 663.154 284.279 662.999C284.59 663.496 284.797 663.542 284.862 663.503C285.079 663.41 284.875 663.102 284.745 662.96C285.211 663.332 285.535 663.27 285.639 663.193C285.732 663.099 285.444 662.869 285.289 662.766C285.848 662.766 285.962 662.533 285.949 662.416C285.922 662.139 285.563 662.212 285.329 662.304C285.65 662.149 285.621 661.93 285.561 661.834Z" fill="#F8B800"/>
<path d="M284.901 663.503C284.684 663.565 284.422 663.218 284.318 663.037C284.039 662.695 284.254 662.636 284.396 662.649C284.489 662.711 284.694 662.908 284.784 662.998C285.033 663.278 284.966 663.451 284.901 663.503Z" fill="#F3A801"/>
<path d="M283.386 662.882C282.951 663.037 282.791 662.947 282.765 662.882C282.765 662.778 282.842 662.571 283.114 662.532L283.736 662.377C283.748 662.442 283.697 662.633 283.386 662.882Z" fill="#F3A801"/>
<path d="M283.464 661.523C283.371 661.088 283.088 661.083 282.959 661.135C282.881 661.174 282.765 661.329 283.076 661.795C283.179 661.937 283.41 662.222 283.503 662.222C283.565 662.16 283.619 661.678 283.464 661.523Z" fill="#F3A801"/>
<path d="M284.319 661.329L284.319 661.329C284.412 661.298 284.681 661.238 284.785 661.212C284.754 660.902 284.539 660.953 284.435 661.018C284.373 660.77 284.15 660.94 284.047 661.057C284.202 661.057 284.28 661.238 284.319 661.329Z" fill="#DA9400"/>
<path d="M284.435 661.018C284.707 660.863 284.785 661.096 284.785 661.212C284.746 661.329 284.443 661.391 284.319 661.329C284.345 661.238 284.404 661.049 284.435 661.018Z" fill="#EBA218"/>
<path d="M284.902 661.138C284.785 661.138 284.707 661.281 284.707 661.371C284.681 661.307 284.614 661.185 284.552 661.216C284.526 661.216 284.459 661.239 284.397 661.332C284.384 661.268 284.34 661.168 284.28 661.138C284.254 661.125 284.195 661.107 284.164 661.138C284.164 661.074 284.148 660.944 284.086 660.944C284.06 660.918 283.985 660.882 283.892 660.944C283.775 661.035 283.535 661.34 283.504 661.837C283.504 662.031 283.465 662.579 283.931 662.812C284.746 663.006 285.07 661.954 285.096 661.527C285.096 661.247 284.979 661.138 284.902 661.138Z" fill="#FBC501"/>
<path d="M284.589 661.22C284.667 661.22 284.706 661.297 284.706 661.371C284.745 661.746 284.659 662.563 284.007 662.843C284.046 662.455 284.214 661.699 284.356 661.375C284.395 661.297 284.551 661.181 284.589 661.22Z" fill="#F8B600"/>
<path d="M284.123 660.948C284.201 660.991 284.201 661.142 284.162 661.181C283.89 661.492 283.774 662.338 283.774 662.727C283.153 662.369 283.58 661.297 283.813 661.021C283.929 660.831 284.066 660.916 284.123 660.948Z" fill="#F8B600"/>
<path d="M275.725 666.391C275.846 665.905 276.484 666.14 276.848 666.239C276.047 666.02 276.21 665.693 276.362 665.541C276.508 665.396 276.787 665.42 276.908 665.45C276.787 665.304 276.898 665.167 276.969 665.116C277.212 664.922 277.475 665.036 277.576 665.116C277.406 664.777 277.748 664.611 277.94 664.57C278.255 664.449 278.415 664.702 278.455 664.843C278.577 664.576 278.87 664.55 279.002 664.57C279.196 664.57 279.184 664.752 279.153 664.843C279.264 664.722 279.56 664.51 279.851 664.631C280.123 664.79 279.993 665.084 279.875 665.238C280.228 664.812 280.511 664.917 280.609 665.025C280.901 665.389 280.528 665.703 280.306 665.814C280.791 665.571 280.973 665.774 281.004 665.905C281.077 666.439 280.367 666.573 280.003 666.573C280.634 666.597 280.731 666.805 280.7 666.906C280.579 667.343 279.942 667.311 279.639 667.24C280.003 667.531 279.871 667.725 279.76 667.786C279.444 668.005 279.163 667.776 279.062 667.634C279.159 668.023 278.981 668.16 278.88 668.18C278.637 668.278 278.516 667.958 278.486 667.786C278.34 668.174 278.102 668.292 278 668.302C277.588 668.326 277.687 667.867 277.788 667.634C277.181 668.265 276.767 668.18 276.635 668.059C276.441 667.889 276.797 667.523 276.999 667.361C276.368 667.798 275.998 667.604 275.907 667.452C275.725 667.088 276.059 666.927 276.301 666.876C275.768 666.876 275.695 666.552 275.725 666.391Z" fill="#FEE300"/>
<path d="M276.544 667.27C276.325 667.028 276.837 666.785 277.12 666.694C276.416 666.864 276.18 666.603 276.149 666.451C276.125 666.184 276.625 666.178 276.877 666.208C276.465 666.063 276.483 665.844 276.544 665.753C276.689 665.438 277.07 665.622 277.241 665.753C277.072 665.511 277.125 665.376 277.211 665.268C277.332 665.116 277.99 665.47 278.334 665.693L278.455 665.207C278.601 664.843 278.799 664.813 278.88 664.843C279.025 664.868 279.062 665.116 279.062 665.238C279.256 664.922 279.507 664.884 279.608 664.904C279.875 665.001 279.719 665.329 279.608 665.48C280.045 665.116 280.255 665.207 280.305 665.298C280.5 665.541 280.002 665.885 279.729 666.026C280.263 665.881 280.396 666.087 280.396 666.208C280.396 666.475 279.77 666.481 279.456 666.451C279.844 666.5 279.861 666.674 279.82 666.754C279.699 667.021 279.203 666.866 278.971 666.754C279.432 666.997 279.345 667.199 279.244 667.27C278.88 667.464 278.586 667.068 278.485 666.845C278.582 667.234 278.323 667.472 278.182 667.543C277.794 667.689 277.879 667.321 277.97 667.119C277.8 667.385 277.555 667.472 277.454 667.483C277.114 667.434 277.332 667.119 277.484 666.967C276.95 667.404 276.635 667.351 276.544 667.27Z" fill="#FBD000"/>
<path d="M277.152 665.845C277.249 665.65 277.536 665.865 277.668 665.996L278.396 666.087L278.79 665.602C278.839 665.286 279.073 665.268 279.184 665.298C279.345 665.39 279.194 665.669 279.083 665.819C279.363 665.456 279.55 665.461 279.609 665.511C279.803 665.729 279.468 665.986 279.275 666.087C279.591 665.966 279.71 666.097 279.73 666.178C279.73 666.397 279.265 666.411 279.033 666.391C279.3 666.415 279.346 666.583 279.336 666.664C279.263 666.809 278.962 666.704 278.82 666.633C279.015 666.779 278.942 666.916 278.881 666.967C278.735 667.113 278.557 666.906 278.487 666.785C278.414 667.149 278.254 667.2 278.183 667.179C277.989 667.131 278.082 666.876 278.153 666.755C277.91 667.143 277.748 667.179 277.698 667.149C277.528 667.076 277.688 666.836 277.789 666.724C277.425 667.016 277.172 666.967 277.091 666.906C277.018 666.834 277.243 666.654 277.364 666.573C276.927 666.573 276.838 666.391 276.848 666.3C276.87 666.083 277.15 666.14 277.333 666.212C277.082 666.091 277.105 665.92 277.152 665.845Z" fill="#F8B800"/>
<path d="M277.668 667.149C277.838 667.197 278.042 666.926 278.123 666.785C278.341 666.518 278.174 666.471 278.062 666.481C277.99 666.53 277.83 666.684 277.759 666.754C277.565 666.973 277.617 667.108 277.668 667.149Z" fill="#F3A801"/>
<path d="M278.85 666.664C279.189 666.785 279.315 666.714 279.335 666.664C279.335 666.583 279.274 666.421 279.062 666.391L278.577 666.269C278.566 666.32 278.607 666.469 278.85 666.664Z" fill="#F3A801"/>
<path d="M278.789 665.602C278.862 665.262 279.082 665.258 279.183 665.298C279.244 665.329 279.335 665.45 279.092 665.814C279.011 665.925 278.831 666.148 278.759 666.148C278.71 666.099 278.668 665.723 278.789 665.602Z" fill="#F3A801"/>
<path d="M278.122 665.45L278.122 665.45C278.049 665.426 277.839 665.379 277.758 665.359C277.782 665.116 277.95 665.157 278.031 665.207C278.079 665.013 278.253 665.147 278.334 665.238C278.213 665.238 278.152 665.379 278.122 665.45Z" fill="#DA9400"/>
<path d="M278.031 665.207C277.818 665.086 277.758 665.268 277.758 665.359C277.788 665.45 278.025 665.498 278.122 665.45C278.102 665.379 278.055 665.231 278.031 665.207Z" fill="#EBA218"/>
<path d="M277.667 665.301C277.758 665.301 277.819 665.412 277.819 665.483C277.839 665.433 277.891 665.338 277.94 665.362C277.96 665.362 278.013 665.38 278.061 665.453C278.071 665.402 278.106 665.324 278.152 665.301C278.172 665.291 278.219 665.277 278.243 665.301C278.243 665.251 278.255 665.149 278.304 665.149C278.324 665.129 278.383 665.101 278.456 665.149C278.547 665.22 278.735 665.459 278.759 665.847C278.759 665.999 278.789 666.427 278.425 666.609C277.788 666.761 277.535 665.938 277.515 665.605C277.515 665.386 277.606 665.301 277.667 665.301Z" fill="#FBC501"/>
<path d="M277.909 665.365C277.849 665.365 277.818 665.426 277.818 665.483C277.788 665.777 277.855 666.415 278.364 666.633C278.334 666.33 278.202 665.739 278.091 665.487C278.061 665.426 277.94 665.335 277.909 665.365Z" fill="#F8B600"/>
<path d="M278.273 665.153C278.213 665.186 278.213 665.305 278.243 665.335C278.455 665.578 278.546 666.239 278.546 666.542C279.032 666.263 278.698 665.426 278.516 665.21C278.425 665.062 278.318 665.128 278.273 665.153Z" fill="#F8B600"/>
<path d="M278.435 673.117C278.61 672.872 280.565 673.336 281.542 673.642C281.192 672.347 280.652 671.585 280.404 671.322L279.529 671.235C279.564 670.745 279.281 670.389 279.135 670.272L277.953 670.184L277.472 669.44L276.071 669.353L275.633 668.871C273.812 668.696 272.452 669.119 272 669.353C272.07 670.333 273.226 671.366 273.795 671.76L274.801 671.498L275.327 672.242C275.502 672.277 276.217 671.994 276.552 671.848C276.657 672.303 276.917 672.533 277.034 672.592L278.084 672.373C278.049 672.758 278.303 673.03 278.435 673.117Z" fill="#5CA441"/>
<path d="M273.269 669.569C274.786 669.934 277.778 670.839 280.623 673.027C278.031 670.541 274.641 669.686 273.269 669.569Z" fill="#7CB21E"/>
<path d="M284.124 673.115C284.255 673.028 284.509 672.756 284.474 672.371L285.525 672.59C285.642 672.532 285.901 672.301 286.006 671.846C286.342 671.992 287.057 672.275 287.232 672.24L287.757 671.496L288.764 671.758C289.333 671.364 290.489 670.331 290.559 669.351C290.106 669.118 288.746 668.694 286.926 668.869L286.488 669.351L285.087 669.439L284.606 670.183L283.424 670.27C283.278 670.387 282.995 670.743 283.03 671.233L282.154 671.321C281.94 671.548 281.442 672.248 281.085 673.27L280.841 673.074L280.929 673.774C281.107 673.743 281.316 673.695 281.542 673.638C282.59 673.372 283.98 672.914 284.124 673.115Z" fill="#5CA441"/>
<path d="M289.29 669.568C287.772 669.932 284.781 670.837 281.936 673.026C284.527 670.539 287.918 669.684 289.29 669.568Z" fill="#7CB21E"/>
</g>
<defs>
<filter id="filter0_f_4303_7381" x="115" y="122" width="40" height="22.5" filterUnits="userSpaceOnUse" color-interpolation-filters="sRGB">
<feFlood flood-opacity="0" result="BackgroundImageFix"/>
<feBlend mode="normal" in="SourceGraphic" in2="BackgroundImageFix" result="shape"/>
<feGaussianBlur stdDeviation="2" result="effect1_foregroundBlur_4303_7381"/>
</filter>
<filter id="filter1_f_4303_7381" x="105" y="112" width="32" height="19" filterUnits="userSpaceOnUse" color-interpolation-filters="sRGB">
<feFlood flood-opacity="0" result="BackgroundImageFix"/>
<feBlend mode="normal" in="SourceGraphic" in2="BackgroundImageFix" result="shape"/>
<feGaussianBlur stdDeviation="2" result="effect1_foregroundBlur_4303_7381"/>
</filter>
<filter id="filter2_f_4303_7381" x="73" y="123" width="26.1055" height="37" filterUnits="userSpaceOnUse" color-interpolation-filters="sRGB">
<feFlood flood-opacity="0" result="BackgroundImageFix"/>
<feBlend mode="normal" in="SourceGraphic" in2="BackgroundImageFix" result="shape"/>
<feGaussianBlur stdDeviation="2" result="effect1_foregroundBlur_4303_7381"/>
</filter>
<filter id="filter3_f_4303_7381" x="79" y="115" width="40" height="22.5" filterUnits="userSpaceOnUse" color-interpolation-filters="sRGB">
<feFlood flood-opacity="0" result="BackgroundImageFix"/>
<feBlend mode="normal" in="SourceGraphic" in2="BackgroundImageFix" result="shape"/>
<feGaussianBlur stdDeviation="2" result="effect1_foregroundBlur_4303_7381"/>
</filter>
<filter id="filter4_f_4303_7381" x="70.5903" y="138" width="13.9097" height="15.2164" filterUnits="userSpaceOnUse" color-interpolation-filters="sRGB">
<feFlood flood-opacity="0" result="BackgroundImageFix"/>
<feBlend mode="normal" in="SourceGraphic" in2="BackgroundImageFix" result="shape"/>
<feGaussianBlur stdDeviation="1" result="effect1_foregroundBlur_4303_7381"/>
</filter>
<filter id="filter5_f_4303_7381" x="69.8691" y="149.15" width="138.131" height="9.82422" filterUnits="userSpaceOnUse" color-interpolation-filters="sRGB">
<feFlood flood-opacity="0" result="BackgroundImageFix"/>
<feBlend mode="normal" in="SourceGraphic" in2="BackgroundImageFix" result="shape"/>
<feGaussianBlur stdDeviation="1" result="effect1_foregroundBlur_4303_7381"/>
</filter>
<filter id="filter6_f_4303_7381" x="-12.0737" y="251.714" width="23.0845" height="14.8352" filterUnits="userSpaceOnUse" color-interpolation-filters="sRGB">
<feFlood flood-opacity="0" result="BackgroundImageFix"/>
<feBlend mode="normal" in="SourceGraphic" in2="BackgroundImageFix" result="shape"/>
<feGaussianBlur stdDeviation="2" result="effect1_foregroundBlur_4303_7381"/>
</filter>
<filter id="filter7_f_4303_7381" x="-3.58887" y="247" width="19.3135" height="13.1853" filterUnits="userSpaceOnUse" color-interpolation-filters="sRGB">
<feFlood flood-opacity="0" result="BackgroundImageFix"/>
<feBlend mode="normal" in="SourceGraphic" in2="BackgroundImageFix" result="shape"/>
<feGaussianBlur stdDeviation="2" result="effect1_foregroundBlur_4303_7381"/>
</filter>
<filter id="filter8_f_4303_7381" x="14.2744" y="252.185" width="16.5347" height="21.6703" filterUnits="userSpaceOnUse" color-interpolation-filters="sRGB">
<feFlood flood-opacity="0" result="BackgroundImageFix"/>
<feBlend mode="normal" in="SourceGraphic" in2="BackgroundImageFix" result="shape"/>
<feGaussianBlur stdDeviation="2" result="effect1_foregroundBlur_4303_7381"/>
</filter>
<filter id="filter9_f_4303_7381" x="4.89648" y="248.414" width="23.0845" height="14.8352" filterUnits="userSpaceOnUse" color-interpolation-filters="sRGB">
<feFlood flood-opacity="0" result="BackgroundImageFix"/>
<feBlend mode="normal" in="SourceGraphic" in2="BackgroundImageFix" result="shape"/>
<feGaussianBlur stdDeviation="2" result="effect1_foregroundBlur_4303_7381"/>
</filter>
<filter id="filter10_f_4303_7381" x="21.981" y="261.256" width="8.67139" height="9.28735" filterUnits="userSpaceOnUse" color-interpolation-filters="sRGB">
<feFlood flood-opacity="0" result="BackgroundImageFix"/>
<feBlend mode="normal" in="SourceGraphic" in2="BackgroundImageFix" result="shape"/>
<feGaussianBlur stdDeviation="1" result="effect1_foregroundBlur_4303_7381"/>
</filter>
<filter id="filter11_f_4303_7381" x="-36" y="265.499" width="74.7246" height="6.81677" filterUnits="userSpaceOnUse" color-interpolation-filters="sRGB">
<feFlood flood-opacity="0" result="BackgroundImageFix"/>
<feBlend mode="normal" in="SourceGraphic" in2="BackgroundImageFix" result="shape"/>
<feGaussianBlur stdDeviation="1" result="effect1_foregroundBlur_4303_7381"/>
</filter>
<filter id="filter12_f_4303_7381" x="271" y="215" width="40" height="22.5" filterUnits="userSpaceOnUse" color-interpolation-filters="sRGB">
<feFlood flood-opacity="0" result="BackgroundImageFix"/>
<feBlend mode="normal" in="SourceGraphic" in2="BackgroundImageFix" result="shape"/>
<feGaussianBlur stdDeviation="2" result="effect1_foregroundBlur_4303_7381"/>
</filter>
<filter id="filter13_f_4303_7381" x="263" y="202" width="32" height="19" filterUnits="userSpaceOnUse" color-interpolation-filters="sRGB">
<feFlood flood-opacity="0" result="BackgroundImageFix"/>
<feBlend mode="normal" in="SourceGraphic" in2="BackgroundImageFix" result="shape"/>
<feGaussianBlur stdDeviation="2" result="effect1_foregroundBlur_4303_7381"/>
</filter>
<filter id="filter14_f_4303_7381" x="242" y="208" width="26.1055" height="37" filterUnits="userSpaceOnUse" color-interpolation-filters="sRGB">
<feFlood flood-opacity="0" result="BackgroundImageFix"/>
<feBlend mode="normal" in="SourceGraphic" in2="BackgroundImageFix" result="shape"/>
<feGaussianBlur stdDeviation="2" result="effect1_foregroundBlur_4303_7381"/>
</filter>
<filter id="filter15_f_4303_7381" x="248" y="207" width="25" height="15" filterUnits="userSpaceOnUse" color-interpolation-filters="sRGB">
<feFlood flood-opacity="0" result="BackgroundImageFix"/>
<feBlend mode="normal" in="SourceGraphic" in2="BackgroundImageFix" result="shape"/>
<feGaussianBlur stdDeviation="2" result="effect1_foregroundBlur_4303_7381"/>
</filter>
<filter id="filter16_f_4303_7381" x="239.59" y="223" width="13.9097" height="15.2164" filterUnits="userSpaceOnUse" color-interpolation-filters="sRGB">
<feFlood flood-opacity="0" result="BackgroundImageFix"/>
<feBlend mode="normal" in="SourceGraphic" in2="BackgroundImageFix" result="shape"/>
<feGaussianBlur stdDeviation="1" result="effect1_foregroundBlur_4303_7381"/>
</filter>
<filter id="filter17_f_4303_7381" x="204.5" y="234.15" width="172.5" height="9.8501" filterUnits="userSpaceOnUse" color-interpolation-filters="sRGB">
<feFlood flood-opacity="0" result="BackgroundImageFix"/>
<feBlend mode="normal" in="SourceGraphic" in2="BackgroundImageFix" result="shape"/>
<feGaussianBlur stdDeviation="1" result="effect1_foregroundBlur_4303_7381"/>
</filter>
<filter id="filter18_if_4303_7381" x="214" y="13" width="146" height="146" filterUnits="userSpaceOnUse" color-interpolation-filters="sRGB">
<feFlood flood-opacity="0" result="BackgroundImageFix"/>
<feBlend mode="normal" in="SourceGraphic" in2="BackgroundImageFix" result="shape"/>
<feColorMatrix in="SourceAlpha" type="matrix" values="0 0 0 0 0 0 0 0 0 0 0 0 0 0 0 0 0 0 127 0" result="hardAlpha"/>
<feOffset dx="2" dy="2"/>
<feGaussianBlur stdDeviation="2"/>
<feComposite in2="hardAlpha" operator="arithmetic" k2="-1" k3="1"/>
<feColorMatrix type="matrix" values="0 0 0 0 0 0 0 0 0 0 0 0 0 0 0 0 0 0 0.25 0"/>
<feBlend mode="normal" in2="shape" result="effect1_innerShadow_4303_7381"/>
<feGaussianBlur stdDeviation="17.5" result="effect2_foregroundBlur_4303_7381"/>
</filter>
<filter id="filter19_ii_4303_7381" x="247" y="46" width="80" height="80" filterUnits="userSpaceOnUse" color-interpolation-filters="sRGB">
<feFlood flood-opacity="0" result="BackgroundImageFix"/>
<feBlend mode="normal" in="SourceGraphic" in2="BackgroundImageFix" result="shape"/>
<feColorMatrix in="SourceAlpha" type="matrix" values="0 0 0 0 0 0 0 0 0 0 0 0 0 0 0 0 0 0 127 0" result="hardAlpha"/>
<feOffset dx="2" dy="2"/>
<feGaussianBlur stdDeviation="2"/>
<feComposite in2="hardAlpha" operator="arithmetic" k2="-1" k3="1"/>
<feColorMatrix type="matrix" values="0 0 0 0 1 0 0 0 0 1 0 0 0 0 1 0 0 0 0.2 0"/>
<feBlend mode="normal" in2="shape" result="effect1_innerShadow_4303_7381"/>
<feColorMatrix in="SourceAlpha" type="matrix" values="0 0 0 0 0 0 0 0 0 0 0 0 0 0 0 0 0 0 127 0" result="hardAlpha"/>
<feOffset dx="-2" dy="-2"/>
<feGaussianBlur stdDeviation="2"/>
<feComposite in2="hardAlpha" operator="arithmetic" k2="-1" k3="1"/>
<feColorMatrix type="matrix" values="0 0 0 0 0 0 0 0 0 0 0 0 0 0 0 0 0 0 0.05 0"/>
<feBlend mode="normal" in2="effect1_innerShadow_4303_7381" result="effect2_innerShadow_4303_7381"/>
</filter>
<filter id="filter20_f_4303_7381" x="-44.4023" y="159.063" width="314.576" height="283.843" filterUnits="userSpaceOnUse" color-interpolation-filters="sRGB">
<feFlood flood-opacity="0" result="BackgroundImageFix"/>
<feBlend mode="normal" in="SourceGraphic" in2="BackgroundImageFix" result="shape"/>
<feGaussianBlur stdDeviation="8.5" result="effect1_foregroundBlur_4303_7381"/>
</filter>
<filter id="filter21_f_4303_7381" x="52.1543" y="240.721" width="372.171" height="331.531" filterUnits="userSpaceOnUse" color-interpolation-filters="sRGB">
<feFlood flood-opacity="0" result="BackgroundImageFix"/>
<feBlend mode="normal" in="SourceGraphic" in2="BackgroundImageFix" result="shape"/>
<feGaussianBlur stdDeviation="21" result="effect1_foregroundBlur_4303_7381"/>
</filter>
<filter id="filter22_f_4303_7381" x="122.957" y="723.478" width="58.0869" height="20.5217" filterUnits="userSpaceOnUse" color-interpolation-filters="sRGB">
<feFlood flood-opacity="0" result="BackgroundImageFix"/>
<feBlend mode="normal" in="SourceGraphic" in2="BackgroundImageFix" result="shape"/>
<feGaussianBlur stdDeviation="2" result="effect1_foregroundBlur_4303_7381"/>
</filter>
<filter id="filter23_f_4303_7381" x="134.696" y="689.304" width="10.9565" height="10.9565" filterUnits="userSpaceOnUse" color-interpolation-filters="sRGB">
<feFlood flood-opacity="0" result="BackgroundImageFix"/>
<feBlend mode="normal" in="SourceGraphic" in2="BackgroundImageFix" result="shape"/>
<feGaussianBlur stdDeviation="1" result="effect1_foregroundBlur_4303_7381"/>
</filter>
<filter id="filter24_f_4303_7381" x="158.348" y="689.304" width="10.9565" height="10.9565" filterUnits="userSpaceOnUse" color-interpolation-filters="sRGB">
<feFlood flood-opacity="0" result="BackgroundImageFix"/>
<feBlend mode="normal" in="SourceGraphic" in2="BackgroundImageFix" result="shape"/>
<feGaussianBlur stdDeviation="1" result="effect1_foregroundBlur_4303_7381"/>
</filter>
<linearGradient id="paint0_linear_4303_7381" x1="187.5" y1="0" x2="188" y2="1453" gradientUnits="userSpaceOnUse">
<stop stop-color="#94D6FF"/>
<stop offset="1" stop-color="white"/>
</linearGradient>
<linearGradient id="paint1_linear_4303_7381" x1="156.5" y1="658" x2="197" y2="932" gradientUnits="userSpaceOnUse">
<stop stop-color="#BCDD58"/>
<stop offset="0.711031" stop-color="#94C574"/>
</linearGradient>
<linearGradient id="paint2_linear_4303_7381" x1="95.987" y1="154.4" x2="271.934" y2="158.719" gradientUnits="userSpaceOnUse">
<stop offset="0.263196" stop-color="white"/>
<stop offset="1" stop-color="white" stop-opacity="0"/>
</linearGradient>
<linearGradient id="paint3_linear_4303_7381" x1="95.987" y1="154.4" x2="271.934" y2="158.719" gradientUnits="userSpaceOnUse">
<stop offset="0.263196"/>
<stop offset="1" stop-color="white" stop-opacity="0"/>
</linearGradient>
<linearGradient id="paint4_linear_4303_7381" x1="113" y1="151" x2="270.5" y2="155.5" gradientUnits="userSpaceOnUse">
<stop offset="0.263196" stop-color="white"/>
<stop offset="1" stop-color="white" stop-opacity="0"/>
</linearGradient>
<linearGradient id="paint5_linear_4303_7381" x1="95.987" y1="154.4" x2="271.934" y2="158.719" gradientUnits="userSpaceOnUse">
<stop offset="0.263196"/>
<stop offset="1" stop-color="white" stop-opacity="0"/>
</linearGradient>
<linearGradient id="paint6_linear_4303_7381" x1="12.1965" y1="267.499" x2="-62.0474" y2="269.62" gradientUnits="userSpaceOnUse">
<stop offset="0.263196" stop-color="white"/>
<stop offset="1" stop-color="white" stop-opacity="0"/>
</linearGradient>
<linearGradient id="paint7_linear_4303_7381" x1="17.859" y1="269.101" x2="-65.0805" y2="271.137" gradientUnits="userSpaceOnUse">
<stop offset="0.263196" stop-color="white"/>
<stop offset="1" stop-color="white" stop-opacity="0"/>
</linearGradient>
<linearGradient id="paint8_linear_4303_7381" x1="17.6233" y1="270.044" x2="-65.3162" y2="272.08" gradientUnits="userSpaceOnUse">
<stop offset="0.263196"/>
<stop offset="1" stop-color="white" stop-opacity="0"/>
</linearGradient>
<linearGradient id="paint9_linear_4303_7381" x1="24.0051" y1="269.07" x2="-68.7537" y2="271.553" gradientUnits="userSpaceOnUse">
<stop offset="0.263196"/>
<stop offset="1" stop-color="white" stop-opacity="0"/>
</linearGradient>
<linearGradient id="paint10_linear_4303_7381" x1="264.987" y1="239.399" x2="440.934" y2="243.718" gradientUnits="userSpaceOnUse">
<stop offset="0.263196" stop-color="white"/>
<stop offset="1" stop-color="white" stop-opacity="0"/>
</linearGradient>
<linearGradient id="paint11_linear_4303_7381" x1="264.987" y1="239.4" x2="440.934" y2="243.719" gradientUnits="userSpaceOnUse">
<stop offset="0.263196"/>
<stop offset="1" stop-color="white" stop-opacity="0"/>
</linearGradient>
<linearGradient id="paint12_linear_4303_7381" x1="277.671" y1="236" x2="395.105" y2="238.501" gradientUnits="userSpaceOnUse">
<stop offset="0.263196" stop-color="white"/>
<stop offset="1" stop-color="white" stop-opacity="0"/>
</linearGradient>
<linearGradient id="paint13_linear_4303_7381" x1="264.987" y1="239.4" x2="440.934" y2="243.719" gradientUnits="userSpaceOnUse">
<stop offset="0.263196"/>
<stop offset="1" stop-color="white" stop-opacity="0"/>
</linearGradient>
<radialGradient id="paint14_radial_4303_7381" cx="0" cy="0" r="1" gradientUnits="userSpaceOnUse" gradientTransform="translate(287 86) rotate(90) scale(76)">
<stop stop-color="#FFBC3A"/>
<stop offset="1" stop-color="#FFCF54" stop-opacity="0"/>
</radialGradient>
<linearGradient id="paint15_linear_4303_7381" x1="144.348" y1="667.652" x2="144.348" y2="680.174" gradientUnits="userSpaceOnUse">
<stop stop-color="#C2B48B"/>
<stop offset="1" stop-color="#9B895A"/>
</linearGradient>
<linearGradient id="paint16_linear_4303_7381" x1="158.261" y1="667.652" x2="158.261" y2="680.174" gradientUnits="userSpaceOnUse">
<stop stop-color="#C2B48B"/>
<stop offset="1" stop-color="#9B895A"/>
</linearGradient>
<clipPath id="clip0_4303_7381">
<rect width="375" height="812" fill="white"/>
</clipPath>
</defs>
</svg>
