<svg width="80" height="80" viewBox="0 0 80 80" fill="none" xmlns="http://www.w3.org/2000/svg">
<circle cx="40" cy="40" r="38.5" fill="#D9D9D9" stroke="#C5C5C5" stroke-width="3"/>
<g style="mix-blend-mode:luminosity">
<path d="M20.6481 39.526C18.2781 22.7526 31.6902 19.3233 39.607 19.3232C47.5239 19.323 60.9332 22.7526 58.5652 39.5263C58.3927 40.7488 58.7843 42.0015 59.3651 43.0933C60.8469 45.8794 61.8098 50.8539 58.2291 54.4053C56.9869 55.6362 51.5233 59.9446 39.6066 59.9446C27.6898 59.9446 22.2263 55.6362 20.9841 54.4053C17.4035 50.854 18.3665 45.8797 19.8484 43.0936C20.4292 42.0016 20.8208 40.7487 20.6481 39.526Z" fill="white"/>
<path fill-rule="evenodd" clip-rule="evenodd" d="M25.718 22.3912C29.9903 19.2723 35.5516 18.4001 39.6071 18.4C43.6626 18.3999 49.2232 19.2721 53.4951 22.3912C57.849 25.5702 60.7129 30.9734 59.4874 39.6543C59.3528 40.6079 59.6539 41.6573 60.1887 42.6627C61.7515 45.6009 62.8941 51.0843 58.8876 55.058C57.4695 56.4634 51.7683 60.8678 39.6066 60.8678C27.445 60.8678 21.7441 56.4637 20.3259 55.0583C16.3196 51.0847 17.462 45.6012 19.0248 42.663C19.5597 41.6574 19.8608 40.6078 19.726 39.6542C18.4995 30.9733 21.3636 25.5701 25.718 22.3912ZM26.8221 23.8781C23.0837 26.6073 20.4268 31.3054 21.5702 39.398C21.781 40.8896 21.2988 42.3458 20.672 43.5243C19.271 46.1583 18.4878 50.6236 21.6426 53.7526C22.7095 54.8097 27.9358 59.0214 39.6066 59.0214C51.2774 59.0214 56.5038 54.8097 57.5707 53.7526V53.7526M57.5707 53.7526C60.7252 50.6235 59.9424 46.1579 58.5415 43.524C57.9148 42.3457 57.4326 40.8898 57.6432 39.3984C58.7856 31.3056 56.1289 26.6073 52.3909 23.878C48.5709 21.0889 43.4684 20.2464 39.6071 20.2465C35.7457 20.2465 30.6425 21.0891 26.8221 23.8781" fill="#C5C5C5"/>
<path d="M34.8881 41.9932C34.8881 43.7306 34.1839 45.139 33.3153 45.139C32.4466 45.139 31.7424 43.7306 31.7424 41.9932C31.7424 40.2559 32.4466 38.8475 33.3153 38.8475C34.1839 38.8475 34.8881 40.2559 34.8881 41.9932Z" fill="#C5C5C5"/>
<path d="M47.4712 41.9932C47.4712 43.7306 46.767 45.139 45.8983 45.139C45.0296 45.139 44.3254 43.7306 44.3254 41.9932C44.3254 40.2559 45.0296 38.8475 45.8983 38.8475C46.767 38.8475 47.4712 40.2559 47.4712 41.9932Z" fill="#C5C5C5"/>
<g filter="url(#filter0_f_3233_8276)">
<path d="M27.0238 49.8577C27.0238 51.595 25.6154 53.0034 23.878 53.0034C22.1406 53.0034 20.7322 51.595 20.7322 49.8577C20.7322 48.1203 22.1406 46.7119 23.878 46.7119C25.6154 46.7119 27.0238 48.1203 27.0238 49.8577Z" fill="#F5CDFF"/>
</g>
<g filter="url(#filter1_f_3233_8276)">
<path d="M58.4814 49.8577C58.4814 51.595 57.073 53.0034 55.3356 53.0034C53.5983 53.0034 52.1898 51.595 52.1898 49.8577C52.1898 48.1203 53.5983 46.7119 55.3356 46.7119C57.073 46.7119 58.4814 48.1203 58.4814 49.8577Z" fill="#F5CDFF"/>
</g>
<path fill-rule="evenodd" clip-rule="evenodd" d="M36.461 52.217C36.8953 52.217 37.2474 52.5691 37.2474 53.0034C37.2474 53.0907 37.2725 53.2416 37.5538 53.4104C37.8723 53.6015 38.4958 53.7899 39.6068 53.7899C40.7178 53.7899 41.3412 53.6015 41.6598 53.4104C41.9411 53.2416 41.9661 53.0907 41.9661 53.0034C41.9661 52.5691 42.3182 52.217 42.7525 52.217C43.1869 52.217 43.539 52.5691 43.539 53.0034C43.539 53.7026 43.1708 54.3381 42.469 54.7591C41.8045 55.1578 40.8551 55.3627 39.6068 55.3627C38.3585 55.3627 37.409 55.1578 36.7445 54.7591C36.0428 54.3381 35.6746 53.7026 35.6746 53.0034C35.6746 52.5691 36.0267 52.217 36.461 52.217Z" fill="#C5C5C5"/>
</g>
<path d="M32.6306 46.6258C20.6826 53.763 17.0991 42.9832 16.8183 35.1445C16.7984 34.5887 17.261 34.1447 17.8169 34.1639L39.6068 34.9153L62.1842 34.1627C62.7396 34.1442 63.2017 34.5878 63.18 35.1431C62.8812 42.7709 59.1571 53.2739 46.7656 46.3827C42.3759 43.9414 36.9427 44.0499 32.6306 46.6258Z" fill="#C5C5C5" stroke="#C5C5C5" stroke-width="1.9661"/>
<path d="M45.1254 45.3642L50.5641 34.652C50.5965 34.5881 50.6612 34.5469 50.7328 34.5445L58.1493 34.2973C58.2986 34.2923 58.3987 34.4492 58.3313 34.5825L51.4204 48.2508C51.4102 48.2709 51.3878 48.2818 51.3656 48.2774L50.5427 48.1128C48.5314 47.7104 46.6642 46.7779 45.1344 45.4117C45.1209 45.3997 45.1173 45.3802 45.1254 45.3642Z" fill="url(#paint0_linear_3233_8276)"/>
<path d="M46.358 34.6904L45.2296 34.728C45.157 34.7304 45.0916 34.7727 45.0596 34.8379L40.5659 44.0004C40.4947 44.1457 40.6201 44.3138 40.7806 44.2935C41.0752 44.2563 41.4741 44.2232 41.7418 44.2699C41.8646 44.2912 42.0173 44.2475 42.072 44.1355L46.5413 34.9731C46.6062 34.8399 46.5061 34.6854 46.358 34.6904Z" fill="url(#paint1_linear_3233_8276)"/>
<defs>
<filter id="filter0_f_3233_8276" x="16.8" y="42.7797" width="14.1559" height="14.1559" filterUnits="userSpaceOnUse" color-interpolation-filters="sRGB">
<feFlood flood-opacity="0" result="BackgroundImageFix"/>
<feBlend mode="normal" in="SourceGraphic" in2="BackgroundImageFix" result="shape"/>
<feGaussianBlur stdDeviation="1.9661" result="effect1_foregroundBlur_3233_8276"/>
</filter>
<filter id="filter1_f_3233_8276" x="48.2576" y="42.7797" width="14.1559" height="14.1559" filterUnits="userSpaceOnUse" color-interpolation-filters="sRGB">
<feFlood flood-opacity="0" result="BackgroundImageFix"/>
<feBlend mode="normal" in="SourceGraphic" in2="BackgroundImageFix" result="shape"/>
<feGaussianBlur stdDeviation="1.9661" result="effect1_foregroundBlur_3233_8276"/>
</filter>
<linearGradient id="paint0_linear_3233_8276" x1="49.4371" y1="34.2863" x2="35.6746" y2="59.2949" gradientUnits="userSpaceOnUse">
<stop stop-color="#FFFFF7"/>
<stop offset="1" stop-color="#FFFFF7" stop-opacity="0.49"/>
</linearGradient>
<linearGradient id="paint1_linear_3233_8276" x1="49.4371" y1="34.2863" x2="35.6746" y2="59.2949" gradientUnits="userSpaceOnUse">
<stop stop-color="#FFFFF7"/>
<stop offset="1" stop-color="#FFFFF7" stop-opacity="0.49"/>
</linearGradient>
</defs>
</svg>
