<svg width="375" height="812" viewBox="0 0 375 812" fill="none" xmlns="http://www.w3.org/2000/svg">
<g clip-path="url(#clip0_4298_6725)">
<rect width="375" height="812" fill="url(#paint0_linear_4298_6725)"/>
<path d="M0 712.14L66.1227 689.87C113.119 674.043 162.187 665.21 211.752 663.654L376 658.5V812H0V712.14Z" fill="url(#paint1_linear_4298_6725)"/>
<path fill-rule="evenodd" clip-rule="evenodd" d="M105.053 151.036C102.12 154.078 97.8076 156 93 156C84.1634 156 77 149.508 77 141.5C77 136.707 79.5658 132.458 83.5205 129.818C85.3185 123.593 91.5674 119 99 119C103.2 119 107.022 120.467 109.877 122.865C111.659 118.839 115.968 116 121 116C127.303 116 132.471 120.454 132.962 126.117C133.629 126.04 134.31 126 135 126C143.837 126 151 132.492 151 140.5C151 148.508 143.837 155 135 155C133.254 155 131.573 154.747 130 154.278C128.427 154.747 126.746 155 125 155C120.913 155 117.183 153.611 114.355 151.326C113.662 151.294 112.939 151.25 112.191 151.205C110.564 151.106 108.817 151 107 151C106.341 151 105.691 151.014 105.053 151.036Z" fill="white"/>
<g filter="url(#filter0_f_4298_6725)">
<path d="M151 140.5C151 140.5 143.837 129.5 135 129.5C126.163 129.5 119 140.5 119 140.5C119 132.492 126.163 126 135 126C143.837 126 151 132.492 151 140.5Z" fill="#C4C4C4" fill-opacity="0.1"/>
</g>
<g filter="url(#filter1_f_4298_6725)">
<path d="M133 127C133 127 127.627 118.5 121 118.5C114.373 118.5 109 127 109 127C109 120.925 114.373 116 121 116C127.627 116 133 120.925 133 127Z" fill="black" fill-opacity="0.1"/>
</g>
<g filter="url(#filter2_f_4298_6725)">
<path d="M80 140C80 148.008 101.837 156 93 156C84.1634 156 77 149.508 77 141.5C77 133.492 84.1634 127 93 127C93 127 80 131.992 80 140Z" fill="black" fill-opacity="0.1"/>
</g>
<g filter="url(#filter3_f_4298_6725)">
<path d="M115 133.5C115 133.5 107.837 122.5 99 122.5C90.1634 122.5 83 133.5 83 133.5C83 125.492 90.1634 119 99 119C107.837 119 115 125.492 115 133.5Z" fill="black" fill-opacity="0.1"/>
</g>
<path d="M82.5 140L132.286 151.15L206 155.7L73.3947 156.968C71.7164 156.984 70.5088 155.361 71.0062 153.758L72.0157 150.505C73.5712 145.493 77.4909 141.565 82.5 140Z" fill="url(#paint2_linear_4298_6725)"/>
<g filter="url(#filter4_f_4298_6725)">
<path d="M82.5 140L76.5 147L72.7858 151.178C72.7093 151.265 72.5683 151.192 72.5933 151.08L72.6818 150.682C73.8065 145.621 77.5511 141.547 82.5 140Z" fill="url(#paint3_linear_4298_6725)" fill-opacity="0.1"/>
</g>
<path d="M96 143L145.5 148.5L176.5 150.5L138.5 152.5L96 153V143Z" fill="url(#paint4_linear_4298_6725)"/>
<g filter="url(#filter5_f_4298_6725)">
<path d="M87 151.5L132.286 151.15L206 155.7L73.6924 156.974C72.4087 156.986 71.5232 155.692 72 154.5L87 151.5Z" fill="url(#paint5_linear_4298_6725)" fill-opacity="0.1"/>
</g>
<path d="M44.958 267.263L-3.12374 266.32L-17.7368 267.263L20.2101 268.441L44.958 267.263Z" fill="url(#paint6_linear_4298_6725)"/>
<path d="M26.5 263L0.748146 267.569L-34 269.714L52.5 270.327L32.0189 267.373C29.5269 267.014 27.4197 265.344 26.5 263Z" fill="url(#paint7_linear_4298_6725)"/>
<path fill-rule="evenodd" clip-rule="evenodd" d="M13.5852 267.516C14.9678 268.95 17.0006 269.856 19.2668 269.856C23.4323 269.856 26.8091 266.795 26.8091 263.02C26.8091 260.761 25.5996 258.758 23.7354 257.514C22.8878 254.579 19.9422 252.414 16.4385 252.414C14.4587 252.414 12.657 253.105 11.3114 254.236C10.4711 252.338 8.44001 251 6.06794 251C3.09677 251 0.660632 253.1 0.429242 255.769C0.114628 255.733 -0.206037 255.714 -0.531518 255.714C-4.69698 255.714 -8.07375 258.774 -8.07375 262.549C-8.07375 266.324 -4.69698 269.384 -0.531519 269.384C0.291584 269.384 1.08388 269.265 1.82543 269.044C2.56697 269.265 3.35928 269.384 4.18238 269.384C6.10909 269.384 7.86705 268.729 9.20017 267.652C9.52687 267.637 9.86753 267.617 10.22 267.595L10.2202 267.595L10.2202 267.595L10.2202 267.595C10.9876 267.549 11.8108 267.499 12.6674 267.499C12.9781 267.499 13.2844 267.505 13.5852 267.516Z" fill="white"/>
<g filter="url(#filter6_f_4298_6725)">
<path d="M-8.07373 262.549C-8.07373 262.549 -4.69695 257.364 -0.531492 257.364C3.63397 257.364 7.01074 262.549 7.01074 262.549C7.01074 258.774 3.63397 255.714 -0.531492 255.714C-4.69695 255.714 -8.07373 258.774 -8.07373 262.549Z" fill="#C4C4C4" fill-opacity="0.1"/>
</g>
<g filter="url(#filter7_f_4298_6725)">
<path d="M0.411258 256.185C0.411258 256.185 2.94384 252.178 6.06793 252.178C9.19203 252.178 11.7246 256.185 11.7246 256.185C11.7246 253.322 9.19203 251 6.06793 251C2.94384 251 0.411258 253.322 0.411258 256.185Z" fill="black" fill-opacity="0.1"/>
</g>
<g filter="url(#filter8_f_4298_6725)">
<path d="M25.3949 262.313C25.3949 266.088 15.1014 269.856 19.2668 269.856C23.4323 269.856 26.8091 266.795 26.8091 263.02C26.8091 259.246 23.4323 256.185 19.2668 256.185C19.2668 256.185 25.3949 258.538 25.3949 262.313Z" fill="black" fill-opacity="0.1"/>
</g>
<g filter="url(#filter9_f_4298_6725)">
<path d="M8.89649 259.249C8.89649 259.249 12.2733 254.064 16.4387 254.064C20.6042 254.064 23.981 259.249 23.981 259.249C23.981 255.474 20.6042 252.414 16.4387 252.414C12.2733 252.414 8.89649 255.474 8.89649 259.249Z" fill="black" fill-opacity="0.1"/>
</g>
<g filter="url(#filter10_f_4298_6725)">
<path d="M23.9809 263.256L26.8093 266.556L28.5601 268.526C28.5962 268.566 28.6626 268.532 28.6508 268.479L28.6091 268.291C28.0789 265.906 26.3138 263.985 23.9809 263.256Z" fill="url(#paint8_linear_4298_6725)" fill-opacity="0.1"/>
</g>
<g filter="url(#filter11_f_4298_6725)">
<path d="M28.7436 267.668L4.8663 267.499L-34.0002 269.698L35.8611 270.315C36.4806 270.321 36.9001 269.686 36.6524 269.118L28.7436 267.668Z" fill="url(#paint9_linear_4298_6725)" fill-opacity="0.1"/>
</g>
<path fill-rule="evenodd" clip-rule="evenodd" d="M274.053 236.036C271.12 239.078 266.808 241 262 241C253.163 241 246 234.508 246 226.5C246 219.727 251.124 214.039 258.05 212.445C259.804 211.526 261.835 211 264 211C265.398 211 266.74 211.219 267.988 211.622C269.834 207.725 274.07 205 279 205C285.627 205 291 209.925 291 216C291 216.337 290.983 216.671 290.951 217L291 217C295.246 217 299.017 218.801 301.389 221.586C305.827 222.973 309 226.664 309 231C309 236.523 303.851 241 297.5 241C295.645 241 293.892 240.618 292.341 239.94C291.9 239.98 291.453 240 291 240C287.176 240 283.738 238.54 281.36 236.215L281.191 236.205C279.564 236.106 277.817 236 276 236C275.341 236 274.691 236.014 274.053 236.036Z" fill="white"/>
<g filter="url(#filter12_f_4298_6725)">
<path d="M307 233.5C307 233.5 299.837 222.5 291 222.5C282.163 222.5 275 233.5 275 233.5C275 225.492 282.163 219 291 219C299.837 219 307 225.492 307 233.5Z" fill="#C4C4C4" fill-opacity="0.1"/>
</g>
<g filter="url(#filter13_f_4298_6725)">
<path d="M291 217C291 217 285.627 208.5 279 208.5C272.373 208.5 267 217 267 217C267 210.925 272.373 206 279 206C285.627 206 291 210.925 291 217Z" fill="black" fill-opacity="0.1"/>
</g>
<g filter="url(#filter14_f_4298_6725)">
<path d="M249 225C249 233.008 270.837 241 262 241C253.163 241 246 234.508 246 226.5C246 218.492 253.163 212 262 212C262 212 249 216.992 249 225Z" fill="black" fill-opacity="0.1"/>
</g>
<g filter="url(#filter15_f_4298_6725)">
<path d="M269 218C269 218 265.194 212.69 260.5 212.69C255.806 212.69 252 218 252 218C252 214.134 255.806 211 260.5 211C265.194 211 269 214.134 269 218Z" fill="black" fill-opacity="0.1"/>
</g>
<path d="M251.5 225L301.286 236.15L375 240.7L213 242.5L238.761 235.838C240.742 235.325 242.255 233.725 242.656 231.719C243.176 229.118 245.075 227.008 247.607 226.217L251.5 225Z" fill="url(#paint10_linear_4298_6725)"/>
<g filter="url(#filter16_f_4298_6725)">
<path d="M251.5 225L245.5 232L241.786 236.178C241.709 236.265 241.568 236.192 241.593 236.08L241.682 235.682C242.807 230.621 246.551 226.547 251.5 225Z" fill="url(#paint11_linear_4298_6725)" fill-opacity="0.1"/>
</g>
<path d="M265 228L301.894 233.5L325 235.5L265 238V228Z" fill="url(#paint12_linear_4298_6725)"/>
<g filter="url(#filter17_f_4298_6725)">
<path d="M256 236.5L301.286 236.15L375 240.7L206.5 242L241 239.5L256 236.5Z" fill="url(#paint13_linear_4298_6725)" fill-opacity="0.1"/>
</g>
<g filter="url(#filter18_if_4298_6725)">
<circle cx="287" cy="86" r="38" fill="url(#paint14_radial_4298_6725)"/>
</g>
<g filter="url(#filter19_ii_4298_6725)">
<circle cx="287" cy="86" r="38" fill="#FFCF54"/>
</g>
<path d="M179.5 193L187 202L177 207L188.5 204.5L185.5 215.5L193.5 202L199.5 199.5L193 200L179.5 193Z" fill="white"/>
<path d="M110 215L120 213.5L113.726 217.844C109.475 220.786 104.116 221.635 99.1645 220.149L93 218.3L103 216L96 207L110 215Z" fill="white"/>
<path d="M98.5 247H107.5L98.6533 252.385C96.8989 253.453 94.9656 254.194 92.9471 254.572L80 257L89.5 250.5L81.5 244L98.5 247Z" fill="white"/>
<g filter="url(#filter20_f_4298_6725)">
<path d="M165.842 176.212L18.6508 194.721C10.2666 195.775 3.58622 202.24 2.25764 210.585L-27.1662 395.404C-27.3881 396.797 -27.454 398.211 -27.3628 399.618L-26.813 408.11C-25.6204 426.529 -1.51567 432.602 8.2622 416.947L67.798 321.627C69.8812 318.291 72.9481 315.684 76.5755 314.166L241.511 245.114C256.547 238.819 257.196 217.756 242.576 210.547L176.615 178.022C173.278 176.377 169.533 175.747 165.842 176.212Z" fill="white" fill-opacity="0.03"/>
</g>
<g filter="url(#filter21_f_4298_6725)">
<path d="M380.921 431.938L324.946 294.553C321.758 286.727 313.785 281.948 305.38 282.824L119.243 302.238C117.84 302.384 116.457 302.686 115.121 303.139L107.062 305.867C89.5787 311.787 89.951 336.642 107.603 342.035L215.085 374.871C218.846 376.02 222.158 378.308 224.563 381.419L333.951 522.862C343.923 535.756 364.436 530.932 367.616 514.944L381.96 442.813C382.686 439.164 382.324 435.383 380.921 431.938Z" fill="#759CFF" fill-opacity="0.03"/>
</g>
<g filter="url(#filter22_f_4298_6725)">
<ellipse cx="101.081" cy="754.767" rx="32.9339" ry="8.23347" fill="black" fill-opacity="0.1"/>
</g>
<path d="M86.4439 696.974C86.4439 700.928 74.0351 708.111 68.6855 708.111C63.7883 708.111 59.7399 708.091 59.0901 705.055C58.9739 704.512 59.3505 704.013 59.8602 703.793C68.113 700.229 71.5842 689.814 76.7575 689.814C82.1072 689.814 86.4439 693.02 86.4439 696.974Z" fill="#F5EACC"/>
<path d="M121.208 698.048C121.208 702.002 128.127 708.111 133.477 708.111C138.374 708.111 142.423 708.092 143.072 705.055C143.189 704.512 142.812 704.013 142.3 703.798C134.073 700.346 130.954 691.644 125.782 691.644C120.432 691.644 121.208 698.048 121.208 698.048Z" fill="#F5EACC"/>
<path fill-rule="evenodd" clip-rule="evenodd" d="M111.115 677.218C111.712 677.081 112.334 677.008 112.973 677.008C117.369 677.008 120.96 680.452 121.194 684.79C124.398 685.917 126.695 688.969 126.695 692.559C126.695 693.294 126.599 694.006 126.418 694.684C128.779 696.131 130.354 698.736 130.354 701.708C130.354 703.789 129.582 705.69 128.308 707.14C128.45 707.746 128.525 708.378 128.525 709.027C128.525 713.574 124.839 717.26 120.292 717.26C119.982 717.26 119.677 717.243 119.376 717.21V722.749H82.7829V717.21C82.4823 717.243 82.1769 717.26 81.8674 717.26C77.3202 717.26 73.6339 713.574 73.6339 709.027C73.6339 708.378 73.7091 707.746 73.8512 707.14C72.5775 705.69 71.8052 703.789 71.8052 701.708C71.8052 698.735 73.3805 696.131 75.7419 694.683C75.5615 694.005 75.4653 693.293 75.4653 692.559C75.4653 688.306 78.6903 684.806 82.8284 684.371C83.2631 680.233 86.7631 677.008 91.0164 677.008C91.8339 677.008 92.6235 677.127 93.3689 677.349C94.0993 676.21 95.4536 675.178 96.5056 675.178C97.353 675.178 98.3966 675.848 99.1522 676.703C100.789 675.734 102.699 675.178 104.739 675.178C107.116 675.178 109.317 675.934 111.115 677.218ZM104.796 700.736L104.79 700.793H97.3696L97.363 700.736C97.6819 700.773 98.0063 700.792 98.3353 700.792C99.2978 700.792 100.222 700.627 101.08 700.324C101.939 700.627 102.863 700.792 103.825 700.792C104.154 700.792 104.478 700.773 104.796 700.736Z" fill="#F5EACC"/>
<path d="M73.6363 709.026C73.6363 713.537 77.2641 717.201 81.7613 717.259C81.8323 717.259 81.9028 717.243 81.9664 717.211C82.3981 716.995 82.2463 716.259 81.7717 716.17C78.1545 715.497 75.466 712.909 75.466 709.026C75.466 708.4 75.5357 707.791 75.6678 707.206C75.6771 707.164 75.6662 707.121 75.6384 707.089C74.3909 705.646 73.6363 703.764 73.6363 701.707C73.6363 698.77 75.1743 696.192 77.4889 694.735C77.5381 694.704 77.5618 694.644 77.5475 694.588C77.383 693.939 77.2956 693.259 77.2956 692.559C77.2956 688.616 80.0466 686.008 83.7597 684.788C83.9676 684.72 83.9183 684.325 83.6994 684.325C79.1253 684.325 75.466 688.012 75.466 692.559C75.466 693.259 75.5534 693.939 75.7179 694.588C75.7322 694.644 75.7085 694.704 75.6592 694.735C73.3446 696.192 71.8066 698.77 71.8066 701.707C71.8066 703.764 72.5612 705.646 73.8088 707.089C73.8366 707.121 73.8474 707.164 73.8381 707.206C73.706 707.791 73.6363 708.4 73.6363 709.026Z" fill="#F5E5BB"/>
<path d="M129.44 709.026C129.44 713.537 125.813 717.201 121.315 717.259C121.244 717.259 121.174 717.243 121.11 717.211C120.679 716.995 120.83 716.259 121.305 716.17C124.922 715.497 127.611 712.909 127.611 709.026C127.611 708.4 127.541 707.791 127.409 707.206C127.4 707.164 127.41 707.121 127.438 707.089C128.686 705.646 129.44 703.764 129.44 701.707C129.44 698.77 127.902 696.192 125.588 694.735C125.539 694.704 125.515 694.644 125.529 694.588C125.694 693.939 125.781 693.259 125.781 692.559C125.781 688.616 123.03 686.008 119.317 684.788C119.109 684.72 119.158 684.325 119.377 684.325C123.951 684.325 127.611 688.012 127.611 692.559C127.611 693.259 127.523 693.939 127.359 694.588C127.344 694.644 127.368 694.704 127.417 694.735C129.732 696.192 131.27 698.77 131.27 701.707C131.27 703.764 130.515 705.646 129.268 707.089C129.24 707.121 129.229 707.164 129.239 707.206C129.371 707.791 129.44 708.4 129.44 709.026Z" fill="#F5E5BB"/>
<path fill-rule="evenodd" clip-rule="evenodd" d="M103.305 690.617C104.007 689.065 105.569 687.985 107.383 687.985C109.053 687.985 110.51 688.901 111.278 690.258C111.467 690.234 111.66 690.221 111.856 690.221C113.527 690.221 114.984 691.138 115.751 692.495C115.94 692.471 116.133 692.459 116.329 692.459C118.799 692.459 120.801 694.461 120.801 696.931C120.801 699.401 118.799 701.403 116.329 701.403H116.328C116.328 703.873 114.325 705.875 111.856 705.875C110.935 705.875 110.08 705.597 109.368 705.12C108.757 706.863 107.098 708.112 105.147 708.112C103.476 708.112 102.019 707.196 101.251 705.838C101.062 705.863 100.87 705.875 100.675 705.875C100.479 705.875 100.287 705.863 100.098 705.838C99.3299 707.196 97.8729 708.112 96.2019 708.112C94.3992 708.112 92.8456 707.046 92.1377 705.509C91.6797 705.744 91.1607 705.876 90.6108 705.876C89.1486 705.876 87.9049 704.941 87.4457 703.635C87.3832 703.638 87.3203 703.639 87.2571 703.639C84.7871 703.639 82.7847 701.637 82.7847 699.167C82.7847 697.496 83.7005 696.04 85.0575 695.272C85.0331 695.083 85.0205 694.89 85.0205 694.694C85.0205 692.224 87.0229 690.221 89.493 690.221C89.5563 690.221 89.6193 690.223 89.6819 690.225C90.1414 688.921 91.3848 687.985 92.8466 687.985C93.7059 687.985 94.4897 688.309 95.0832 688.84C95.6766 688.309 96.4604 687.985 97.3197 687.985C98.7815 687.985 100.025 688.921 100.484 690.225C100.548 690.223 100.611 690.221 100.675 690.221C101.489 690.221 102.253 690.439 102.911 690.819C103.039 690.746 103.17 690.678 103.305 690.617Z" fill="#F5E5BB"/>
<ellipse cx="92.848" cy="697.134" rx="2.74449" ry="3.65932" fill="#474747"/>
<ellipse cx="109.315" cy="697.134" rx="2.74449" ry="3.65932" fill="#474747"/>
<g filter="url(#filter23_f_4298_6725)">
<circle cx="85.5287" cy="703.537" r="4.57415" fill="#FFB2B2" fill-opacity="0.3"/>
</g>
<g filter="url(#filter24_f_4298_6725)">
<circle cx="116.633" cy="703.537" r="4.57415" fill="#FFB2B2" fill-opacity="0.3"/>
</g>
<path fill-rule="evenodd" clip-rule="evenodd" d="M100.921 703.453C100.916 703.453 100.911 703.453 100.906 703.453C100.906 704.004 100.126 704.451 99.1634 704.451C98.2011 704.451 97.4209 704.004 97.4209 703.453C97.4209 702.956 98.0555 702.544 98.886 702.468C98.8396 702.358 98.8149 702.242 98.8149 702.123C98.8149 701.388 99.7511 700.792 100.906 700.792C102.061 700.792 102.997 701.388 102.997 702.123C102.997 702.365 102.895 702.592 102.717 702.788H103.868C104.349 702.788 104.74 703.16 104.74 703.62C104.74 704.079 104.349 704.451 103.868 704.451H102.145C101.526 704.451 101.014 704.019 100.921 703.453Z" fill="#474747"/>
<path fill-rule="evenodd" clip-rule="evenodd" d="M80.955 719.089C80.955 719.12 80.9554 719.15 80.9561 719.181C79.8234 720.336 79.125 721.918 79.125 723.664C79.125 724.6 79.3257 725.489 79.6865 726.29C79.3309 726.854 79.1252 727.522 79.1252 728.238C79.1252 728.805 79.254 729.342 79.484 729.82C78.1424 730.994 77.2951 732.719 77.2951 734.642C77.2951 735.493 77.4611 736.305 77.7624 737.048C76.3589 738.222 75.4663 739.987 75.4663 741.961C75.4663 744.58 77.0386 746.832 79.2909 747.824C79.1823 748.291 79.125 748.778 79.125 749.278C79.125 752.815 81.992 755.682 85.5288 755.682C86.8894 755.682 88.1509 755.258 89.1882 754.534C90.2255 755.258 91.4871 755.682 92.8477 755.682C94.8514 755.682 96.6401 754.762 97.8144 753.321C98.7151 755.767 101.067 757.512 103.826 757.512C106.445 757.512 108.697 755.94 109.689 753.687C110.157 753.796 110.644 753.853 111.145 753.853C112.936 753.853 114.556 753.117 115.718 751.931C116.881 753.117 118.5 753.853 120.292 753.853C123.829 753.853 126.696 750.986 126.696 747.449C126.696 746.599 126.53 745.787 126.229 745.044C127.633 743.87 128.526 742.104 128.526 740.131C128.526 737.511 126.953 735.259 124.701 734.267C124.81 733.8 124.867 733.312 124.867 732.812C124.867 731.066 124.169 729.484 123.036 728.329C123.037 728.299 123.037 728.268 123.037 728.238C123.037 727.108 122.696 726.057 122.11 725.184C122.686 724.537 123.037 723.684 123.037 722.749C123.037 722.083 122.859 721.458 122.547 720.919C122.859 720.381 123.037 719.756 123.037 719.089C123.037 717.068 121.399 715.43 119.378 715.43C117.357 715.43 115.718 717.068 115.718 719.089C115.718 719.756 115.897 720.381 116.208 720.919C116.182 720.965 116.157 721.011 116.132 721.057C115.704 720.967 115.259 720.919 114.803 720.919C114.008 720.919 113.247 721.064 112.544 721.329C109.97 718.795 106.6 717.26 102.911 717.26C99.2221 717.26 95.8518 718.795 93.2776 721.329C92.6642 721.098 92.0059 720.958 91.3194 720.926C90.6487 719.51 89.474 718.379 88.0269 717.766C87.4964 716.399 86.1685 715.43 84.6143 715.43C82.5933 715.43 80.955 717.068 80.955 719.089Z" fill="#F5EACC"/>
<path d="M88.2734 670.603C88.2734 669.088 89.5022 667.859 91.0179 667.859C92.5337 667.859 93.7624 669.088 93.7624 670.603V684.326H88.2734V670.603Z" fill="url(#paint15_linear_4298_6725)"/>
<path d="M106.57 670.603C106.57 669.088 107.799 667.859 109.315 667.859C110.831 667.859 112.059 669.088 112.059 670.603V684.326H106.57V670.603Z" fill="url(#paint16_linear_4298_6725)"/>
<circle cx="4.57415" cy="4.57415" r="4.57415" transform="matrix(-1 0 0 1 115.719 678.836)" fill="#F5EACC"/>
<circle cx="88.2741" cy="684.326" r="3.65932" fill="#F5EACC"/>
<circle cx="4.57415" cy="4.57415" r="4.57415" transform="matrix(-1 0 0 1 108.4 678.836)" fill="#F5EACC"/>
<circle cx="92.848" cy="683.411" r="2.74449" fill="#F5EACC"/>
<path fill-rule="evenodd" clip-rule="evenodd" d="M231.419 460.877C231.845 460.184 232.089 459.382 232.089 458.526C232.089 455.911 229.817 453.792 227.014 453.792C224.211 453.792 221.939 455.911 221.939 458.526C221.939 459.382 222.182 460.184 222.608 460.877C200.981 462.846 184.107 479.155 184.107 498.981C184.107 520.136 203.317 537.285 227.014 537.285C250.71 537.285 269.92 520.136 269.92 498.981C269.92 479.155 253.046 462.846 231.419 460.877Z" fill="#B54709"/>
<path d="M184.884 498H271.116L281.989 667.24C282.14 669.585 280.754 671.756 278.569 672.598Lnan nanLnan nanL278.569 672.598C246.012 685.134 209.988 685.134 177.431 672.598Lnan nanLnan nanL177.431 672.598C175.246 671.756 173.86 669.585 174.011 667.24L184.884 498Z" fill="#FDCF58"/>
<g filter="url(#filter25_d_4298_6725)">
<path d="M181.422 496.029C181.457 495.734 181.746 495.518 182.075 495.54Lnan nanL182.075 495.54C212.379 497.576 242.809 497.576 273.113 495.54Lnan nanL273.113 495.54C273.442 495.518 273.731 495.734 273.766 496.029L274.555 502.66C274.593 502.981 274.329 503.266 273.971 503.29Lnan nanL273.971 503.29C243.094 505.324 212.094 505.324 181.217 503.29Lnan nanL181.217 503.29C180.859 503.266 180.594 502.981 180.633 502.66L181.422 496.029Z" fill="#7C2D00"/>
</g>
<g filter="url(#filter26_d_4298_6725)">
<path d="M175.613 586.814C175.658 586.295 176.144 585.922 176.673 586L181.278 586.678C211.596 591.143 242.432 591.143 272.75 586.678L277.354 586C277.884 585.922 278.37 586.295 278.415 586.814L279.194 595.935C279.234 596.407 278.891 596.828 278.409 596.898L271.951 597.832C242.157 602.142 211.871 602.142 182.077 597.832L175.619 596.898C175.137 596.828 174.793 596.407 174.834 595.935L175.613 586.814Z" fill="#7C2D00"/>
</g>
<g filter="url(#filter27_i_4298_6725)">
<path d="M217.766 537.232C217.766 531.553 222.439 526.95 228.203 526.95Lnan nanL228.203 526.95C233.967 526.95 238.639 531.553 238.639 537.232V559.174C238.639 559.309 238.528 559.419 238.391 559.419H218.015C217.877 559.419 217.766 559.309 217.766 559.174V537.232Z" fill="#DCE2FF"/>
</g>
<path fill-rule="evenodd" clip-rule="evenodd" d="M236.756 557.491V537.13C236.756 532.46 232.914 528.675 228.173 528.675C223.433 528.675 219.591 532.46 219.591 537.13V557.491H236.756ZM228.173 526.848C222.409 526.848 217.737 531.452 217.737 537.13V559.073C217.737 559.208 217.848 559.318 217.986 559.318H238.361C238.499 559.318 238.61 559.208 238.61 559.073V537.13C238.61 531.452 233.937 526.848 228.173 526.848Z" fill="#7C2D00"/>
<path fill-rule="evenodd" clip-rule="evenodd" d="M227.279 541.879V526.848H229.127V541.879H238.06V543.737H229.127V559.318H227.279V543.737H218.346V541.879H227.279Z" fill="#7C2D00"/>
<path d="M214.178 557.543C214.178 557.482 214.254 557.436 214.337 557.447C223.303 557.543 232.402 557.543 241.85 557.447C241.932 557.436 242.009 557.482 242.009 557.543V561.063C242.009 561.11 241.963 561.15 241.899 561.159C232.775 562.393 223.412 562.393 214.288 561.159C214.224 561.15 214.178 561.11 214.178 561.063V557.543Z" fill="#7C2D00"/>
<g filter="url(#filter28_i_4298_6725)">
<path d="M211.938 639.311C211.938 630.997 218.947 624.257 227.593 624.257Lnan nanL227.593 624.257C236.239 624.257 243.248 630.997 243.248 639.311V672.297C243.248 672.477 243.111 672.631 242.925 672.658L238.111 673.359C231.139 674.375 224.048 674.375 217.076 673.359L212.261 672.658C212.076 672.631 211.938 672.477 211.938 672.297V639.311Z" fill="#BC4F00"/>
</g>
<g filter="url(#filter29_i_4298_6725)">
<path fill-rule="evenodd" clip-rule="evenodd" d="M239.453 669.473V639.311C239.453 633.012 234.143 627.906 227.593 627.906C221.043 627.906 215.734 633.012 215.734 639.311V669.473L217.644 669.751C224.239 670.712 230.948 670.712 237.543 669.751L239.453 669.473ZM227.593 624.257C218.947 624.257 211.938 630.997 211.938 639.311V672.297C211.938 672.477 212.076 672.631 212.261 672.658L217.076 673.359C224.048 674.375 231.139 674.375 238.111 673.359L242.925 672.658C243.111 672.631 243.248 672.477 243.248 672.297V639.311C243.248 630.997 236.239 624.257 227.593 624.257Z" fill="#9D3A02"/>
</g>
<path d="M221.216 653.248C221.216 653.888 220.697 654.407 220.056 654.407C219.416 654.407 218.896 653.888 218.896 653.248C218.896 652.607 219.416 652.088 220.056 652.088C220.697 652.088 221.216 652.607 221.216 653.248Z" fill="#EEEEEE"/>
<path d="M236.32 485.203C236.32 489.686 232.686 493.32 228.203 493.32C223.72 493.32 220.085 489.686 220.085 485.203C220.085 480.72 223.72 477.086 228.203 477.086C232.686 477.086 236.32 480.72 236.32 485.203Z" fill="#FADF9D"/>
<path d="M247.24 465.76L238.16 456.679C236.352 454.872 236.352 451.941 238.16 450.134L256.623 431.671L278.358 409.935L300.094 388.199L318.557 369.736C320.364 367.929 323.295 367.929 325.102 369.736L334.183 378.817L343.264 387.898C345.071 389.705 345.071 392.635 343.264 394.443L324.801 412.906L303.065 434.642L281.329 456.378L262.866 474.841C261.059 476.648 258.128 476.648 256.321 474.841L247.24 465.76Z" fill="#FCFCFC"/>
<path fill-rule="evenodd" clip-rule="evenodd" d="M247.24 467.723L228.832 486.132L226.869 484.168L245.277 465.76L237.178 457.661C234.828 455.311 234.828 451.502 237.178 449.152L317.575 368.755C319.925 366.405 323.734 366.405 326.084 368.755L344.246 386.916C346.595 389.265 346.596 393.075 344.246 395.425L263.848 475.822C261.499 478.172 257.689 478.172 255.339 475.822L247.24 467.723ZM249.204 465.76L257.303 473.859C258.568 475.124 260.619 475.124 261.885 473.859L279.366 456.378L268.976 445.988L249.204 465.76ZM270.94 444.024L281.329 454.414L301.102 434.642L290.712 424.252L270.94 444.024ZM288.748 422.288L268.976 442.061L258.586 431.671L278.358 411.899L288.748 422.288ZM292.675 422.288L303.065 432.678L322.837 412.906L312.447 402.516L292.675 422.288ZM310.484 400.553L290.712 420.325L280.322 409.935L300.094 390.163L310.484 400.553ZM314.411 400.553L324.801 410.942L342.282 393.461C343.547 392.196 343.547 390.145 342.282 388.879L334.183 380.781L314.411 400.553ZM332.219 378.817L312.447 398.589L302.058 388.199L319.539 370.718C320.804 369.453 322.855 369.453 324.121 370.718L332.219 378.817ZM256.623 433.634L267.013 444.024L247.24 463.796L239.142 455.697C237.876 454.432 237.876 452.381 239.142 451.116L256.623 433.634Z" fill="#A36200"/>
<path d="M208.76 504.24L199.679 495.159C197.872 493.352 194.941 493.352 193.134 495.159L174.671 513.622L152.935 535.358L131.2 557.094L112.737 575.557C110.929 577.364 110.929 580.295 112.737 582.102L121.817 591.183L130.898 600.264C132.705 602.071 135.636 602.071 137.443 600.264L155.906 581.801L177.642 560.065L199.378 538.329L217.841 519.866C219.648 518.059 219.648 515.128 217.841 513.321L208.76 504.24Z" fill="#FCFCFC"/>
<path fill-rule="evenodd" clip-rule="evenodd" d="M210.723 504.24L229.131 485.832L227.168 483.868L208.76 502.277L200.661 494.178C198.311 491.828 194.501 491.828 192.152 494.178L111.754 574.575C109.405 576.925 109.405 580.734 111.754 583.084L129.916 601.245C132.265 603.595 136.075 603.595 138.425 601.246L218.822 520.848C221.172 518.498 221.172 514.689 218.822 512.339L210.723 504.24ZM208.76 506.204L216.859 514.303C218.124 515.568 218.124 517.619 216.859 518.884L199.377 536.366L188.988 525.976L208.76 506.204ZM187.024 527.939L197.414 538.329L177.642 558.101L167.252 547.711L187.024 527.939ZM165.288 545.748L185.06 525.976L174.671 515.586L154.899 535.358L165.288 545.748ZM165.288 549.675L175.678 560.065L155.906 579.837L145.516 569.447L165.288 549.675ZM143.553 567.484L163.325 547.711L152.935 537.322L133.163 557.094L143.553 567.484ZM143.553 571.411L153.942 581.801L136.461 599.282C135.196 600.547 133.144 600.547 131.879 599.282L123.781 591.183L143.553 571.411ZM121.817 589.219L141.589 569.447L131.199 559.057L113.718 576.539C112.453 577.804 112.453 579.855 113.718 581.12L121.817 589.219ZM176.634 513.622L187.024 524.012L206.796 504.24L198.697 496.141C197.432 494.876 195.381 494.876 194.115 496.141L176.634 513.622Z" fill="#A36200"/>
<path d="M247.241 504.24L256.321 495.159C258.129 493.352 261.059 493.352 262.867 495.159L281.33 513.622L303.065 535.358L324.801 557.094L343.264 575.557C345.071 577.364 345.071 580.295 343.264 582.102L334.183 591.183L325.103 600.264C323.295 602.071 320.365 602.071 318.557 600.264L300.094 581.801L278.358 560.065L256.623 538.329L238.16 519.866C236.352 518.059 236.352 515.128 238.16 513.321L247.241 504.24Z" fill="#FCFCFC"/>
<path fill-rule="evenodd" clip-rule="evenodd" d="M245.277 504.24L226.869 485.832L228.832 483.868L247.24 502.277L255.339 494.178C257.689 491.828 261.499 491.828 263.848 494.178L344.246 574.575C346.595 576.925 346.595 580.734 344.246 583.084L326.084 601.245C323.735 603.595 319.925 603.595 317.575 601.246L237.178 520.848C234.828 518.498 234.828 514.689 237.178 512.339L245.277 504.24ZM247.24 506.204L239.141 514.303C237.876 515.568 237.876 517.619 239.141 518.884L256.623 536.366L267.012 525.976L247.24 506.204ZM268.976 527.939L258.586 538.329L278.358 558.101L288.748 547.711L268.976 527.939ZM290.712 545.748L270.94 525.976L281.329 515.586L301.101 535.358L290.712 545.748ZM290.712 549.675L280.322 560.065L300.094 579.837L310.484 569.447L290.712 549.675ZM312.447 567.484L292.675 547.711L303.065 537.322L322.837 557.094L312.447 567.484ZM312.447 571.411L302.058 581.801L319.539 599.282C320.804 600.547 322.856 600.547 324.121 599.282L332.219 591.183L312.447 571.411ZM334.183 589.219L314.411 569.447L324.801 559.057L342.282 576.539C343.547 577.804 343.547 579.855 342.282 581.12L334.183 589.219ZM279.366 513.622L268.976 524.012L249.204 504.24L257.303 496.141C258.568 494.876 260.619 494.876 261.885 496.141L279.366 513.622Z" fill="#A36200"/>
<path d="M208.76 465.76L217.841 456.679C219.648 454.872 219.648 451.941 217.841 450.134L199.378 431.671L177.642 409.935L155.907 388.199L137.444 369.736C135.636 367.929 132.706 367.929 130.898 369.736L121.818 378.817L112.737 387.898C110.929 389.705 110.929 392.635 112.737 394.443L131.2 412.906L152.935 434.642L174.671 456.377L193.134 474.841C194.942 476.648 197.872 476.648 199.679 474.841L208.76 465.76Z" fill="#FCFCFC"/>
<path fill-rule="evenodd" clip-rule="evenodd" d="M208.76 467.724L227.168 486.132L229.132 484.168L210.724 465.76L218.823 457.661C221.172 455.312 221.172 451.502 218.823 449.152L138.425 368.755C136.076 366.405 132.266 366.405 129.916 368.755L111.755 386.916C109.405 389.266 109.405 393.075 111.755 395.425L192.152 475.823C194.502 478.172 198.311 478.172 200.661 475.823L208.76 467.724ZM206.796 465.76L198.697 473.859C197.432 475.124 195.381 475.124 194.116 473.859L176.635 456.378L187.024 445.988L206.796 465.76ZM185.061 444.024L174.671 454.414L154.899 434.642L165.289 424.252L185.061 444.024ZM167.252 422.289L187.024 442.061L197.414 431.671L177.642 411.899L167.252 422.289ZM163.325 422.289L152.935 432.679L133.163 412.906L143.553 402.517L163.325 422.289ZM145.517 400.553L165.289 420.325L175.679 409.935L155.906 390.163L145.517 400.553ZM141.589 400.553L131.2 410.943L113.718 393.461C112.453 392.196 112.453 390.145 113.718 388.88L121.817 380.781L141.589 400.553ZM123.781 378.817L143.553 398.59L153.943 388.2L136.462 370.719C135.196 369.453 133.145 369.453 131.88 370.719L123.781 378.817ZM199.378 433.635L188.988 444.024L208.76 463.797L216.859 455.698C218.124 454.432 218.124 452.381 216.859 451.116L199.378 433.635Z" fill="#A36200"/>
<path d="M233.972 485.102C233.972 488.304 231.376 490.9 228.174 490.9C224.971 490.9 222.375 488.304 222.375 485.102C222.375 481.899 224.971 479.303 228.174 479.303C231.376 479.303 233.972 481.899 233.972 485.102Z" fill="#FDCF58"/>
<path d="M280.579 669.878C280.316 667.908 279.572 662.962 279.134 660.773L279.66 660.686C280.229 664.071 281.349 670.964 281.279 671.454C281.615 669.732 282.636 665.807 283.643 664.013L284.124 664.275C283.512 665.749 282.172 669.3 281.717 671.716L281.542 673.642L280.929 673.774C280.649 670.832 279.558 668.2 279.047 667.252L279.485 666.989C279.59 667.059 280.243 668.973 280.579 669.878Z" fill="#82A115"/>
<path d="M274.889 658.673C275.064 657.972 275.984 658.31 276.509 658.454C275.353 658.138 275.59 657.666 275.809 657.447C276.019 657.237 276.421 657.272 276.596 657.316C276.421 657.105 276.582 656.907 276.684 656.834C277.034 656.554 277.414 656.717 277.559 656.834C277.314 656.344 277.807 656.105 278.085 656.046C278.54 655.871 278.77 656.236 278.829 656.44C279.004 656.055 279.427 656.017 279.617 656.046C279.897 656.046 279.879 656.309 279.836 656.44C279.996 656.265 280.422 655.959 280.842 656.134C281.235 656.363 281.047 656.788 280.878 657.009C281.386 656.395 281.794 656.546 281.937 656.703C282.357 657.228 281.82 657.68 281.499 657.841C282.199 657.491 282.462 657.782 282.506 657.972C282.611 658.743 281.586 658.935 281.061 658.935C281.972 658.97 282.112 659.271 282.068 659.417C281.893 660.047 280.974 660 280.536 659.898C281.061 660.318 280.872 660.598 280.711 660.686C280.256 661.001 279.85 660.671 279.704 660.467C279.844 661.027 279.588 661.226 279.442 661.255C279.091 661.395 278.916 660.934 278.873 660.686C278.662 661.246 278.318 661.416 278.172 661.43C277.577 661.465 277.72 660.803 277.866 660.467C276.99 661.378 276.392 661.255 276.202 661.08C275.922 660.835 276.436 660.307 276.728 660.073C275.817 660.704 275.283 660.423 275.152 660.205C274.889 659.679 275.371 659.446 275.721 659.373C274.951 659.373 274.846 658.906 274.889 658.673Z" fill="#FEE300"/>
<path d="M276.071 659.942C275.756 659.592 276.494 659.242 276.903 659.11C275.887 659.355 275.546 658.979 275.502 658.76C275.467 658.375 276.188 658.366 276.553 658.41C275.957 658.2 275.984 657.885 276.071 657.753C276.281 657.298 276.83 657.564 277.078 657.753C276.833 657.403 276.91 657.209 277.034 657.053C277.209 656.834 278.158 657.345 278.654 657.666L278.829 656.965C279.039 656.44 279.325 656.396 279.442 656.44C279.652 656.475 279.704 656.834 279.704 657.009C279.984 656.554 280.346 656.498 280.492 656.528C280.877 656.668 280.653 657.14 280.492 657.359C281.123 656.834 281.426 656.965 281.499 657.097C281.779 657.447 281.061 657.943 280.667 658.147C281.438 657.937 281.63 658.235 281.63 658.41C281.63 658.795 280.726 658.804 280.273 658.76C280.834 658.83 280.857 659.081 280.799 659.198C280.624 659.583 279.909 659.358 279.573 659.198C280.238 659.548 280.113 659.84 279.967 659.942C279.442 660.222 279.019 659.65 278.873 659.329C279.013 659.889 278.639 660.234 278.435 660.336C277.875 660.546 277.997 660.015 278.129 659.723C277.883 660.108 277.53 660.234 277.384 660.248C276.894 660.178 277.209 659.723 277.428 659.504C276.658 660.135 276.203 660.059 276.071 659.942Z" fill="#FBD000"/>
<path d="M276.946 657.885C277.086 657.604 277.5 657.914 277.69 658.103L278.74 658.235L279.309 657.534C279.379 657.079 279.718 657.053 279.878 657.097C280.11 657.229 279.892 657.631 279.732 657.847C280.136 657.325 280.406 657.332 280.491 657.403C280.771 657.718 280.287 658.089 280.01 658.235C280.465 658.06 280.637 658.249 280.666 658.366C280.666 658.681 279.995 658.702 279.66 658.672C280.045 658.707 280.112 658.95 280.097 659.066C279.992 659.277 279.557 659.125 279.353 659.023C279.633 659.233 279.528 659.431 279.441 659.504C279.231 659.714 278.974 659.417 278.872 659.241C278.767 659.767 278.536 659.84 278.434 659.811C278.154 659.741 278.288 659.373 278.39 659.198C278.04 659.758 277.807 659.811 277.734 659.767C277.488 659.662 277.719 659.314 277.865 659.154C277.34 659.574 276.975 659.504 276.858 659.417C276.753 659.312 277.077 659.052 277.252 658.935C276.622 658.935 276.493 658.672 276.508 658.541C276.539 658.229 276.943 658.311 277.207 658.415C276.845 658.24 276.878 657.993 276.946 657.885Z" fill="#F8B800"/>
<path d="M277.69 659.767C277.935 659.837 278.23 659.446 278.347 659.241C278.662 658.856 278.42 658.789 278.259 658.804C278.154 658.874 277.924 659.095 277.821 659.198C277.541 659.513 277.617 659.708 277.69 659.767Z" fill="#F3A801"/>
<path d="M279.398 659.067C279.888 659.242 280.069 659.14 280.098 659.067C280.098 658.95 280.011 658.716 279.704 658.673L279.004 658.498C278.989 658.571 279.048 658.787 279.398 659.067Z" fill="#F3A801"/>
<path d="M279.311 657.534C279.416 657.044 279.734 657.038 279.88 657.097C279.967 657.14 280.099 657.315 279.748 657.841C279.632 658.001 279.372 658.322 279.267 658.322C279.197 658.252 279.136 657.709 279.311 657.534Z" fill="#F3A801"/>
<path d="M278.347 657.315L278.347 657.315C278.242 657.28 277.939 657.213 277.822 657.184C277.857 656.834 278.099 656.892 278.216 656.965C278.286 656.685 278.537 656.878 278.653 657.009C278.478 657.009 278.391 657.213 278.347 657.315Z" fill="#DA9400"/>
<path d="M278.216 656.965C277.909 656.79 277.822 657.053 277.822 657.184C277.866 657.315 278.207 657.385 278.347 657.315C278.318 657.213 278.251 657 278.216 656.965Z" fill="#EBA218"/>
<path d="M277.69 657.101C277.821 657.101 277.909 657.261 277.909 657.363C277.938 657.29 278.014 657.153 278.084 657.188C278.113 657.188 278.189 657.215 278.259 657.32C278.274 657.247 278.323 657.134 278.39 657.101C278.42 657.086 278.487 657.066 278.522 657.101C278.522 657.028 278.539 656.882 278.609 656.882C278.638 656.853 278.723 656.812 278.828 656.882C278.959 656.984 279.231 657.328 279.266 657.889C279.266 658.107 279.31 658.725 278.784 658.988C277.865 659.206 277.5 658.02 277.471 657.538C277.471 657.223 277.603 657.101 277.69 657.101Z" fill="#FBC501"/>
<path d="M278.041 657.193C277.953 657.193 277.909 657.281 277.909 657.363C277.865 657.787 277.962 658.708 278.697 659.023C278.653 658.585 278.464 657.733 278.303 657.368C278.259 657.281 278.084 657.149 278.041 657.193Z" fill="#F8B600"/>
<path d="M278.566 656.887C278.478 656.935 278.478 657.105 278.522 657.149C278.828 657.499 278.96 658.454 278.96 658.891C279.66 658.489 279.179 657.281 278.916 656.97C278.785 656.755 278.631 656.851 278.566 656.887Z" fill="#F8B600"/>
<path d="M287.386 662.532C287.231 661.911 286.415 662.211 285.949 662.338C286.974 662.059 286.765 661.639 286.571 661.445C286.384 661.259 286.027 661.29 285.872 661.329C286.027 661.142 285.884 660.966 285.794 660.901C285.483 660.653 285.147 660.798 285.017 660.901C285.235 660.466 284.797 660.254 284.551 660.202C284.147 660.047 283.943 660.371 283.891 660.552C283.736 660.21 283.36 660.177 283.192 660.202C282.943 660.202 282.959 660.435 282.998 660.552C282.855 660.397 282.477 660.125 282.105 660.28C281.756 660.483 281.923 660.86 282.073 661.057C281.622 660.511 281.26 660.646 281.134 660.785C280.761 661.251 281.237 661.652 281.522 661.795C280.901 661.484 280.668 661.743 280.629 661.911C280.536 662.595 281.445 662.765 281.911 662.765C281.103 662.796 280.979 663.063 281.017 663.193C281.173 663.752 281.988 663.71 282.377 663.62C281.911 663.993 282.079 664.241 282.221 664.319C282.625 664.598 282.985 664.306 283.114 664.125C282.99 664.622 283.218 664.798 283.347 664.824C283.658 664.948 283.813 664.539 283.852 664.319C284.039 664.816 284.344 664.966 284.474 664.979C285.002 665.01 284.875 664.422 284.745 664.125C285.522 664.932 286.053 664.824 286.221 664.668C286.47 664.451 286.014 663.982 285.755 663.775C286.563 664.334 287.037 664.086 287.153 663.892C287.386 663.426 286.959 663.218 286.648 663.154C287.332 663.154 287.425 662.74 287.386 662.532Z" fill="#FEE300"/>
<path d="M286.338 663.659C286.617 663.348 285.962 663.037 285.6 662.921C286.501 663.138 286.804 662.804 286.843 662.61C286.874 662.268 286.234 662.261 285.911 662.299C286.439 662.113 286.415 661.833 286.338 661.717C286.151 661.313 285.665 661.549 285.445 661.717C285.662 661.406 285.594 661.234 285.483 661.096C285.328 660.901 284.487 661.354 284.047 661.639L283.891 661.018C283.705 660.552 283.451 660.513 283.348 660.552C283.161 660.583 283.115 660.901 283.115 661.057C282.866 660.653 282.545 660.604 282.416 660.63C282.074 660.754 282.273 661.173 282.416 661.367C281.856 660.901 281.587 661.018 281.522 661.134C281.274 661.445 281.911 661.885 282.26 662.066C281.577 661.88 281.406 662.144 281.406 662.299C281.406 662.641 282.209 662.649 282.61 662.61C282.113 662.672 282.092 662.895 282.144 662.998C282.299 663.34 282.933 663.141 283.231 662.998C282.641 663.309 282.752 663.568 282.882 663.659C283.348 663.907 283.723 663.4 283.852 663.115C283.728 663.612 284.06 663.917 284.241 664.008C284.738 664.194 284.629 663.723 284.513 663.464C284.73 663.806 285.043 663.917 285.173 663.93C285.608 663.868 285.328 663.464 285.134 663.27C285.817 663.829 286.221 663.762 286.338 663.659Z" fill="#FBD000"/>
<path d="M285.561 661.834C285.437 661.585 285.069 661.859 284.901 662.028L283.969 662.144L283.464 661.523C283.402 661.119 283.101 661.096 282.959 661.135C282.754 661.252 282.947 661.608 283.089 661.801C282.73 661.337 282.491 661.343 282.415 661.406C282.167 661.686 282.597 662.015 282.843 662.144C282.439 661.989 282.286 662.157 282.26 662.261C282.26 662.54 282.855 662.558 283.153 662.533C282.811 662.564 282.752 662.779 282.765 662.882C282.858 663.068 283.244 662.934 283.425 662.843C283.176 663.03 283.27 663.206 283.347 663.27C283.534 663.457 283.762 663.193 283.852 663.037C283.945 663.503 284.15 663.568 284.241 663.542C284.489 663.48 284.37 663.154 284.279 662.999C284.59 663.496 284.797 663.542 284.862 663.503C285.079 663.41 284.875 663.102 284.745 662.96C285.211 663.333 285.535 663.27 285.639 663.193C285.732 663.1 285.444 662.869 285.289 662.766C285.848 662.766 285.962 662.533 285.949 662.416C285.922 662.139 285.563 662.212 285.329 662.304C285.65 662.149 285.621 661.93 285.561 661.834Z" fill="#F8B800"/>
<path d="M284.901 663.503C284.684 663.565 284.422 663.218 284.318 663.037C284.039 662.695 284.254 662.636 284.396 662.649C284.489 662.711 284.694 662.908 284.784 662.998C285.033 663.278 284.966 663.451 284.901 663.503Z" fill="#F3A801"/>
<path d="M283.386 662.882C282.951 663.037 282.791 662.947 282.765 662.882C282.765 662.778 282.842 662.571 283.114 662.532L283.736 662.377C283.748 662.442 283.697 662.633 283.386 662.882Z" fill="#F3A801"/>
<path d="M283.464 661.523C283.371 661.088 283.088 661.083 282.959 661.135C282.881 661.174 282.765 661.329 283.076 661.795C283.179 661.937 283.41 662.222 283.503 662.222C283.565 662.16 283.619 661.679 283.464 661.523Z" fill="#F3A801"/>
<path d="M284.319 661.329L284.319 661.329C284.412 661.298 284.681 661.238 284.785 661.212C284.754 660.902 284.539 660.953 284.435 661.018C284.373 660.77 284.15 660.94 284.047 661.057C284.202 661.057 284.28 661.238 284.319 661.329Z" fill="#DA9400"/>
<path d="M284.435 661.018C284.707 660.863 284.785 661.096 284.785 661.212C284.746 661.329 284.443 661.391 284.319 661.329C284.345 661.238 284.404 661.049 284.435 661.018Z" fill="#EBA218"/>
<path d="M284.902 661.138C284.785 661.138 284.707 661.281 284.707 661.371C284.681 661.307 284.614 661.185 284.552 661.216C284.526 661.216 284.459 661.239 284.397 661.333C284.384 661.268 284.34 661.168 284.28 661.138C284.254 661.125 284.195 661.107 284.164 661.138C284.164 661.074 284.148 660.944 284.086 660.944C284.06 660.918 283.985 660.882 283.892 660.944C283.775 661.035 283.535 661.34 283.504 661.837C283.504 662.032 283.465 662.579 283.931 662.812C284.746 663.006 285.07 661.954 285.096 661.527C285.096 661.247 284.979 661.138 284.902 661.138Z" fill="#FBC501"/>
<path d="M284.589 661.22C284.667 661.22 284.706 661.297 284.706 661.371C284.745 661.746 284.659 662.564 284.007 662.843C284.046 662.455 284.214 661.699 284.356 661.375C284.395 661.297 284.551 661.181 284.589 661.22Z" fill="#F8B600"/>
<path d="M284.123 660.948C284.201 660.991 284.201 661.142 284.162 661.181C283.89 661.492 283.774 662.338 283.774 662.727C283.153 662.369 283.58 661.297 283.813 661.022C283.929 660.831 284.066 660.916 284.123 660.948Z" fill="#F8B600"/>
<path d="M275.725 666.391C275.846 665.905 276.484 666.14 276.848 666.239C276.047 666.02 276.21 665.693 276.362 665.541C276.508 665.396 276.787 665.42 276.908 665.45C276.787 665.304 276.898 665.167 276.969 665.116C277.212 664.922 277.475 665.036 277.576 665.116C277.406 664.777 277.748 664.611 277.94 664.57C278.255 664.449 278.415 664.702 278.455 664.843C278.577 664.576 278.87 664.55 279.002 664.57C279.196 664.57 279.184 664.752 279.153 664.843C279.264 664.722 279.56 664.51 279.851 664.631C280.123 664.79 279.993 665.084 279.875 665.238C280.228 664.812 280.511 664.917 280.609 665.025C280.901 665.389 280.528 665.703 280.306 665.814C280.791 665.571 280.973 665.774 281.004 665.905C281.077 666.439 280.367 666.573 280.003 666.573C280.634 666.597 280.731 666.805 280.7 666.906C280.579 667.343 279.942 667.311 279.639 667.24C280.003 667.531 279.871 667.725 279.76 667.786C279.444 668.005 279.163 667.776 279.062 667.634C279.159 668.023 278.981 668.16 278.88 668.18C278.637 668.278 278.516 667.958 278.486 667.786C278.34 668.174 278.102 668.292 278 668.302C277.588 668.326 277.687 667.867 277.788 667.634C277.181 668.265 276.767 668.18 276.635 668.059C276.441 667.889 276.797 667.523 276.999 667.361C276.368 667.798 275.998 667.604 275.907 667.452C275.725 667.088 276.059 666.927 276.301 666.876C275.768 666.876 275.695 666.552 275.725 666.391Z" fill="#FEE300"/>
<path d="M276.544 667.27C276.325 667.028 276.837 666.785 277.12 666.694C276.416 666.864 276.18 666.603 276.149 666.451C276.125 666.184 276.625 666.178 276.877 666.208C276.465 666.063 276.483 665.844 276.544 665.753C276.689 665.438 277.07 665.622 277.241 665.753C277.072 665.511 277.125 665.376 277.211 665.268C277.332 665.116 277.99 665.47 278.334 665.693L278.455 665.207C278.601 664.843 278.799 664.813 278.88 664.843C279.025 664.868 279.062 665.116 279.062 665.238C279.256 664.922 279.507 664.884 279.608 664.904C279.875 665.001 279.719 665.329 279.608 665.48C280.045 665.116 280.255 665.207 280.305 665.298C280.5 665.541 280.002 665.885 279.729 666.026C280.263 665.881 280.396 666.087 280.396 666.208C280.396 666.475 279.77 666.482 279.456 666.451C279.844 666.5 279.861 666.674 279.82 666.755C279.699 667.022 279.203 666.866 278.971 666.755C279.432 666.997 279.345 667.199 279.244 667.27C278.88 667.464 278.586 667.068 278.485 666.846C278.582 667.234 278.323 667.473 278.182 667.543C277.794 667.689 277.879 667.321 277.97 667.119C277.8 667.386 277.555 667.473 277.454 667.483C277.114 667.434 277.332 667.119 277.484 666.967C276.95 667.404 276.635 667.351 276.544 667.27Z" fill="#FBD000"/>
<path d="M277.152 665.845C277.249 665.65 277.536 665.865 277.668 665.996L278.396 666.087L278.79 665.602C278.839 665.286 279.073 665.268 279.184 665.299C279.345 665.39 279.194 665.669 279.083 665.819C279.363 665.457 279.55 665.461 279.609 665.511C279.803 665.729 279.468 665.986 279.275 666.087C279.591 665.966 279.71 666.097 279.73 666.178C279.73 666.397 279.265 666.411 279.033 666.391C279.3 666.415 279.346 666.583 279.336 666.664C279.263 666.809 278.962 666.704 278.82 666.633C279.015 666.779 278.942 666.917 278.881 666.967C278.735 667.113 278.557 666.906 278.487 666.785C278.414 667.149 278.254 667.2 278.183 667.179C277.989 667.131 278.082 666.876 278.153 666.755C277.91 667.143 277.748 667.179 277.698 667.149C277.528 667.076 277.688 666.836 277.789 666.724C277.425 667.016 277.172 666.967 277.091 666.906C277.018 666.834 277.243 666.654 277.364 666.573C276.927 666.573 276.838 666.391 276.848 666.3C276.87 666.083 277.15 666.14 277.333 666.212C277.082 666.091 277.105 665.92 277.152 665.845Z" fill="#F8B800"/>
<path d="M277.668 667.149C277.838 667.197 278.042 666.926 278.123 666.785C278.341 666.518 278.174 666.471 278.062 666.481C277.99 666.53 277.83 666.684 277.759 666.754C277.565 666.973 277.617 667.108 277.668 667.149Z" fill="#F3A801"/>
<path d="M278.85 666.664C279.189 666.785 279.315 666.714 279.335 666.664C279.335 666.583 279.274 666.421 279.062 666.391L278.577 666.269C278.566 666.32 278.607 666.469 278.85 666.664Z" fill="#F3A801"/>
<path d="M278.789 665.602C278.862 665.262 279.082 665.258 279.183 665.298C279.244 665.329 279.335 665.45 279.092 665.814C279.011 665.925 278.831 666.148 278.759 666.148C278.71 666.099 278.668 665.723 278.789 665.602Z" fill="#F3A801"/>
<path d="M278.122 665.45L278.122 665.45C278.049 665.426 277.839 665.379 277.758 665.359C277.782 665.116 277.95 665.157 278.031 665.207C278.079 665.013 278.253 665.147 278.334 665.238C278.213 665.238 278.152 665.379 278.122 665.45Z" fill="#DA9400"/>
<path d="M278.031 665.207C277.818 665.086 277.758 665.268 277.758 665.359C277.788 665.45 278.025 665.498 278.122 665.45C278.102 665.379 278.055 665.231 278.031 665.207Z" fill="#EBA218"/>
<path d="M277.667 665.301C277.758 665.301 277.819 665.412 277.819 665.483C277.839 665.433 277.891 665.338 277.94 665.362C277.96 665.362 278.013 665.38 278.061 665.453C278.071 665.402 278.106 665.324 278.152 665.301C278.172 665.291 278.219 665.277 278.243 665.301C278.243 665.251 278.255 665.149 278.304 665.149C278.324 665.129 278.383 665.101 278.456 665.149C278.547 665.22 278.735 665.459 278.759 665.847C278.759 665.999 278.789 666.427 278.425 666.609C277.788 666.761 277.535 665.938 277.515 665.605C277.515 665.386 277.606 665.301 277.667 665.301Z" fill="#FBC501"/>
<path d="M277.909 665.365C277.849 665.365 277.818 665.426 277.818 665.483C277.788 665.777 277.855 666.415 278.364 666.633C278.334 666.33 278.202 665.739 278.091 665.486C278.061 665.426 277.94 665.335 277.909 665.365Z" fill="#F8B600"/>
<path d="M278.273 665.153C278.213 665.186 278.213 665.304 278.243 665.335C278.455 665.577 278.546 666.239 278.546 666.542C279.032 666.263 278.698 665.426 278.516 665.21C278.425 665.062 278.318 665.128 278.273 665.153Z" fill="#F8B600"/>
<path d="M278.435 673.117C278.61 672.872 280.565 673.336 281.542 673.642C281.192 672.347 280.652 671.585 280.404 671.322L279.529 671.235C279.564 670.745 279.281 670.389 279.135 670.272L277.953 670.184L277.472 669.44L276.071 669.353L275.633 668.871C273.812 668.696 272.452 669.119 272 669.353C272.07 670.333 273.226 671.366 273.795 671.76L274.801 671.498L275.327 672.242C275.502 672.277 276.217 671.994 276.552 671.848C276.657 672.303 276.917 672.534 277.034 672.592L278.084 672.373C278.049 672.758 278.303 673.03 278.435 673.117Z" fill="#5CA441"/>
<path d="M273.269 669.569C274.786 669.934 277.778 670.839 280.623 673.027C278.031 670.541 274.641 669.686 273.269 669.569Z" fill="#7CB21E"/>
<path d="M284.124 673.115C284.255 673.028 284.509 672.757 284.474 672.371L285.525 672.59C285.642 672.532 285.901 672.301 286.006 671.846C286.342 671.992 287.057 672.275 287.232 672.24L287.757 671.496L288.764 671.758C289.333 671.365 290.489 670.332 290.559 669.351C290.106 669.118 288.746 668.694 286.926 668.87L286.488 669.351L285.087 669.439L284.606 670.183L283.424 670.27C283.278 670.387 282.995 670.743 283.03 671.233L282.154 671.321C281.94 671.548 281.442 672.248 281.085 673.27L280.841 673.074L280.929 673.774C281.107 673.743 281.316 673.695 281.542 673.638C282.59 673.372 283.98 672.914 284.124 673.115Z" fill="#5CA441"/>
<path d="M289.29 669.568C287.772 669.932 284.781 670.837 281.936 673.026C284.527 670.539 287.918 669.684 289.29 669.568Z" fill="#7CB21E"/>
</g>
<defs>
<filter id="filter0_f_4298_6725" x="115" y="122" width="40" height="22.5" filterUnits="userSpaceOnUse" color-interpolation-filters="sRGB">
<feFlood flood-opacity="0" result="BackgroundImageFix"/>
<feBlend mode="normal" in="SourceGraphic" in2="BackgroundImageFix" result="shape"/>
<feGaussianBlur stdDeviation="2" result="effect1_foregroundBlur_4298_6725"/>
</filter>
<filter id="filter1_f_4298_6725" x="105" y="112" width="32" height="19" filterUnits="userSpaceOnUse" color-interpolation-filters="sRGB">
<feFlood flood-opacity="0" result="BackgroundImageFix"/>
<feBlend mode="normal" in="SourceGraphic" in2="BackgroundImageFix" result="shape"/>
<feGaussianBlur stdDeviation="2" result="effect1_foregroundBlur_4298_6725"/>
</filter>
<filter id="filter2_f_4298_6725" x="73" y="123" width="26.1055" height="37" filterUnits="userSpaceOnUse" color-interpolation-filters="sRGB">
<feFlood flood-opacity="0" result="BackgroundImageFix"/>
<feBlend mode="normal" in="SourceGraphic" in2="BackgroundImageFix" result="shape"/>
<feGaussianBlur stdDeviation="2" result="effect1_foregroundBlur_4298_6725"/>
</filter>
<filter id="filter3_f_4298_6725" x="79" y="115" width="40" height="22.5" filterUnits="userSpaceOnUse" color-interpolation-filters="sRGB">
<feFlood flood-opacity="0" result="BackgroundImageFix"/>
<feBlend mode="normal" in="SourceGraphic" in2="BackgroundImageFix" result="shape"/>
<feGaussianBlur stdDeviation="2" result="effect1_foregroundBlur_4298_6725"/>
</filter>
<filter id="filter4_f_4298_6725" x="70.5903" y="138" width="13.9097" height="15.2164" filterUnits="userSpaceOnUse" color-interpolation-filters="sRGB">
<feFlood flood-opacity="0" result="BackgroundImageFix"/>
<feBlend mode="normal" in="SourceGraphic" in2="BackgroundImageFix" result="shape"/>
<feGaussianBlur stdDeviation="1" result="effect1_foregroundBlur_4298_6725"/>
</filter>
<filter id="filter5_f_4298_6725" x="69.8691" y="149.15" width="138.131" height="9.82422" filterUnits="userSpaceOnUse" color-interpolation-filters="sRGB">
<feFlood flood-opacity="0" result="BackgroundImageFix"/>
<feBlend mode="normal" in="SourceGraphic" in2="BackgroundImageFix" result="shape"/>
<feGaussianBlur stdDeviation="1" result="effect1_foregroundBlur_4298_6725"/>
</filter>
<filter id="filter6_f_4298_6725" x="-12.0737" y="251.714" width="23.0845" height="14.8351" filterUnits="userSpaceOnUse" color-interpolation-filters="sRGB">
<feFlood flood-opacity="0" result="BackgroundImageFix"/>
<feBlend mode="normal" in="SourceGraphic" in2="BackgroundImageFix" result="shape"/>
<feGaussianBlur stdDeviation="2" result="effect1_foregroundBlur_4298_6725"/>
</filter>
<filter id="filter7_f_4298_6725" x="-3.58887" y="247" width="19.3135" height="13.1853" filterUnits="userSpaceOnUse" color-interpolation-filters="sRGB">
<feFlood flood-opacity="0" result="BackgroundImageFix"/>
<feBlend mode="normal" in="SourceGraphic" in2="BackgroundImageFix" result="shape"/>
<feGaussianBlur stdDeviation="2" result="effect1_foregroundBlur_4298_6725"/>
</filter>
<filter id="filter8_f_4298_6725" x="14.2744" y="252.185" width="16.5347" height="21.6703" filterUnits="userSpaceOnUse" color-interpolation-filters="sRGB">
<feFlood flood-opacity="0" result="BackgroundImageFix"/>
<feBlend mode="normal" in="SourceGraphic" in2="BackgroundImageFix" result="shape"/>
<feGaussianBlur stdDeviation="2" result="effect1_foregroundBlur_4298_6725"/>
</filter>
<filter id="filter9_f_4298_6725" x="4.89648" y="248.414" width="23.0845" height="14.8351" filterUnits="userSpaceOnUse" color-interpolation-filters="sRGB">
<feFlood flood-opacity="0" result="BackgroundImageFix"/>
<feBlend mode="normal" in="SourceGraphic" in2="BackgroundImageFix" result="shape"/>
<feGaussianBlur stdDeviation="2" result="effect1_foregroundBlur_4298_6725"/>
</filter>
<filter id="filter10_f_4298_6725" x="21.981" y="261.256" width="8.67139" height="9.28729" filterUnits="userSpaceOnUse" color-interpolation-filters="sRGB">
<feFlood flood-opacity="0" result="BackgroundImageFix"/>
<feBlend mode="normal" in="SourceGraphic" in2="BackgroundImageFix" result="shape"/>
<feGaussianBlur stdDeviation="1" result="effect1_foregroundBlur_4298_6725"/>
</filter>
<filter id="filter11_f_4298_6725" x="-36" y="265.499" width="74.7246" height="6.81671" filterUnits="userSpaceOnUse" color-interpolation-filters="sRGB">
<feFlood flood-opacity="0" result="BackgroundImageFix"/>
<feBlend mode="normal" in="SourceGraphic" in2="BackgroundImageFix" result="shape"/>
<feGaussianBlur stdDeviation="1" result="effect1_foregroundBlur_4298_6725"/>
</filter>
<filter id="filter12_f_4298_6725" x="271" y="215" width="40" height="22.5" filterUnits="userSpaceOnUse" color-interpolation-filters="sRGB">
<feFlood flood-opacity="0" result="BackgroundImageFix"/>
<feBlend mode="normal" in="SourceGraphic" in2="BackgroundImageFix" result="shape"/>
<feGaussianBlur stdDeviation="2" result="effect1_foregroundBlur_4298_6725"/>
</filter>
<filter id="filter13_f_4298_6725" x="263" y="202" width="32" height="19" filterUnits="userSpaceOnUse" color-interpolation-filters="sRGB">
<feFlood flood-opacity="0" result="BackgroundImageFix"/>
<feBlend mode="normal" in="SourceGraphic" in2="BackgroundImageFix" result="shape"/>
<feGaussianBlur stdDeviation="2" result="effect1_foregroundBlur_4298_6725"/>
</filter>
<filter id="filter14_f_4298_6725" x="242" y="208" width="26.1055" height="37" filterUnits="userSpaceOnUse" color-interpolation-filters="sRGB">
<feFlood flood-opacity="0" result="BackgroundImageFix"/>
<feBlend mode="normal" in="SourceGraphic" in2="BackgroundImageFix" result="shape"/>
<feGaussianBlur stdDeviation="2" result="effect1_foregroundBlur_4298_6725"/>
</filter>
<filter id="filter15_f_4298_6725" x="248" y="207" width="25" height="15" filterUnits="userSpaceOnUse" color-interpolation-filters="sRGB">
<feFlood flood-opacity="0" result="BackgroundImageFix"/>
<feBlend mode="normal" in="SourceGraphic" in2="BackgroundImageFix" result="shape"/>
<feGaussianBlur stdDeviation="2" result="effect1_foregroundBlur_4298_6725"/>
</filter>
<filter id="filter16_f_4298_6725" x="239.59" y="223" width="13.9097" height="15.2164" filterUnits="userSpaceOnUse" color-interpolation-filters="sRGB">
<feFlood flood-opacity="0" result="BackgroundImageFix"/>
<feBlend mode="normal" in="SourceGraphic" in2="BackgroundImageFix" result="shape"/>
<feGaussianBlur stdDeviation="1" result="effect1_foregroundBlur_4298_6725"/>
</filter>
<filter id="filter17_f_4298_6725" x="204.5" y="234.15" width="172.5" height="9.8501" filterUnits="userSpaceOnUse" color-interpolation-filters="sRGB">
<feFlood flood-opacity="0" result="BackgroundImageFix"/>
<feBlend mode="normal" in="SourceGraphic" in2="BackgroundImageFix" result="shape"/>
<feGaussianBlur stdDeviation="1" result="effect1_foregroundBlur_4298_6725"/>
</filter>
<filter id="filter18_if_4298_6725" x="214" y="13" width="146" height="146" filterUnits="userSpaceOnUse" color-interpolation-filters="sRGB">
<feFlood flood-opacity="0" result="BackgroundImageFix"/>
<feBlend mode="normal" in="SourceGraphic" in2="BackgroundImageFix" result="shape"/>
<feColorMatrix in="SourceAlpha" type="matrix" values="0 0 0 0 0 0 0 0 0 0 0 0 0 0 0 0 0 0 127 0" result="hardAlpha"/>
<feOffset dx="2" dy="2"/>
<feGaussianBlur stdDeviation="2"/>
<feComposite in2="hardAlpha" operator="arithmetic" k2="-1" k3="1"/>
<feColorMatrix type="matrix" values="0 0 0 0 0 0 0 0 0 0 0 0 0 0 0 0 0 0 0.25 0"/>
<feBlend mode="normal" in2="shape" result="effect1_innerShadow_4298_6725"/>
<feGaussianBlur stdDeviation="17.5" result="effect2_foregroundBlur_4298_6725"/>
</filter>
<filter id="filter19_ii_4298_6725" x="247" y="46" width="80" height="80" filterUnits="userSpaceOnUse" color-interpolation-filters="sRGB">
<feFlood flood-opacity="0" result="BackgroundImageFix"/>
<feBlend mode="normal" in="SourceGraphic" in2="BackgroundImageFix" result="shape"/>
<feColorMatrix in="SourceAlpha" type="matrix" values="0 0 0 0 0 0 0 0 0 0 0 0 0 0 0 0 0 0 127 0" result="hardAlpha"/>
<feOffset dx="2" dy="2"/>
<feGaussianBlur stdDeviation="2"/>
<feComposite in2="hardAlpha" operator="arithmetic" k2="-1" k3="1"/>
<feColorMatrix type="matrix" values="0 0 0 0 1 0 0 0 0 1 0 0 0 0 1 0 0 0 0.2 0"/>
<feBlend mode="normal" in2="shape" result="effect1_innerShadow_4298_6725"/>
<feColorMatrix in="SourceAlpha" type="matrix" values="0 0 0 0 0 0 0 0 0 0 0 0 0 0 0 0 0 0 127 0" result="hardAlpha"/>
<feOffset dx="-2" dy="-2"/>
<feGaussianBlur stdDeviation="2"/>
<feComposite in2="hardAlpha" operator="arithmetic" k2="-1" k3="1"/>
<feColorMatrix type="matrix" values="0 0 0 0 0 0 0 0 0 0 0 0 0 0 0 0 0 0 0.05 0"/>
<feBlend mode="normal" in2="effect1_innerShadow_4298_6725" result="effect2_innerShadow_4298_6725"/>
</filter>
<filter id="filter20_f_4298_6725" x="-44.4023" y="159.063" width="314.576" height="283.843" filterUnits="userSpaceOnUse" color-interpolation-filters="sRGB">
<feFlood flood-opacity="0" result="BackgroundImageFix"/>
<feBlend mode="normal" in="SourceGraphic" in2="BackgroundImageFix" result="shape"/>
<feGaussianBlur stdDeviation="8.5" result="effect1_foregroundBlur_4298_6725"/>
</filter>
<filter id="filter21_f_4298_6725" x="52.1543" y="240.721" width="372.171" height="331.531" filterUnits="userSpaceOnUse" color-interpolation-filters="sRGB">
<feFlood flood-opacity="0" result="BackgroundImageFix"/>
<feBlend mode="normal" in="SourceGraphic" in2="BackgroundImageFix" result="shape"/>
<feGaussianBlur stdDeviation="21" result="effect1_foregroundBlur_4298_6725"/>
</filter>
<filter id="filter22_f_4298_6725" x="62.8867" y="741.274" width="76.3882" height="26.9875" filterUnits="userSpaceOnUse" color-interpolation-filters="sRGB">
<feFlood flood-opacity="0" result="BackgroundImageFix"/>
<feBlend mode="normal" in="SourceGraphic" in2="BackgroundImageFix" result="shape"/>
<feGaussianBlur stdDeviation="2.63014" result="effect1_foregroundBlur_4298_6725"/>
</filter>
<filter id="filter23_f_4298_6725" x="78.3245" y="696.333" width="14.4087" height="14.4086" filterUnits="userSpaceOnUse" color-interpolation-filters="sRGB">
<feFlood flood-opacity="0" result="BackgroundImageFix"/>
<feBlend mode="normal" in="SourceGraphic" in2="BackgroundImageFix" result="shape"/>
<feGaussianBlur stdDeviation="1.31507" result="effect1_foregroundBlur_4298_6725"/>
</filter>
<filter id="filter24_f_4298_6725" x="109.429" y="696.333" width="14.4087" height="14.4086" filterUnits="userSpaceOnUse" color-interpolation-filters="sRGB">
<feFlood flood-opacity="0" result="BackgroundImageFix"/>
<feBlend mode="normal" in="SourceGraphic" in2="BackgroundImageFix" result="shape"/>
<feGaussianBlur stdDeviation="1.31507" result="effect1_foregroundBlur_4298_6725"/>
</filter>
<filter id="filter25_d_4298_6725" x="169.033" y="489.74" width="117.123" height="32.4696" filterUnits="userSpaceOnUse" color-interpolation-filters="sRGB">
<feFlood flood-opacity="0" result="BackgroundImageFix"/>
<feColorMatrix in="SourceAlpha" type="matrix" values="0 0 0 0 0 0 0 0 0 0 0 0 0 0 0 0 0 0 127 0" result="hardAlpha"/>
<feOffset dy="5.79815"/>
<feGaussianBlur stdDeviation="5.79815"/>
<feComposite in2="hardAlpha" operator="out"/>
<feColorMatrix type="matrix" values="0 0 0 0 0 0 0 0 0 0 0 0 0 0 0 0 0 0 0.05 0"/>
<feBlend mode="normal" in2="BackgroundImageFix" result="effect1_dropShadow_4298_6725"/>
<feBlend mode="normal" in="SourceGraphic" in2="effect1_dropShadow_4298_6725" result="shape"/>
</filter>
<filter id="filter26_d_4298_6725" x="163.234" y="581.351" width="127.559" height="38.2678" filterUnits="userSpaceOnUse" color-interpolation-filters="sRGB">
<feFlood flood-opacity="0" result="BackgroundImageFix"/>
<feColorMatrix in="SourceAlpha" type="matrix" values="0 0 0 0 0 0 0 0 0 0 0 0 0 0 0 0 0 0 127 0" result="hardAlpha"/>
<feOffset dy="6.95778"/>
<feGaussianBlur stdDeviation="5.79815"/>
<feComposite in2="hardAlpha" operator="out"/>
<feColorMatrix type="matrix" values="0 0 0 0 0 0 0 0 0 0 0 0 0 0 0 0 0 0 0.1 0"/>
<feBlend mode="normal" in2="BackgroundImageFix" result="effect1_dropShadow_4298_6725"/>
<feBlend mode="normal" in="SourceGraphic" in2="effect1_dropShadow_4298_6725" result="shape"/>
</filter>
<filter id="filter27_i_4298_6725" x="217.766" y="526.95" width="20.8735" height="33.6292" filterUnits="userSpaceOnUse" color-interpolation-filters="sRGB">
<feFlood flood-opacity="0" result="BackgroundImageFix"/>
<feBlend mode="normal" in="SourceGraphic" in2="BackgroundImageFix" result="shape"/>
<feColorMatrix in="SourceAlpha" type="matrix" values="0 0 0 0 0 0 0 0 0 0 0 0 0 0 0 0 0 0 127 0" result="hardAlpha"/>
<feOffset dy="4.63852"/>
<feGaussianBlur stdDeviation="0.579815"/>
<feComposite in2="hardAlpha" operator="arithmetic" k2="-1" k3="1"/>
<feColorMatrix type="matrix" values="0 0 0 0 0 0 0 0 0 0 0 0 0 0 0 0 0 0 0.1 0"/>
<feBlend mode="normal" in2="shape" result="effect1_innerShadow_4298_6725"/>
</filter>
<filter id="filter28_i_4298_6725" x="211.938" y="624.257" width="31.3101" height="54.5026" filterUnits="userSpaceOnUse" color-interpolation-filters="sRGB">
<feFlood flood-opacity="0" result="BackgroundImageFix"/>
<feBlend mode="normal" in="SourceGraphic" in2="BackgroundImageFix" result="shape"/>
<feColorMatrix in="SourceAlpha" type="matrix" values="0 0 0 0 0 0 0 0 0 0 0 0 0 0 0 0 0 0 127 0" result="hardAlpha"/>
<feOffset dy="4.63852"/>
<feGaussianBlur stdDeviation="4.63852"/>
<feComposite in2="hardAlpha" operator="arithmetic" k2="-1" k3="1"/>
<feColorMatrix type="matrix" values="0 0 0 0 0 0 0 0 0 0 0 0 0 0 0 0 0 0 0.25 0"/>
<feBlend mode="normal" in2="shape" result="effect1_innerShadow_4298_6725"/>
</filter>
<filter id="filter29_i_4298_6725" x="211.938" y="624.257" width="31.3101" height="54.5026" filterUnits="userSpaceOnUse" color-interpolation-filters="sRGB">
<feFlood flood-opacity="0" result="BackgroundImageFix"/>
<feBlend mode="normal" in="SourceGraphic" in2="BackgroundImageFix" result="shape"/>
<feColorMatrix in="SourceAlpha" type="matrix" values="0 0 0 0 0 0 0 0 0 0 0 0 0 0 0 0 0 0 127 0" result="hardAlpha"/>
<feOffset dy="4.63852"/>
<feGaussianBlur stdDeviation="4.63852"/>
<feComposite in2="hardAlpha" operator="arithmetic" k2="-1" k3="1"/>
<feColorMatrix type="matrix" values="0 0 0 0 0 0 0 0 0 0 0 0 0 0 0 0 0 0 0.25 0"/>
<feBlend mode="normal" in2="shape" result="effect1_innerShadow_4298_6725"/>
</filter>
<linearGradient id="paint0_linear_4298_6725" x1="187.5" y1="0" x2="188" y2="1453" gradientUnits="userSpaceOnUse">
<stop stop-color="#94D6FF"/>
<stop offset="1" stop-color="white"/>
</linearGradient>
<linearGradient id="paint1_linear_4298_6725" x1="156.5" y1="658" x2="197" y2="932" gradientUnits="userSpaceOnUse">
<stop stop-color="#BCDD58"/>
<stop offset="0.711031" stop-color="#94C574"/>
</linearGradient>
<linearGradient id="paint2_linear_4298_6725" x1="95.987" y1="154.4" x2="271.934" y2="158.719" gradientUnits="userSpaceOnUse">
<stop offset="0.263196" stop-color="white"/>
<stop offset="1" stop-color="white" stop-opacity="0"/>
</linearGradient>
<linearGradient id="paint3_linear_4298_6725" x1="95.987" y1="154.4" x2="271.934" y2="158.719" gradientUnits="userSpaceOnUse">
<stop offset="0.263196"/>
<stop offset="1" stop-color="white" stop-opacity="0"/>
</linearGradient>
<linearGradient id="paint4_linear_4298_6725" x1="113" y1="151" x2="270.5" y2="155.5" gradientUnits="userSpaceOnUse">
<stop offset="0.263196" stop-color="white"/>
<stop offset="1" stop-color="white" stop-opacity="0"/>
</linearGradient>
<linearGradient id="paint5_linear_4298_6725" x1="95.987" y1="154.4" x2="271.934" y2="158.719" gradientUnits="userSpaceOnUse">
<stop offset="0.263196"/>
<stop offset="1" stop-color="white" stop-opacity="0"/>
</linearGradient>
<linearGradient id="paint6_linear_4298_6725" x1="12.1965" y1="267.499" x2="-62.0474" y2="269.62" gradientUnits="userSpaceOnUse">
<stop offset="0.263196" stop-color="white"/>
<stop offset="1" stop-color="white" stop-opacity="0"/>
</linearGradient>
<linearGradient id="paint7_linear_4298_6725" x1="17.859" y1="269.101" x2="-65.0805" y2="271.137" gradientUnits="userSpaceOnUse">
<stop offset="0.263196" stop-color="white"/>
<stop offset="1" stop-color="white" stop-opacity="0"/>
</linearGradient>
<linearGradient id="paint8_linear_4298_6725" x1="17.6233" y1="270.044" x2="-65.3162" y2="272.08" gradientUnits="userSpaceOnUse">
<stop offset="0.263196"/>
<stop offset="1" stop-color="white" stop-opacity="0"/>
</linearGradient>
<linearGradient id="paint9_linear_4298_6725" x1="24.0051" y1="269.07" x2="-68.7537" y2="271.553" gradientUnits="userSpaceOnUse">
<stop offset="0.263196"/>
<stop offset="1" stop-color="white" stop-opacity="0"/>
</linearGradient>
<linearGradient id="paint10_linear_4298_6725" x1="264.987" y1="239.399" x2="440.934" y2="243.718" gradientUnits="userSpaceOnUse">
<stop offset="0.263196" stop-color="white"/>
<stop offset="1" stop-color="white" stop-opacity="0"/>
</linearGradient>
<linearGradient id="paint11_linear_4298_6725" x1="264.987" y1="239.4" x2="440.934" y2="243.719" gradientUnits="userSpaceOnUse">
<stop offset="0.263196"/>
<stop offset="1" stop-color="white" stop-opacity="0"/>
</linearGradient>
<linearGradient id="paint12_linear_4298_6725" x1="277.671" y1="236" x2="395.105" y2="238.501" gradientUnits="userSpaceOnUse">
<stop offset="0.263196" stop-color="white"/>
<stop offset="1" stop-color="white" stop-opacity="0"/>
</linearGradient>
<linearGradient id="paint13_linear_4298_6725" x1="264.987" y1="239.4" x2="440.934" y2="243.719" gradientUnits="userSpaceOnUse">
<stop offset="0.263196"/>
<stop offset="1" stop-color="white" stop-opacity="0"/>
</linearGradient>
<radialGradient id="paint14_radial_4298_6725" cx="0" cy="0" r="1" gradientUnits="userSpaceOnUse" gradientTransform="translate(287 86) rotate(90) scale(76)">
<stop stop-color="#FFBC3A"/>
<stop offset="1" stop-color="#FFCF54" stop-opacity="0"/>
</radialGradient>
<linearGradient id="paint15_linear_4298_6725" x1="91.0179" y1="667.859" x2="91.0179" y2="684.326" gradientUnits="userSpaceOnUse">
<stop stop-color="#C2B48B"/>
<stop offset="1" stop-color="#9B895A"/>
</linearGradient>
<linearGradient id="paint16_linear_4298_6725" x1="109.315" y1="667.859" x2="109.315" y2="684.326" gradientUnits="userSpaceOnUse">
<stop stop-color="#C2B48B"/>
<stop offset="1" stop-color="#9B895A"/>
</linearGradient>
<clipPath id="clip0_4298_6725">
<rect width="375" height="812" fill="white"/>
</clipPath>
</defs>
</svg>
