<svg width="112" height="80" viewBox="0 0 112 80" fill="none" xmlns="http://www.w3.org/2000/svg">
<path d="M1.31125 70.4945C1.31125 69.7051 1.66325 69.1238 2.36725 68.7505L2.87925 68.4785C3.12458 68.3505 3.32192 68.1958 3.47125 68.0145C3.63125 67.8225 3.71125 67.5185 3.71125 67.1025V54.7505C3.71125 54.3345 3.63125 54.0358 3.47125 53.8545C3.32192 53.6625 3.12458 53.5025 2.87925 53.3745L2.36725 53.1025C1.66325 52.7291 1.31125 52.1478 1.31125 51.3585C1.31125 50.8571 1.46058 50.4625 1.75925 50.1745C2.06858 49.8758 2.53258 49.7265 3.15125 49.7265H12.7673C14.7513 49.7265 16.5539 50.0198 18.1753 50.6065C19.8073 51.1931 21.2099 52.0251 22.3833 53.1025C23.5566 54.1691 24.4579 55.4385 25.0873 56.9105C25.7166 58.3718 26.0313 59.9878 26.0313 61.7585C26.0313 63.7531 25.5513 65.5345 24.5913 67.1025C23.6313 68.6598 22.2713 69.8865 20.5113 70.7825C18.7619 71.6785 16.6979 72.1265 14.3193 72.1265H3.15125C2.52192 72.1265 2.05792 71.9825 1.75925 71.6945C1.46058 71.3958 1.31125 70.9958 1.31125 70.4945ZM13.5993 68.7665C14.4846 68.7665 15.2899 68.5158 16.0153 68.0145C16.7406 67.5025 17.3166 66.7185 17.7432 65.6625C18.1806 64.5958 18.3993 63.2358 18.3993 61.5825C18.3993 60.3131 18.2553 59.1611 17.9673 58.1265C17.6899 57.0811 17.2793 56.1851 16.7353 55.4385C16.2019 54.6811 15.5459 54.0998 14.7673 53.6945C13.9993 53.2891 13.1246 53.0865 12.1433 53.0865H11.1353V66.3345C11.1353 67.1985 11.3273 67.8225 11.7113 68.2065C12.0953 68.5798 12.6553 68.7665 13.3913 68.7665H13.5993ZM33.0648 61.8865H43.0487V65.2465H33.0648V61.8865ZM36.0408 70.4945C36.0408 70.9958 35.8914 71.3958 35.5928 71.6945C35.2941 71.9825 34.8301 72.1265 34.2008 72.1265H29.6728C29.0434 72.1265 28.5794 71.9825 28.2808 71.6945C27.9821 71.3958 27.8328 70.9958 27.8328 70.4945C27.8328 70.1638 27.9021 69.8811 28.0408 69.6465C28.1901 69.4011 28.4301 69.1505 28.7608 68.8945L29.1128 68.6225C29.3154 68.4731 29.4808 68.2971 29.6088 68.0945C29.7474 67.8811 29.9341 67.4011 30.1688 66.6545L33.8328 54.9425C34.0141 54.3771 34.0941 53.9665 34.0728 53.7105C34.0514 53.4545 33.8381 53.2251 33.4328 53.0225C33.1128 52.8518 32.8728 52.6278 32.7128 52.3505C32.5634 52.0731 32.4888 51.7425 32.4888 51.3585C32.4888 50.8571 32.6381 50.4625 32.9368 50.1745C33.2354 49.8758 33.6994 49.7265 34.3288 49.7265H45.3048C45.9341 49.7265 46.3981 49.8758 46.6968 50.1745C46.9954 50.4625 47.1448 50.8571 47.1448 51.3585C47.1448 51.7745 47.0541 52.1211 46.8728 52.3985C46.7021 52.6758 46.4408 52.9105 46.0888 53.1025C45.8541 53.2305 45.7314 53.4385 45.7208 53.7265C45.7101 54.0038 45.7741 54.3771 45.9128 54.8465L49.2888 65.5025C49.5981 66.4731 49.8434 67.1878 50.0248 67.6465C50.2061 68.1051 50.4728 68.4358 50.8248 68.6385C51.2941 68.9158 51.6141 69.1931 51.7848 69.4705C51.9554 69.7371 52.0408 70.0785 52.0408 70.4945C52.0408 70.9958 51.8914 71.3958 51.5928 71.6945C51.2941 71.9825 50.8301 72.1265 50.2008 72.1265H42.3288C41.6888 72.1265 41.2194 71.9825 40.9208 71.6945C40.6328 71.3958 40.4888 70.9958 40.4888 70.4945C40.4888 70.1105 40.5741 69.7905 40.7448 69.5345C40.9261 69.2785 41.1928 69.0598 41.5448 68.8785L42.0568 68.6065C42.3128 68.4678 42.4034 68.2651 42.3288 67.9985C42.2648 67.7211 42.1421 67.2945 41.9608 66.7185L37.7208 52.6385L38.1688 52.7025L34.0568 65.9505C33.8968 66.4625 33.7581 66.8731 33.6408 67.1825C33.5234 67.4811 33.5128 67.7371 33.6088 67.9505C33.7154 68.1638 34.0034 68.3985 34.4728 68.6545L34.9848 68.9265C35.3048 69.0971 35.5608 69.3051 35.7528 69.5505C35.9448 69.7851 36.0408 70.0998 36.0408 70.4945ZM64.104 67.1025C64.104 67.5185 64.184 67.8225 64.344 68.0145C64.504 68.1958 64.7013 68.3505 64.936 68.4785L65.448 68.7505C66.152 69.1238 66.504 69.7051 66.504 70.4945C66.504 70.9958 66.3547 71.3958 66.056 71.6945C65.7573 71.9825 65.2933 72.1265 64.664 72.1265H56.12C55.4907 72.1265 55.0267 71.9825 54.728 71.6945C54.4293 71.3958 54.28 70.9958 54.28 70.4945C54.28 69.7051 54.632 69.1238 55.336 68.7505L55.848 68.4785C56.0933 68.3505 56.2907 68.1958 56.44 68.0145C56.6 67.8225 56.68 67.5185 56.68 67.1025V54.7505C56.68 54.3345 56.6 54.0358 56.44 53.8545C56.2907 53.6625 56.0933 53.5025 55.848 53.3745L55.336 53.1025C54.632 52.7291 54.28 52.1478 54.28 51.3585C54.28 50.8571 54.4293 50.4625 54.728 50.1745C55.0267 49.8758 55.4907 49.7265 56.12 49.7265H64.664C65.2933 49.7265 65.7573 49.8758 66.056 50.1745C66.3547 50.4625 66.504 50.8571 66.504 51.3585C66.504 52.1478 66.152 52.7291 65.448 53.1025L64.936 53.3745C64.7013 53.5025 64.504 53.6625 64.344 53.8545C64.184 54.0358 64.104 54.3345 64.104 54.7505V67.1025ZM80.2293 53.1025L79.7173 53.3745C79.4826 53.5025 79.2853 53.6625 79.1253 53.8545C78.9653 54.0358 78.8853 54.3345 78.8853 54.7505V67.2945C78.8853 67.8385 79.0079 68.2225 79.2533 68.4465C79.4986 68.6598 79.8453 68.7665 80.2933 68.7665H81.6373C82.1813 68.7665 82.6613 68.7025 83.0773 68.5745C83.4933 68.4358 83.8613 68.2065 84.1813 67.8865C84.5119 67.5558 84.8106 67.1131 85.0773 66.5585L85.7812 65.0865C86.0373 64.5531 86.3359 64.2011 86.6773 64.0305C87.0293 63.8598 87.4399 63.8278 87.9093 63.9345C88.3893 64.0411 88.7413 64.2971 88.9653 64.7025C89.1999 65.0971 89.2373 65.5878 89.0773 66.1745L87.9093 70.3345C87.6746 71.1558 87.3866 71.7531 87.0453 72.1265C86.7039 72.5105 86.1813 72.7025 85.4773 72.7025C85.1146 72.7025 84.7679 72.6545 84.4373 72.5585C84.1066 72.4625 83.7439 72.3665 83.3493 72.2705C82.9546 72.1745 82.4693 72.1265 81.8933 72.1265H70.9013C70.2719 72.1265 69.8079 71.9825 69.5093 71.6945C69.2106 71.3958 69.0613 70.9958 69.0613 70.4945C69.0613 69.7051 69.4133 69.1238 70.1173 68.7505L70.6293 68.4785C70.8746 68.3505 71.0719 68.1958 71.2213 68.0145C71.3813 67.8225 71.4613 67.5185 71.4613 67.1025V54.7505C71.4613 54.3345 71.3813 54.0358 71.2213 53.8545C71.0719 53.6625 70.8746 53.5025 70.6293 53.3745L70.1173 53.1025C69.4133 52.7291 69.0613 52.1478 69.0613 51.3585C69.0613 50.8571 69.2106 50.4625 69.5093 50.1745C69.8079 49.8758 70.2719 49.7265 70.9013 49.7265H79.4453C80.0746 49.7265 80.5386 49.8758 80.8373 50.1745C81.1359 50.4625 81.2853 50.8571 81.2853 51.3585C81.2853 52.1478 80.9333 52.7291 80.2293 53.1025ZM103.302 65.7425L97.7663 66.6065L91.5103 54.9745C91.2543 54.5051 91.0569 54.1478 90.9183 53.9025C90.7903 53.6571 90.5556 53.4385 90.2143 53.2465L89.7503 52.9905C89.4623 52.8305 89.2436 52.6065 89.0943 52.3185C88.9556 52.0305 88.8863 51.7105 88.8863 51.3585C88.8863 50.8571 89.0356 50.4625 89.3343 50.1745C89.6329 49.8758 90.0969 49.7265 90.7263 49.7265H99.1903C99.8196 49.7265 100.284 49.8758 100.582 50.1745C100.881 50.4625 101.03 50.8571 101.03 51.3585C101.03 52.1798 100.678 52.7611 99.9743 53.1025L99.7503 53.2145C99.2169 53.4811 98.9556 53.7638 98.9663 54.0625C98.9876 54.3611 99.1423 54.8038 99.4303 55.3905L103.238 63.1505L100.31 64.7505L105.286 54.8785C105.5 54.4731 105.596 54.1425 105.574 53.8865C105.553 53.6305 105.35 53.4011 104.966 53.1985L104.582 52.9905C104.348 52.8625 104.145 52.6598 103.974 52.3825C103.804 52.1051 103.718 51.7638 103.718 51.3585C103.718 50.8571 103.868 50.4625 104.166 50.1745C104.465 49.8758 104.929 49.7265 105.558 49.7265H109.638C110.268 49.7265 110.732 49.8758 111.03 50.1745C111.329 50.4625 111.478 50.8571 111.478 51.3585C111.478 51.7318 111.404 52.0411 111.254 52.2865C111.116 52.5211 110.908 52.7398 110.63 52.9425L110.406 53.1025C110.268 53.1985 110.129 53.3051 109.99 53.4225C109.852 53.5291 109.686 53.7211 109.494 53.9985C109.313 54.2758 109.062 54.7185 108.742 55.3265L103.302 65.7425ZM96.5983 63.6145H104.022V67.1025C104.022 67.3798 104.086 67.6411 104.214 67.8865C104.342 68.1211 104.556 68.3185 104.854 68.4785L105.366 68.7505C106.07 69.1238 106.422 69.7051 106.422 70.4945C106.422 70.9958 106.273 71.3958 105.974 71.6945C105.676 71.9825 105.212 72.1265 104.582 72.1265H96.0383C95.4089 72.1265 94.9449 71.9825 94.6463 71.6945C94.3476 71.3958 94.1983 70.9958 94.1983 70.4945C94.1983 69.7051 94.5503 69.1238 95.2543 68.7505L95.7663 68.4785C96.1183 68.2971 96.3423 68.0838 96.4383 67.8385C96.5449 67.5825 96.5983 67.3371 96.5983 67.1025V63.6145Z" fill="#FF5F8F"/>
<path fill-rule="evenodd" clip-rule="evenodd" d="M105.972 54C105.991 53.4589 106 52.9155 106 52.3699C106 25.656 83.6142 4 56 4C28.3858 4 6 25.656 6 52.3699C6 52.9155 6.00933 53.4589 6.02786 54H105.972Z" fill="url(#paint0_radial_3170_5664)"/>
<defs>
<radialGradient id="paint0_radial_3170_5664" cx="0" cy="0" r="1" gradientUnits="userSpaceOnUse" gradientTransform="translate(56.2281 7.22466) rotate(90) scale(45.7123 98.1362)">
<stop stop-color="#FF5F8F"/>
<stop offset="1" stop-color="#FFA8A8" stop-opacity="0"/>
</radialGradient>
</defs>
</svg>
