<svg width="375" height="812" viewBox="0 0 375 812" fill="none" xmlns="http://www.w3.org/2000/svg">
<g clip-path="url(#clip0_3090_4706)">
<rect width="375" height="812" fill="url(#paint0_linear_3090_4706)"/>
<path d="M0 712.14L86 683.176L91.5 681.324V681.324C121.669 671.163 153.169 665.493 184.987 664.494L376 658.5V812H0V712.14Z" fill="url(#paint1_linear_3090_4706)"/>
<path d="M0 712.14L86 683.176L91.5 681.324V681.324C121.669 671.163 153.169 665.493 184.987 664.494L376 658.5V812H0V712.14Z" fill="black" fill-opacity="0.2"/>
<g filter="url(#filter0_i_3090_4706)">
<path d="M91.4547 724.656L86 683.176L91.5 681.324L94.9303 718.25C94.9716 718.694 95.3019 719.057 95.7401 719.14L113.5 722.5L98.1494 722.5C97.2992 722.5 96.8369 723.494 97.3845 724.144L128 760.5L104.5 737.644L103.5 745.5L105.5 751L103 747.5L100 764.5L102.81 736L91.749 725.242C91.5877 725.085 91.484 724.879 91.4547 724.656Z" fill="#953535"/>
</g>
<g filter="url(#filter1_i_3090_4706)">
<path d="M205.945 797.82L203.5 812H209L209.454 804.279C209.481 803.821 209.816 803.44 210.267 803.355L228 800H212.649C211.799 800 211.337 799.006 211.885 798.356L242.5 762L219 784.856L217.31 786.5L206.233 797.273C206.082 797.421 205.981 797.612 205.945 797.82Z" fill="#953535"/>
</g>
<path d="M112.015 693.774C112.596 693.278 112.568 692.372 111.958 691.912V691.912C110.98 691.176 109.589 691.377 108.86 692.361L104.979 697.596L91.6816 713L91.6816 715.5L106.682 698.323L112.015 693.774Z" fill="white"/>
<path d="M113.436 694.567C113.784 694.108 114.454 694.055 114.87 694.452L115.092 694.664C116.266 695.785 115.327 697.754 113.717 697.548V697.548L109.682 702.087L93.2073 719.026L92.3202 717.13L109.476 699.792L113.436 694.567Z" fill="white"/>
<path d="M117.291 695.196C117.491 694.909 117.451 694.519 117.198 694.278L112.416 689.711C112.162 689.468 111.785 689.409 111.468 689.561V689.561C110.926 689.823 110.826 690.553 111.278 690.952L116.239 695.324C116.557 695.604 117.049 695.545 117.291 695.196V695.196Z" fill="white"/>
<path d="M120.388 687.586C120.297 687.55 120.196 687.566 120.122 687.629V687.629C118.553 688.964 117.452 690.817 116.987 692.906L116.917 693.222C116.899 693.306 116.913 693.395 116.958 693.469L117.167 693.814C117.318 694.062 117.671 694.007 117.734 693.725L117.76 693.61C118.225 691.529 119.261 689.656 120.741 688.223V688.223C120.906 688.063 120.848 687.771 120.634 687.685L120.388 687.586Z" fill="white"/>
<path d="M119.127 686.379C119.036 686.342 118.935 686.358 118.861 686.421V686.421C117.291 687.756 116.191 689.609 115.726 691.698L115.656 692.014C115.637 692.098 115.652 692.187 115.697 692.261L115.906 692.606C116.056 692.855 116.41 692.799 116.473 692.518L116.499 692.403C116.964 690.321 118 688.448 119.48 687.015V687.015C119.645 686.856 119.587 686.564 119.373 686.478L119.127 686.379Z" fill="white"/>
<path d="M117.464 685.068C117.417 685.053 117.367 685.06 117.327 685.085V685.085C115.608 686.159 114.556 688.098 114.533 690.234L114.525 691.046C114.524 691.098 114.54 691.148 114.57 691.19L114.895 691.639C115.029 691.824 115.302 691.739 115.307 691.512L115.322 690.835C115.37 688.714 116.341 686.77 117.957 685.56V685.56C118.085 685.463 118.045 685.249 117.89 685.2L117.464 685.068Z" fill="white"/>
<path d="M115.302 684.2C115.26 684.187 115.215 684.193 115.179 684.218L114.911 684.395C113.335 685.442 112.523 687.386 112.835 689.364V689.364C112.839 689.389 112.849 689.413 112.864 689.434L113.175 689.853C113.268 689.979 113.455 689.902 113.435 689.746V689.746C113.188 687.849 113.922 685.997 115.36 684.894L115.715 684.621C115.828 684.535 115.791 684.346 115.653 684.304L115.302 684.2Z" fill="white"/>
<path d="M122.677 686.939C122.93 686.85 123.039 686.552 122.903 686.321V686.321C122.8 686.147 122.588 686.069 122.397 686.136L121.887 686.313C121.752 686.361 121.627 686.434 121.521 686.529L121.118 686.89C120.967 687.025 120.933 687.248 121.036 687.422V687.422C121.172 687.653 121.486 687.702 121.686 687.523L122.007 687.236C122.083 687.167 122.173 687.114 122.27 687.08L122.677 686.939Z" fill="white"/>
<path d="M125.134 686.463C125.32 686.479 125.464 686.303 125.411 686.124V686.124C125.387 686.041 125.323 685.975 125.241 685.947L124.418 685.672C124.255 685.618 124.079 685.618 123.916 685.672L123.563 685.788C123.332 685.865 123.209 686.117 123.291 686.346V686.346C123.37 686.567 123.612 686.685 123.835 686.611L124.336 686.446C124.418 686.419 124.505 686.409 124.591 686.416L125.134 686.463Z" fill="white"/>
<path d="M125.4 693.132C125.462 693.022 125.437 692.883 125.339 692.802V692.802C125.239 692.718 125.092 692.722 124.995 692.81L124.523 693.241C124.488 693.273 124.456 693.308 124.427 693.345L124.14 693.716C124.013 693.88 124.046 694.116 124.213 694.239V694.239C124.374 694.357 124.6 694.325 124.722 694.167L125.025 693.775C125.051 693.742 125.075 693.706 125.095 693.67L125.4 693.132Z" fill="white"/>
<path d="M121.48 685.624C121.733 685.536 121.842 685.238 121.706 685.006V685.006C121.603 684.832 121.391 684.754 121.2 684.821L120.69 684.999C120.555 685.046 120.43 685.119 120.324 685.215L119.921 685.575C119.77 685.71 119.736 685.933 119.839 686.108V686.108C119.975 686.339 120.289 686.387 120.489 686.208L120.81 685.921C120.886 685.852 120.976 685.8 121.073 685.766L121.48 685.624Z" fill="white"/>
<path d="M124.128 684.894C124.338 684.863 124.461 684.64 124.374 684.445V684.445C124.327 684.338 124.224 684.265 124.107 684.255L123.368 684.195C123.231 684.183 123.093 684.201 122.963 684.247L122.448 684.429C122.221 684.509 122.103 684.758 122.184 684.984V684.984C122.264 685.208 122.511 685.326 122.736 685.246L123.382 685.019C123.429 685.002 123.478 684.99 123.527 684.983L124.128 684.894Z" fill="white"/>
<path d="M119.825 684.148C120.07 684.039 120.154 683.733 120 683.514V683.514C119.883 683.349 119.665 683.288 119.48 683.371L118.986 683.589C118.856 683.647 118.738 683.731 118.639 683.835L118.268 684.227C118.128 684.374 118.112 684.599 118.229 684.764V684.764C118.383 684.983 118.7 685.006 118.885 684.812L119.181 684.499C119.252 684.424 119.337 684.364 119.431 684.323L119.825 684.148Z" fill="white"/>
<path d="M122.552 682.943C122.768 682.913 122.868 682.658 122.73 682.489V682.489C122.684 682.433 122.618 682.396 122.545 682.388L121.737 682.295C121.532 682.272 121.324 682.306 121.138 682.395L120.548 682.676C120.334 682.778 120.242 683.032 120.34 683.247V683.247C120.44 683.468 120.702 683.563 120.921 683.459L121.689 683.093C121.75 683.063 121.816 683.044 121.883 683.035L122.552 682.943Z" fill="white"/>
<path d="M117.306 683.359C117.518 683.262 117.588 682.996 117.452 682.807V682.807C117.349 682.664 117.16 682.614 117 682.687L116.573 682.882C116.46 682.933 116.358 683.007 116.274 683.098L115.955 683.441C115.836 683.57 115.824 683.766 115.927 683.908V683.908C116.063 684.097 116.338 684.114 116.496 683.943L116.751 683.669C116.811 683.604 116.884 683.551 116.965 683.514L117.306 683.359Z" fill="white"/>
<path d="M119.15 682.427C119.347 682.379 119.429 682.143 119.303 681.983V681.983C119.251 681.917 119.171 681.877 119.086 681.877L118.598 681.873C118.418 681.871 118.243 681.928 118.098 682.034L117.792 682.259C117.65 682.364 117.602 682.553 117.676 682.713V682.713C117.775 682.924 118.041 682.992 118.229 682.854L118.551 682.617C118.609 682.574 118.675 682.543 118.746 682.526L119.15 682.427Z" fill="white"/>
<path d="M121.208 695.805C121.54 695.759 121.784 695.472 121.777 695.137V695.137C121.768 694.743 121.418 694.446 121.028 694.499L119.66 694.687C119.541 694.704 119.42 694.704 119.301 694.69L118.464 694.586C118.067 694.536 117.718 694.852 117.727 695.252V695.252C117.735 695.577 117.98 695.848 118.303 695.888L119.278 696.009C119.433 696.028 119.589 696.027 119.743 696.006L121.208 695.805Z" fill="white"/>
<path d="M123.563 695.147C123.76 694.979 123.811 694.697 123.685 694.471V694.471C123.519 694.172 123.121 694.101 122.861 694.322L122.749 694.417C122.683 694.474 122.606 694.516 122.523 694.543L122.384 694.588C122.059 694.692 121.91 695.069 122.077 695.367V695.367C122.202 695.593 122.47 695.698 122.715 695.619L123.011 695.524C123.127 695.487 123.234 695.427 123.327 695.348L123.563 695.147Z" fill="white"/>
<g filter="url(#filter2_i_3090_4706)">
<path d="M308.511 704.589L314 660.5H310L305.094 697.958C305.038 698.387 304.713 698.731 304.289 698.811L286.5 702.176H304.072C304.595 702.176 305.03 702.58 305.069 703.102L308.5 749L309 718L336.5 753L309 714.5L308.505 704.764C308.502 704.706 308.504 704.647 308.511 704.589Z" fill="#953535"/>
</g>
<g filter="url(#filter3_if_3090_4706)">
<circle cx="287" cy="86" r="38" fill="url(#paint2_radial_3090_4706)"/>
</g>
<g filter="url(#filter4_ii_3090_4706)">
<circle cx="287" cy="86" r="38" fill="#FF5454"/>
</g>
<path d="M173.018 207.108L171.957 218.775L161.351 215.24L171.25 221.604L161.351 227.26L176.553 223.371L182.564 225.846L177.614 221.604L173.018 207.108Z" fill="black"/>
<path d="M89 251L99 249.5L92.726 253.844C88.4753 256.786 83.1164 257.635 78.1645 256.149L72 254.3L82 252L75 243L89 251Z" fill="black"/>
<path d="M87.5 693.5L89.5 693L94.7798 724.863L91.9552 725.125L87.5 693.5Z" fill="#592020"/>
</g>
<defs>
<filter id="filter0_i_3090_4706" x="86" y="681.324" width="42" height="87.1763" filterUnits="userSpaceOnUse" color-interpolation-filters="sRGB">
<feFlood flood-opacity="0" result="BackgroundImageFix"/>
<feBlend mode="normal" in="SourceGraphic" in2="BackgroundImageFix" result="shape"/>
<feColorMatrix in="SourceAlpha" type="matrix" values="0 0 0 0 0 0 0 0 0 0 0 0 0 0 0 0 0 0 127 0" result="hardAlpha"/>
<feOffset dy="4"/>
<feGaussianBlur stdDeviation="11"/>
<feComposite in2="hardAlpha" operator="arithmetic" k2="-1" k3="1"/>
<feColorMatrix type="matrix" values="0 0 0 0 0 0 0 0 0 0 0 0 0 0 0 0 0 0 0.5 0"/>
<feBlend mode="normal" in2="shape" result="effect1_innerShadow_3090_4706"/>
</filter>
<filter id="filter1_i_3090_4706" x="203.5" y="762" width="39" height="54" filterUnits="userSpaceOnUse" color-interpolation-filters="sRGB">
<feFlood flood-opacity="0" result="BackgroundImageFix"/>
<feBlend mode="normal" in="SourceGraphic" in2="BackgroundImageFix" result="shape"/>
<feColorMatrix in="SourceAlpha" type="matrix" values="0 0 0 0 0 0 0 0 0 0 0 0 0 0 0 0 0 0 127 0" result="hardAlpha"/>
<feOffset dy="4"/>
<feGaussianBlur stdDeviation="11"/>
<feComposite in2="hardAlpha" operator="arithmetic" k2="-1" k3="1"/>
<feColorMatrix type="matrix" values="0 0 0 0 0 0 0 0 0 0 0 0 0 0 0 0 0 0 0.5 0"/>
<feBlend mode="normal" in2="shape" result="effect1_innerShadow_3090_4706"/>
</filter>
<filter id="filter2_i_3090_4706" x="286.5" y="660.5" width="49.9998" height="96.5" filterUnits="userSpaceOnUse" color-interpolation-filters="sRGB">
<feFlood flood-opacity="0" result="BackgroundImageFix"/>
<feBlend mode="normal" in="SourceGraphic" in2="BackgroundImageFix" result="shape"/>
<feColorMatrix in="SourceAlpha" type="matrix" values="0 0 0 0 0 0 0 0 0 0 0 0 0 0 0 0 0 0 127 0" result="hardAlpha"/>
<feOffset dy="4"/>
<feGaussianBlur stdDeviation="11"/>
<feComposite in2="hardAlpha" operator="arithmetic" k2="-1" k3="1"/>
<feColorMatrix type="matrix" values="0 0 0 0 0 0 0 0 0 0 0 0 0 0 0 0 0 0 0.5 0"/>
<feBlend mode="normal" in2="shape" result="effect1_innerShadow_3090_4706"/>
</filter>
<filter id="filter3_if_3090_4706" x="214" y="13" width="146" height="146" filterUnits="userSpaceOnUse" color-interpolation-filters="sRGB">
<feFlood flood-opacity="0" result="BackgroundImageFix"/>
<feBlend mode="normal" in="SourceGraphic" in2="BackgroundImageFix" result="shape"/>
<feColorMatrix in="SourceAlpha" type="matrix" values="0 0 0 0 0 0 0 0 0 0 0 0 0 0 0 0 0 0 127 0" result="hardAlpha"/>
<feOffset dx="2" dy="2"/>
<feGaussianBlur stdDeviation="2"/>
<feComposite in2="hardAlpha" operator="arithmetic" k2="-1" k3="1"/>
<feColorMatrix type="matrix" values="0 0 0 0 0 0 0 0 0 0 0 0 0 0 0 0 0 0 0.25 0"/>
<feBlend mode="normal" in2="shape" result="effect1_innerShadow_3090_4706"/>
<feGaussianBlur stdDeviation="17.5" result="effect2_foregroundBlur_3090_4706"/>
</filter>
<filter id="filter4_ii_3090_4706" x="247" y="46" width="80" height="80" filterUnits="userSpaceOnUse" color-interpolation-filters="sRGB">
<feFlood flood-opacity="0" result="BackgroundImageFix"/>
<feBlend mode="normal" in="SourceGraphic" in2="BackgroundImageFix" result="shape"/>
<feColorMatrix in="SourceAlpha" type="matrix" values="0 0 0 0 0 0 0 0 0 0 0 0 0 0 0 0 0 0 127 0" result="hardAlpha"/>
<feOffset dx="2" dy="2"/>
<feGaussianBlur stdDeviation="2"/>
<feComposite in2="hardAlpha" operator="arithmetic" k2="-1" k3="1"/>
<feColorMatrix type="matrix" values="0 0 0 0 1 0 0 0 0 1 0 0 0 0 1 0 0 0 0.2 0"/>
<feBlend mode="normal" in2="shape" result="effect1_innerShadow_3090_4706"/>
<feColorMatrix in="SourceAlpha" type="matrix" values="0 0 0 0 0 0 0 0 0 0 0 0 0 0 0 0 0 0 127 0" result="hardAlpha"/>
<feOffset dx="-2" dy="-2"/>
<feGaussianBlur stdDeviation="2"/>
<feComposite in2="hardAlpha" operator="arithmetic" k2="-1" k3="1"/>
<feColorMatrix type="matrix" values="0 0 0 0 0 0 0 0 0 0 0 0 0 0 0 0 0 0 0.05 0"/>
<feBlend mode="normal" in2="effect1_innerShadow_3090_4706" result="effect2_innerShadow_3090_4706"/>
</filter>
<linearGradient id="paint0_linear_3090_4706" x1="187.5" y1="0" x2="188" y2="1453" gradientUnits="userSpaceOnUse">
<stop stop-color="#FFC194"/>
<stop offset="1" stop-color="white"/>
</linearGradient>
<linearGradient id="paint1_linear_3090_4706" x1="156.5" y1="658" x2="197" y2="932" gradientUnits="userSpaceOnUse">
<stop stop-color="#DD5858"/>
<stop offset="0.711031" stop-color="#540000"/>
</linearGradient>
<radialGradient id="paint2_radial_3090_4706" cx="0" cy="0" r="1" gradientUnits="userSpaceOnUse" gradientTransform="translate(287 86) rotate(90) scale(76)">
<stop stop-color="#FF0000"/>
<stop offset="1" stop-color="#FFCF54" stop-opacity="0"/>
</radialGradient>
<clipPath id="clip0_3090_4706">
<rect width="375" height="812" fill="white"/>
</clipPath>
</defs>
</svg>
